<svg width="381" height="450" viewBox="0 0 381 450" fill="none" xmlns="http://www.w3.org/2000/svg">
<path d="M258.099 13.1568L266.295 23.9565L298.535 24.2855L329.807 50.9098L331.085 85.1902L340.633 88.8635L349.98 115.616L337.967 134.894L335.047 198.358L304.651 242.999L320.807 311.524L364 345.312L355.127 367.313L317.667 379.026L312.719 405.449L298.772 421.53L288.385 425.678L273.05 407.843L262.37 415.463L248.076 404.59L225.129 404.207L210.524 408.72L214.03 420.708L176.587 450L135.256 440.059L127.863 429.918L100.37 433.7L86.2761 426.665L63.7306 434.924L44.3061 424.399L40.1438 399.017L18 391.324L37.9348 341.346L28.4967 326.289L30.3953 311.506L43.0832 302.424L29.2271 272.675L87.919 146.077L78.6636 133.304L89.4528 125.958L87.5173 118.978L61.1745 106.918L58.8563 77.0406L64.6431 71.6134L83.5924 80.1467L99.2926 69.6945L104.733 78.0639L143.435 60.4117L160.467 65.3275L196.12 36.2361L217.461 39.1231L223.395 19.3151L247.09 11.1833L245.32 0L258.099 13.1568Z" fill="#FF7F11"/>
<mask id="mask0_300_151" style="mask-type:alpha" maskUnits="userSpaceOnUse" x="18" y="0" width="346" height="450">
<path d="M258.099 13.1568L266.295 23.9565L298.535 24.2855L329.807 50.9098L331.085 85.1902L340.633 88.8635L349.98 115.616L337.967 134.894L335.047 198.358L304.651 242.999L320.807 311.524L364 345.312L355.127 367.313L317.667 379.026L312.719 405.449L298.772 421.53L288.385 425.678L273.05 407.843L262.37 415.463L248.076 404.59L225.129 404.207L210.524 408.72L214.03 420.708L176.587 450L135.256 440.059L127.863 429.918L100.37 433.7L86.2761 426.665L63.7306 434.924L44.3061 424.399L40.1438 399.017L18 391.324L37.9348 341.346L28.4967 326.289L30.3953 311.506L43.0832 302.424L29.2271 272.675L87.919 146.077L78.6636 133.304L89.4528 125.958L87.5173 118.978L61.1745 106.918L58.8563 77.0406L64.6431 71.6134L83.5924 80.1467L99.2926 69.6945L104.733 78.0639L143.435 60.4117L160.467 65.3275L196.12 36.2361L217.461 39.1231L223.395 19.3151L247.09 11.1833L245.32 0L258.099 13.1568Z" fill="#FF7F11"/>
</mask>
<g mask="url(#mask0_300_151)">
<g style="mix-blend-mode:multiply" opacity="0.3">
<path d="M45.8144 360.637V354.697H100.825V360.637H79.353V369.176C81.5394 367.444 83.6433 366.598 85.6647 366.639C86.8197 366.681 88.7999 367.98 91.6051 370.538C94.4103 373.054 96.3904 375.179 97.5455 376.911C98.9068 379.015 98.7212 381.882 96.9886 385.513C95.2972 389.143 93.1933 391.742 90.6769 393.309L84.6127 388.792C86.7991 387.678 88.6967 385.616 90.3056 382.604C91.997 379.345 92.3683 376.808 91.4194 374.993C90.4294 373.178 88.1398 372.827 84.5508 373.941C82.8182 374.519 81.0856 375.715 79.353 377.53V396.403L71.6799 392.938V384.77C68.9572 387.328 66.5233 388.607 64.3782 388.607C63.7181 388.607 63.0374 388.503 62.3361 388.297C61.6348 388.05 60.8923 387.658 60.1085 387.121C59.3247 386.585 58.644 386.111 58.0665 385.698C57.4889 385.244 56.7464 384.584 55.8388 383.718C54.9725 382.811 54.3125 382.15 53.8587 381.738C53.4461 381.284 52.7655 380.562 51.8167 379.572C50.9091 378.541 50.3316 377.901 50.084 377.654C49.8365 377.406 49.7128 371.734 49.7128 360.637H45.8144ZM57.4477 380.129C59.2216 381.862 61.6348 382.109 64.6876 380.872C67.7403 379.634 70.0711 377.654 71.6799 374.931V360.637H57.3239L57.4477 380.129Z" fill="#FF7F11" fill-opacity="0.9"/>
</g>
<g style="mix-blend-mode:multiply" opacity="0.3">
<path d="M243.937 345.356L244.432 341.548L268.931 345.134L268.436 348.942L265.389 348.496L262.412 371.423L257.792 368.484L258.431 363.565C256.478 364.734 254.828 365.22 253.483 365.023C253.06 364.961 252.634 364.832 252.202 364.634C251.774 364.409 251.332 364.089 250.875 363.672C250.419 363.254 250.023 362.887 249.688 362.568C249.356 362.223 248.936 361.73 248.428 361.09C247.949 360.427 247.582 359.942 247.326 359.635C247.1 359.306 246.725 358.779 246.2 358.056C245.706 357.31 245.389 356.846 245.252 356.664C245.114 356.482 245.507 352.834 246.431 345.721L243.937 345.356ZM249.755 358.94C250.746 360.217 252.269 360.601 254.324 360.094C256.38 359.586 258.035 358.535 259.291 356.94L260.481 347.777L251.299 346.433L249.755 358.94Z" fill="#FF7F11" fill-opacity="0.9"/>
</g>
<g style="mix-blend-mode:multiply" opacity="0.5">
<path d="M281.669 119.919V109.02H266.682C269.051 110.994 270.335 112.909 270.532 114.765C270.572 115.2 270.532 115.654 270.414 116.128C270.295 116.602 270.137 117.036 269.94 117.431C269.782 117.826 269.486 118.3 269.051 118.853C268.656 119.366 268.301 119.801 267.985 120.156C267.709 120.511 267.235 121.005 266.563 121.637C265.892 122.269 265.359 122.743 264.964 123.058C264.609 123.374 263.996 123.908 263.128 124.658C262.298 125.408 261.686 125.961 261.291 126.316C263.779 128.883 266.346 130.048 268.992 129.811C271.638 129.535 274.047 128.508 276.219 126.731C278.43 124.915 280.247 122.644 281.669 119.919ZM240.618 109.02V116.839C243.856 113.798 246.64 112.317 248.97 112.396C249.958 112.475 251.359 113.265 253.176 114.765C255.032 116.227 256.651 117.944 258.033 119.919C259.06 119.129 259.791 118.517 260.225 118.083C262.516 116.029 263.819 114.311 264.135 112.929C264.49 111.547 264.036 110.244 262.772 109.02H240.618ZM233.214 124.006V120.274C230.212 118.774 227.487 118.438 225.039 119.267C222.591 120.097 220.675 121.518 219.293 123.532C217.95 125.546 217.792 127.087 218.819 128.153C219.254 128.666 219.925 129.081 220.833 129.397C221.741 129.713 222.847 129.89 224.15 129.93C225.454 129.93 226.915 129.436 228.534 128.449C230.192 127.462 231.752 125.981 233.214 124.006ZM293.516 103.333V109.02H289.014V143.258L281.669 139.941V130.108C278.391 133.899 275.212 135.794 272.132 135.794C270.591 135.794 268.834 135.301 266.86 134.313C264.925 133.287 263.128 132.082 261.469 130.7C259.85 129.278 258.448 127.936 257.263 126.672C256.079 125.408 255.23 124.401 254.716 123.651C253.334 122.229 251.912 121.242 250.451 120.689C249.03 120.097 247.707 119.958 246.482 120.274C245.258 120.551 244.133 121.143 243.106 122.051C242.079 122.92 241.25 124.026 240.618 125.369V143.317L233.214 140V131.707C230.844 134.471 228.435 135.853 225.987 135.853C221.287 135.853 216.983 132.062 213.073 124.48C212.244 122.901 212.738 121.005 214.554 118.794C216.41 116.582 218.641 114.844 221.248 113.581C223.854 112.317 225.73 112.06 226.875 112.811C228.85 114.272 230.963 115.713 233.214 117.135V109.02H209.401V103.333H293.516ZM304.178 98.9494C302.046 97.9622 300.466 96.422 299.439 94.329C299.518 93.6577 300.13 92.8086 301.276 91.7819C302.46 90.7156 303.388 90.1035 304.06 89.9456C306.232 90.8933 307.792 92.3742 308.739 94.3883C308.108 96.1653 306.587 97.6857 304.178 98.9494ZM281.135 97.1131L276.93 92.3742C278.944 91.7424 281.254 91.2882 283.86 91.0118C286.427 90.6959 288.283 90.6366 289.428 90.8341C290.218 91.0316 291.048 91.4265 291.916 92.0188C292.785 92.5717 293.733 93.4207 294.76 94.566C295.786 95.6717 296.596 96.58 297.188 97.2908C297.781 98.0017 298.65 99.1271 299.795 100.667C300.98 102.168 301.671 103.056 301.868 103.333H308.562V109.02H304.001V143.317L296.655 140V109.02H292.153V103.333H299.321C296.793 99.9367 294.385 97.6462 292.094 96.4615C289.527 95.0794 285.874 95.2965 281.135 97.1131ZM343.051 141.303C341.037 140.355 339.536 138.914 338.549 136.979C338.628 136.347 339.22 135.538 340.326 134.55C341.432 133.563 342.32 132.99 342.992 132.832C345.006 133.741 346.487 135.143 347.434 137.038C346.763 138.736 345.302 140.158 343.051 141.303ZM335.232 107.835L330.611 102.859C331.915 101.121 334.106 99.759 337.187 98.7717C340.306 97.745 342.636 97.7055 344.176 98.6533C346.072 99.7985 348.185 101.674 350.515 104.281C352.884 106.887 354.266 108.743 354.661 109.849C354.859 110.362 354.938 110.935 354.898 111.567C354.898 112.159 354.819 112.751 354.661 113.344C354.543 113.897 354.306 114.529 353.95 115.239C353.634 115.95 353.299 116.602 352.943 117.194C352.588 117.786 352.114 118.478 351.522 119.267C350.969 120.057 350.455 120.729 349.982 121.281C349.547 121.834 348.955 122.525 348.204 123.355C347.494 124.184 346.901 124.855 346.427 125.369C345.993 125.843 345.401 126.494 344.65 127.323C343.9 128.113 343.347 128.706 342.992 129.101L337.424 124.302C337.463 124.263 337.522 124.204 337.601 124.125C338.036 123.69 338.431 123.295 338.786 122.94C339.181 122.585 339.813 121.973 340.682 121.104C341.55 120.195 342.301 119.346 342.932 118.557C343.604 117.727 344.354 116.779 345.183 115.713C346.013 114.647 346.664 113.64 347.138 112.692C347.652 111.744 348.066 110.797 348.382 109.849C348.738 108.862 348.856 107.973 348.738 107.183C348.619 106.354 348.264 105.643 347.671 105.051C346.605 104.103 345.262 103.728 343.643 103.925C342.024 104.083 340.425 104.557 338.845 105.347C337.305 106.097 336.101 106.927 335.232 107.835Z" fill="#FF7F11" fill-opacity="0.9"/>
</g>
</g>
<path d="M270.436 344.954V330.786L263.26 330.694C264.64 332.963 265.023 334.865 264.41 336.398C263.827 337.901 262.8 339.02 261.328 339.756C259.856 340.461 258.752 340.507 258.016 339.894C254.305 336.735 252.373 335.079 252.22 334.926C250.871 333.638 250.334 332.013 250.61 330.05C250.886 328.087 251.806 326.861 253.37 326.37C253.493 326.339 259.181 326.339 270.436 326.37V320.942H246.7V316.526H279.682V320.942H276.14V347.53L270.436 344.954ZM259.81 330.648C256.805 330.617 255.118 331.277 254.75 332.626C254.505 333.546 254.873 334.42 255.854 335.248C256.927 336.137 257.955 336.291 258.936 335.708C260.101 335.033 260.669 333.347 260.638 330.648H259.81ZM273.305 316.618L271.327 316.664C270.622 315.683 269.732 314.655 268.659 313.582C267.586 312.478 266.574 311.681 265.623 311.19C263.63 310.117 260.793 310.285 257.113 311.696L253.847 308.016C255.411 307.525 257.205 307.173 259.229 306.958C261.222 306.713 262.664 306.667 263.553 306.82C264.166 306.973 264.826 307.28 265.531 307.74C266.206 308.2 266.942 308.875 267.739 309.764C268.536 310.623 269.18 311.343 269.671 311.926C270.131 312.478 270.806 313.352 271.695 314.548C272.584 315.713 273.121 316.403 273.305 316.618ZM278.825 320.942V316.526H307.299V320.942H303.757V347.53L298.053 344.954V339.25C295.998 340.906 294.189 341.734 292.625 341.734C292.134 341.734 291.628 341.657 291.107 341.504C290.586 341.32 290.034 341.029 289.451 340.63C288.868 340.231 288.362 339.879 287.933 339.572C287.504 339.235 286.952 338.744 286.277 338.1C285.633 337.425 285.142 336.935 284.805 336.628C284.498 336.291 283.992 335.754 283.287 335.018C282.612 334.251 282.183 333.776 281.999 333.592C281.815 333.408 281.723 329.191 281.723 320.942H278.825ZM287.473 335.432C288.792 336.72 290.586 336.904 292.855 335.984C295.124 335.064 296.857 333.592 298.053 331.568V320.942H287.381L287.473 335.432ZM306.674 320.942V316.526H319.416V320.942H315.874V347.576L310.17 345V320.942H306.674ZM343.454 344.954V330.786C342.104 331.614 340.678 332.81 339.176 334.374C337.704 335.907 336.538 337.425 335.68 338.928L331.862 335.8C331.984 335.003 332.613 333.929 333.748 332.58C330.62 330.495 328.228 330.265 326.572 331.89C325.284 333.301 325.268 335.493 326.526 338.468C327.814 341.443 329.761 343.973 332.368 346.058L331.126 347.622C328.672 345.475 326.25 342.915 323.858 339.94C321.466 336.935 320.178 334.742 319.994 333.362C319.871 332.411 320.377 331.292 321.512 330.004C322.646 328.685 323.95 327.612 325.422 326.784C326.894 325.956 328.044 325.68 328.872 325.956C330.282 326.447 332.383 328.164 335.174 331.108C336.431 329.912 337.811 328.869 339.314 327.98C340.816 327.091 342.196 326.554 343.454 326.37V320.942H318.844V316.526H352.746V320.942H349.158V347.53L343.454 344.954ZM345.783 317.216L342.195 317.17C340.968 316.066 339.972 314.885 339.205 313.628C338.408 312.34 338.27 311.267 338.791 310.408C339.619 309.059 340.8 307.863 342.333 306.82C343.836 305.777 345.4 305.256 347.025 305.256C347.485 305.256 348.006 305.455 348.589 305.854C349.141 306.253 349.77 306.866 350.475 307.694C351.18 308.491 351.855 309.304 352.499 310.132C353.112 310.929 353.894 311.972 354.845 313.26C355.826 314.548 356.67 315.637 357.375 316.526H363.263V320.942H359.721V347.53L354.017 344.954V320.942H350.521V316.526H354.937L351.763 312.846C350.72 311.681 349.708 310.822 348.727 310.27C347.746 309.718 346.902 309.473 346.197 309.534C345.492 309.565 344.878 309.749 344.357 310.086C343.805 310.393 343.406 310.791 343.161 311.282C342.885 311.742 342.778 312.171 342.839 312.57C342.931 313.705 343.912 315.253 345.783 317.216Z" fill="black" fill-opacity="0.8"/>
<path d="M0.682 216.562V206.386H7.89C5.982 204.337 4.56867 202.075 3.65 199.602C2.802 197.129 2.696 194.938 3.332 193.03C4.18 190.839 7.00667 188.225 11.812 185.186C16.6173 182.147 20.08 180.699 22.2 180.84C24.8853 180.981 36.1567 185.115 56.014 193.242C75.942 201.369 87.2487 206.421 89.934 208.4L83.15 208.294C56.9327 198.33 37.994 193.277 26.334 193.136C15.946 193.065 14.0027 197.482 20.504 206.386H30.044V216.562H21.882V278.042L8.738 272.106V216.562H0.682ZM87.5523 271.894V250.588C83.0296 252.779 79.249 253.874 76.2103 253.874C73.5956 253.874 69.0376 251.648 62.5363 247.196C59.5683 250.517 55.717 252.92 50.9823 254.404C52.2543 256.807 55.1163 259.951 59.5683 263.838C64.091 267.725 68.4723 271.117 72.7123 274.014L69.7443 277.936C59.9216 271.788 53.0316 267.053 49.0743 263.732C40.5943 256.665 34.941 249.175 32.1143 241.26C33.7396 236.667 35.365 233.416 36.9903 231.508C37.6263 230.731 38.7923 230.766 40.4883 231.614C42.1843 232.462 43.7036 233.522 45.0463 234.794C45.3996 235.218 45.6823 235.854 45.8943 236.702C46.177 237.479 46.4243 238.575 46.6363 239.988C46.919 241.331 47.2016 242.497 47.4843 243.486C50.311 242.567 52.5016 241.083 54.0563 239.034C55.6816 236.985 56.6003 234.688 56.8123 232.144C57.095 229.529 57.0243 226.95 56.6003 224.406C56.247 221.791 55.611 219.177 54.6923 216.562H29.2523V206.386H106.42V216.562H100.696V277.83L87.5523 271.894ZM61.9003 216.562C64.939 221.226 66.741 225.925 67.3063 230.66C67.9423 235.324 67.2003 239.599 65.0803 243.486C67.2003 244.405 69.497 244.935 71.9703 245.076C74.5143 245.147 77.2703 244.475 80.2383 243.062C83.2063 241.578 85.6443 239.246 87.5523 236.066V216.562H61.9003ZM105.647 216.562V206.386H114.127C113.138 199.39 113.208 194.302 114.339 191.122C115.046 189.143 122.43 186.953 136.493 184.55C150.626 182.077 159.566 180.84 163.311 180.84C167.339 180.84 181.296 184.903 205.181 193.03C229.066 201.086 243.447 206.209 248.323 208.4L237.299 208.294C199.846 195.221 170.59 189.991 149.531 192.606C148.966 192.677 148.118 192.783 146.987 192.924C144.726 193.207 142.994 193.454 141.793 193.666C140.662 193.807 139.108 194.09 137.129 194.514C135.15 194.938 133.631 195.468 132.571 196.104C131.511 196.669 130.416 197.411 129.285 198.33C128.154 199.249 127.377 200.379 126.953 201.722C126.529 203.065 126.388 204.619 126.529 206.386H135.009V216.562H126.847V278.042L113.703 272.106V216.562H105.647ZM246.047 231.084V216.562H187.535V230.554C193.33 225.113 198.312 222.463 202.481 222.604C205.52 222.745 209.689 225.749 214.989 231.614C218.24 228.434 221.879 225.961 225.907 224.194C230.006 222.427 232.938 222.145 234.705 223.346C238.238 225.961 242.019 228.54 246.047 231.084ZM246.047 243.38V236.702C240.676 234.017 235.8 233.416 231.419 234.9C227.038 236.384 223.61 238.928 221.137 242.532C218.734 246.136 218.452 248.892 220.289 250.8C221.066 251.719 222.268 252.461 223.893 253.026C225.518 253.591 227.497 253.909 229.829 253.98C232.161 253.98 234.776 253.097 237.673 251.33C240.641 249.563 243.432 246.913 246.047 243.38ZM174.285 243.38V236.702C168.914 234.017 164.038 233.416 159.657 234.9C155.276 236.384 151.848 238.928 149.375 242.532C146.972 246.136 146.69 248.892 148.527 250.8C149.304 251.719 150.506 252.461 152.131 253.026C153.756 253.591 155.735 253.909 158.067 253.98C160.399 253.98 163.014 253.097 165.911 251.33C168.879 249.563 171.67 246.913 174.285 243.38ZM297.563 216.562H259.297V228.434C263.396 224.83 268.413 223.134 274.349 223.346C276.328 223.417 279.473 225.713 283.783 230.236C288.164 234.759 291.486 238.681 293.747 242.002C296.15 245.677 295.372 250.023 291.415 255.04C287.528 259.987 282.582 263.485 276.575 265.534L266.611 256.418C274.243 253.733 279.225 250.694 281.557 247.302C283.182 244.97 284.03 242.779 284.101 240.73C284.242 238.681 283.712 237.161 282.511 236.172C281.38 235.112 279.826 234.441 277.847 234.158C275.869 233.875 273.607 234.335 271.063 235.536C265.056 238.292 261.134 242.497 259.297 248.15V277.936L246.047 272V257.16C241.807 262.107 237.496 264.58 233.115 264.58C224.706 264.58 217.003 257.796 210.007 244.228C209.159 242.532 209.124 240.695 209.901 238.716C207.145 236.667 204.248 235.854 201.209 236.278C198.241 236.631 195.52 237.727 193.047 239.564C190.574 241.331 188.736 243.415 187.535 245.818V277.936L174.285 272V257.16C170.045 262.107 165.734 264.58 161.353 264.58C152.944 264.58 145.241 257.796 138.245 244.228C136.761 241.401 137.644 238.009 140.895 234.052C144.216 230.095 148.209 226.985 152.873 224.724C157.537 222.463 160.894 222.003 162.943 223.346C166.476 225.961 170.257 228.54 174.285 231.084V216.562H131.673V206.386H297.563V216.562ZM294.346 216.562V206.386H369.606V216.562H361.656V277.936L348.512 272V253.768H326.57C326.57 257.372 326.075 260.411 325.086 262.884C324.167 265.357 323.001 267.124 321.588 268.184C320.245 269.173 318.761 269.845 317.136 270.198C315.511 270.481 314.097 270.516 312.896 270.304C311.695 270.092 310.741 269.739 310.034 269.244C305.441 266.135 301.695 262.849 298.798 259.386C298.091 258.538 297.632 257.443 297.42 256.1C297.208 254.757 297.314 253.309 297.738 251.754C298.162 250.199 298.904 248.751 299.964 247.408C301.095 245.995 302.826 244.899 305.158 244.122C307.49 243.274 310.246 242.921 313.426 243.062V216.562H294.346ZM326.57 243.38L348.512 243.274V216.562H326.57V243.38ZM313.32 253.344C311.129 253.061 309.363 253.309 308.02 254.086C306.677 254.863 305.971 255.782 305.9 256.842C305.9 257.902 306.183 258.891 306.748 259.81C307.384 260.305 308.197 260.658 309.186 260.87C310.175 261.011 311.094 260.411 311.942 259.068C312.861 257.725 313.32 255.817 313.32 253.344Z" fill="white"/>
</svg>
