<svg width="192" height="70" viewBox="0 0 192 70" fill="none" xmlns="http://www.w3.org/2000/svg">
<path d="M183 0H0V70H183V0Z" fill="white"/>
<path d="M183 0H0V70H183V0Z" fill="white"/>
<path d="M109.081 32.9985C109.036 34.1939 108.9 35.2514 108.629 36.2169C108.312 37.2284 107.996 38.056 107.589 38.6997C107.996 39.2055 108.312 39.7572 108.584 40.4468C108.81 41.0905 108.945 41.7802 108.945 42.5618C108.945 43.5733 108.764 44.4929 108.358 45.3205C107.951 46.1481 107.363 46.8377 106.595 47.3895C105.826 47.9872 104.877 48.401 103.792 48.7228C102.707 49.0446 101.487 49.1826 100.086 49.1826C98.775 49.1826 97.554 49.0446 96.424 48.7228C95.339 48.4469 94.481 48.0791 93.893 47.6653C93.486 47.3895 93.215 47.1136 93.034 46.7917C92.899 46.5159 92.808 46.194 92.808 45.7802C92.808 45.3205 92.944 44.9067 93.26 44.4929C93.531 44.125 93.893 43.8492 94.3 43.6653C94.887 44.171 95.656 44.5848 96.605 45.0446C97.509 45.4584 98.684 45.6883 100.04 45.6883C101.622 45.6883 102.888 45.3205 103.702 44.6308C104.561 43.9411 105.013 43.1135 105.013 42.148C105.013 41.9641 104.967 41.8262 104.967 41.6882C104.922 41.5503 104.922 41.4124 104.877 41.2744C104.335 41.8721 103.657 42.3319 102.753 42.6538C101.849 43.0216 100.809 43.2055 99.679 43.2055C98.82 43.2055 98.052 43.1135 97.328 42.9296C96.605 42.7457 96.017 42.4699 95.475 42.102C94.978 41.6882 94.571 41.2285 94.255 40.7227C93.983 40.171 93.848 39.5273 93.848 38.8376C93.848 37.4583 94.345 36.4008 95.294 35.6192C96.289 34.8376 97.645 34.4238 99.362 34.4238C100.492 34.4238 101.442 34.5617 102.346 34.8836C103.205 35.2054 103.928 35.5732 104.515 36.033C104.606 35.6192 104.741 35.1135 104.787 34.6077C104.877 34.056 104.922 33.5502 104.922 32.9985H92.266C91.814 32.9985 91.452 32.8606 91.271 32.5847C91.09 32.2628 91 31.895 91 31.3433C91 31.1134 91.045 30.8835 91.09 30.5617C91.136 30.2398 91.226 30.0099 91.316 29.7801H110.301C110.753 29.7801 111.024 29.964 111.205 30.2398C111.386 30.5157 111.477 30.9295 111.477 31.4353C111.477 31.6651 111.431 31.941 111.386 32.2628C111.341 32.5847 111.25 32.8146 111.205 32.9985H109.081ZM99.905 40.033C100.538 40.033 101.125 39.8951 101.668 39.7112C102.255 39.4813 102.753 39.1595 103.159 38.7457C102.707 38.3319 102.21 38.01 101.622 37.7801C101.035 37.5503 100.447 37.4583 99.905 37.4583C99.317 37.4583 98.865 37.5962 98.594 37.8261C98.278 38.102 98.142 38.3779 98.142 38.7457C98.142 39.1135 98.278 39.4353 98.594 39.6652C98.865 39.8951 99.317 40.033 99.905 40.033Z" fill="#0D3AA9"/>
<path d="M116.584 32.9985V42.24C116.358 42.2859 116.087 42.3319 115.726 42.3779C115.409 42.4699 115.048 42.4699 114.686 42.4699C113.917 42.4699 113.33 42.3779 112.923 42.102C112.471 41.8262 112.29 41.2744 112.29 40.4468V32.9985H110.618C110.12 32.9985 109.804 32.8606 109.623 32.5847C109.442 32.3088 109.352 31.895 109.352 31.3893C109.352 31.1594 109.397 30.8835 109.442 30.5617C109.488 30.2398 109.578 30.0099 109.668 29.7801H118.212C118.664 29.7801 118.98 29.964 119.206 30.2398C119.387 30.5157 119.477 30.8835 119.477 31.4353C119.477 31.6651 119.432 31.941 119.387 32.2628C119.342 32.5847 119.251 32.8146 119.206 32.9985H116.584Z" fill="#0D3AA9"/>
<path d="M124.902 33.0001V48.4486C124.675 48.4486 124.404 48.5405 124.088 48.5865C123.726 48.6325 123.365 48.6785 123.003 48.6785C122.235 48.6785 121.647 48.5405 121.24 48.2647C120.788 47.9888 120.607 47.4371 120.607 46.6095V33.0001H118.89C118.438 33.0001 118.121 32.8622 117.94 32.5863C117.76 32.3105 117.669 31.8967 117.669 31.3909C117.669 31.161 117.714 30.8852 117.76 30.5633C117.85 30.2415 117.895 30.0116 117.94 29.7817H120.607V27.2529C120.607 25.2759 121.15 23.7587 122.325 22.6552C123.455 21.5517 125.082 21 127.162 21C128.201 21 129.15 21.1379 129.964 21.4138C130.823 21.6897 131.501 22.0575 132.089 22.5173C132.631 22.977 133.083 23.5288 133.354 24.0805C133.625 24.6782 133.761 25.3219 133.761 25.9656C133.761 26.8851 133.58 27.5748 133.128 27.9886C132.721 28.4024 132.179 28.6323 131.456 28.6323C130.959 28.6323 130.552 28.5403 130.19 28.4484C129.829 28.3104 129.557 28.2185 129.331 28.0346C129.331 27.8966 129.377 27.6667 129.377 27.4369C129.377 27.161 129.377 26.9311 129.377 26.7472C129.377 26.1035 129.196 25.5518 128.789 25.184C128.382 24.7702 127.84 24.5403 127.116 24.5403C126.393 24.5403 125.851 24.7702 125.444 25.2299C125.082 25.6897 124.856 26.3794 124.856 27.2529V29.7817H126.8C127.252 29.7817 127.568 29.9656 127.749 30.2415C127.93 30.5173 128.02 30.8852 128.02 31.4369C128.02 31.6668 128.02 31.9426 127.975 32.2645C127.885 32.5863 127.84 32.8162 127.749 33.0001H124.902Z" fill="#0D3AA9"/>
<path d="M144.384 32.9985V48.4469C144.203 48.4469 143.932 48.5389 143.57 48.5849C143.208 48.6308 142.847 48.6768 142.485 48.6768C141.717 48.6768 141.129 48.5389 140.722 48.263C140.27 47.9872 140.089 47.4354 140.089 46.6078V41.5963H134.439C133.942 44.8147 132.676 46.4239 130.597 46.4239C129.828 46.4239 129.196 46.194 128.653 45.6883C128.111 45.1825 127.794 44.6308 127.704 43.9411C128.427 43.4354 129.015 42.6078 129.512 41.5043C129.964 40.4468 130.19 39.1135 130.19 37.5043C130.19 36.8606 130.145 36.125 130.055 35.2514C129.964 34.4238 129.783 33.6422 129.557 32.9985H127.252C126.8 32.9985 126.484 32.8606 126.303 32.5847C126.077 32.2628 125.986 31.895 125.986 31.3433C125.986 31.1134 126.032 30.8835 126.077 30.5617C126.122 30.2398 126.212 30.0099 126.303 29.7801H146.282C146.734 29.7801 147.05 29.964 147.231 30.2398C147.412 30.5157 147.502 30.8835 147.502 31.4353C147.502 31.6651 147.502 31.941 147.412 32.2628C147.367 32.5847 147.322 32.8146 147.231 32.9985H144.384ZM140.089 38.148V32.9985H134.032C134.123 33.4123 134.213 33.8721 134.303 34.3318C134.349 34.8376 134.439 35.2974 134.484 35.7571C134.53 36.2169 134.575 36.6307 134.575 37.0445C134.62 37.4583 134.62 37.8261 134.62 38.148H140.089ZM134.484 46.1021C134.484 45.5044 134.71 44.9526 135.117 44.5388C135.524 44.125 136.021 43.9411 136.699 43.9411C137.332 43.9411 137.874 44.125 138.281 44.5388C138.688 44.9526 138.869 45.5044 138.869 46.1021C138.869 46.7458 138.688 47.2515 138.281 47.7113C137.874 48.1251 137.332 48.309 136.699 48.309C136.021 48.309 135.524 48.1251 135.117 47.7113C134.71 47.2515 134.484 46.7458 134.484 46.1021Z" fill="#0D3AA9"/>
<path d="M155.955 32.9985C156.452 33.8721 157.22 34.5157 158.396 34.9755C159.526 35.4353 160.836 35.6652 162.328 35.6652H162.961C163.006 35.8031 163.097 35.987 163.142 36.2169C163.187 36.4008 163.187 36.6767 163.187 36.9526C163.187 37.5043 163.051 37.9641 162.69 38.3319C162.328 38.6537 161.786 38.8376 161.108 38.8376C160.61 38.8376 160.158 38.7917 159.706 38.7457L158.124 42.6538C157.582 42.3319 156.994 42.102 156.361 41.9181C155.729 41.7342 155.096 41.5963 154.418 41.5963C153.74 41.5963 153.152 41.7342 152.655 42.0101C152.112 42.2859 151.796 42.6538 151.615 43.1135C152.067 43.8492 152.7 44.4469 153.604 44.8607C154.508 45.3205 155.593 45.5044 156.813 45.5044C157.944 45.5044 158.938 45.3664 159.752 45.0446C160.565 44.7228 161.243 44.3549 161.786 43.9411C162.147 44.0791 162.509 44.309 162.78 44.6308C163.051 44.9986 163.187 45.3664 163.187 45.7802C163.187 46.1021 163.097 46.4239 162.961 46.7458C162.825 47.0216 162.645 47.2975 162.328 47.5274C161.786 47.9872 161.062 48.355 160.068 48.6308C159.074 48.9067 157.898 49.0446 156.542 49.0446C155.231 49.0446 154.101 48.9067 153.062 48.5849C151.977 48.263 151.073 47.8492 150.259 47.2975C149.491 46.7458 148.813 46.1021 148.27 45.4124C147.728 44.6768 147.366 43.8952 147.095 43.0676C147.547 41.5963 148.406 40.4928 149.581 39.6192C150.802 38.7917 152.158 38.3779 153.695 38.3779C154.101 38.3779 154.463 38.3779 154.825 38.4698C155.186 38.5618 155.503 38.6537 155.774 38.7457L156.09 37.7801C153.74 36.7686 152.158 35.2054 151.344 32.9985H146.733C146.281 32.9985 145.965 32.8606 145.739 32.5847C145.558 32.2628 145.468 31.895 145.468 31.3433C145.468 31.1134 145.513 30.8835 145.558 30.5617C145.603 30.2398 145.694 30.0099 145.784 29.7801H163.955C164.407 29.7801 164.724 29.964 164.95 30.2398C165.131 30.5157 165.221 30.8835 165.221 31.4353C165.221 31.6651 165.176 31.941 165.131 32.2628C165.04 32.5847 164.995 32.8146 164.95 32.9985H155.955Z" fill="#0D3AA9"/>
<path d="M168.703 48.6785C167.934 48.6785 167.347 48.5405 166.94 48.2647C166.533 47.9888 166.307 47.4371 166.307 46.6095V33.0001H164.634C164.182 33.0001 163.866 32.8622 163.685 32.5863C163.504 32.3105 163.414 31.8967 163.414 31.3909C163.414 31.161 163.414 30.8852 163.504 30.5633C163.55 30.2415 163.595 30.0116 163.685 29.7817H166.352V27.2529C166.352 26.3794 166.126 25.6897 165.674 25.2299C165.222 24.7702 164.68 24.5403 163.956 24.5403C163.188 24.5403 162.691 24.7702 162.329 25.2299C162.013 25.6897 161.832 26.1955 161.832 26.7472C161.832 26.9311 161.832 27.161 161.832 27.4369C161.832 27.6667 161.877 27.8966 161.877 28.0346C161.651 28.2185 161.38 28.3104 161.018 28.4484C160.611 28.5403 160.205 28.6323 159.753 28.6323C159.075 28.6323 158.487 28.4024 158.08 27.9886C157.628 27.5748 157.447 26.8851 157.447 25.9656C157.447 25.3219 157.583 24.6782 157.854 24.0805C158.125 23.5288 158.532 22.977 159.075 22.5173C159.662 22.0575 160.34 21.6897 161.154 21.4138C161.967 21.1379 162.872 21 163.956 21C166.036 21 167.663 21.5517 168.838 22.6552C170.013 23.7127 170.601 25.2759 170.601 27.2529V29.7817H172.5C172.952 29.7817 173.268 29.9656 173.449 30.2415C173.675 30.5173 173.765 30.8852 173.765 31.4369C173.765 31.6668 173.72 31.9426 173.675 32.2645C173.63 32.5863 173.539 32.8162 173.449 33.0001H170.601V48.4486C170.42 48.4486 170.149 48.5405 169.787 48.5865C169.426 48.6325 169.064 48.6785 168.703 48.6785Z" fill="#0D3AA9"/>
<path fill-rule="evenodd" clip-rule="evenodd" d="M34.3828 47.876V45.3091H35.1995C35.4122 45.2973 35.6212 45.368 35.7829 45.5066C35.8576 45.5724 35.9165 45.6542 35.9554 45.7458C35.9942 45.8375 36.0119 45.9367 36.0073 46.0361C36.0224 46.1769 35.9909 46.3188 35.9175 46.44C35.8494 46.5577 35.741 46.647 35.6124 46.6913C35.4337 46.7533 35.2449 46.7807 35.0559 46.7721H34.7508V47.876H34.3828ZM35.1367 45.6322H34.7508V46.44H35.1547C35.2806 46.4485 35.4053 46.4101 35.5047 46.3323C35.5458 46.2934 35.5776 46.2458 35.5978 46.193C35.618 46.1402 35.626 46.0835 35.6213 46.0271C35.6213 45.7669 35.4598 45.6322 35.1367 45.6322ZM36.9945 46.1797C37.1124 46.1797 37.2291 46.2029 37.338 46.248C37.4469 46.2931 37.5458 46.3592 37.6291 46.4426C37.7125 46.5259 37.7786 46.6249 37.8237 46.7338C37.8688 46.8426 37.892 46.9593 37.892 47.0772C37.8942 47.1902 37.8721 47.3024 37.8272 47.4061C37.7823 47.5099 37.7156 47.6028 37.6317 47.6785C37.5443 47.7607 37.4412 47.8244 37.3287 47.866C37.2162 47.9077 37.0964 47.9263 36.9766 47.9208C36.7405 47.927 36.5116 47.84 36.3393 47.6785C36.2586 47.5989 36.1947 47.5038 36.1515 47.399C36.1084 47.2941 36.0868 47.1816 36.088 47.0682C36.085 46.9525 36.1067 46.8374 36.1516 46.7306C36.1964 46.6238 36.2635 46.5278 36.3483 46.449C36.434 46.3663 36.5352 46.3015 36.6462 46.2584C36.7571 46.2153 36.8755 46.1946 36.9945 46.1977V46.1797ZM36.9945 46.4849C36.9216 46.4806 36.8487 46.4921 36.7805 46.5184C36.7124 46.5447 36.6507 46.5853 36.5996 46.6374C36.4982 46.7471 36.4434 46.892 36.447 47.0413C36.4445 47.114 36.4567 47.1865 36.4829 47.2544C36.5091 47.3222 36.5488 47.3841 36.5996 47.4362C36.6541 47.4888 36.719 47.5295 36.79 47.5558C36.8611 47.5821 36.9368 47.5933 37.0125 47.5888C37.0867 47.5926 37.1608 47.581 37.2304 47.5547C37.2999 47.5285 37.3632 47.4881 37.4163 47.4362C37.5172 47.3298 37.5721 47.1879 37.5689 47.0413C37.571 46.9665 37.5577 46.8921 37.53 46.8226C37.5022 46.7532 37.4604 46.6901 37.4074 46.6374C37.3522 46.5857 37.2873 46.5455 37.2164 46.5193C37.1455 46.4931 37.07 46.4814 36.9945 46.4849ZM40.3601 46.1797H40.7191L39.9742 47.9029H39.8575L39.3639 46.7272L38.8703 47.9029H38.7536L38.0087 46.1797H38.3677L38.8074 47.2118L39.2382 46.1797H39.5075L39.9293 47.2118L40.3781 46.1797H40.3601ZM42.3166 47.0772H41.114C41.1142 47.2249 41.1722 47.3666 41.2755 47.4721C41.3264 47.5215 41.387 47.5597 41.4534 47.5844C41.5198 47.6092 41.5907 47.6198 41.6615 47.6157C41.8818 47.6144 42.0959 47.542 42.2718 47.4093V47.7413C42.1775 47.8036 42.0747 47.852 41.9666 47.8849C41.8494 47.9154 41.7287 47.9305 41.6076 47.9298C41.45 47.9346 41.2942 47.8941 41.1589 47.8131C41.0426 47.7319 40.9473 47.6242 40.8806 47.499C40.7933 47.326 40.7579 47.1315 40.7786 46.9388C40.7993 46.7461 40.8753 46.5636 40.9973 46.4131C41.0677 46.3333 41.155 46.2702 41.2528 46.2283C41.3505 46.1864 41.4564 46.1667 41.5627 46.1707C41.6642 46.1671 41.7652 46.1862 41.8584 46.2265C41.9515 46.2669 42.0345 46.3276 42.1012 46.4041C42.2418 46.5857 42.3119 46.812 42.2987 47.0413L42.3166 47.0772ZM41.1409 46.8798H41.9846C41.9854 46.767 41.9437 46.6581 41.8679 46.5746C41.8302 46.5375 41.7852 46.5088 41.7357 46.4902C41.6863 46.4717 41.6334 46.4637 41.5807 46.4669C41.4719 46.4641 41.3661 46.5026 41.2845 46.5746C41.2035 46.6572 41.1529 46.7647 41.1409 46.8798ZM43.0436 46.2066V46.5926C43.2051 46.3323 43.3667 46.1977 43.5282 46.1977C43.6804 46.2101 43.8219 46.2809 43.9231 46.3951L43.7436 46.6823C43.6597 46.5903 43.5445 46.5327 43.4205 46.5208C43.3656 46.5232 43.3119 46.5382 43.2637 46.5646C43.2154 46.5911 43.1739 46.6283 43.1423 46.6733C43.0628 46.7792 43.0217 46.909 43.0256 47.0413V47.9388H42.6846V46.1797L43.0436 46.2066ZM44.5783 45.3091H46.6874V45.6322H45.7899V47.876H45.4219V45.6322H44.5245V45.3091H44.5783ZM47.2708 46.2066C47.5081 46.2029 47.7372 46.2932 47.908 46.4579C47.993 46.5385 48.0602 46.6361 48.105 46.7444C48.1499 46.8526 48.1714 46.9691 48.1683 47.0862C48.1704 47.1992 48.1483 47.3114 48.1034 47.4151C48.0585 47.5188 47.9919 47.6117 47.908 47.6875C47.8205 47.7696 47.7175 47.8334 47.605 47.875C47.4924 47.9166 47.3727 47.9353 47.2528 47.9298C47.0168 47.936 46.7879 47.8489 46.6156 47.6875C46.4591 47.5211 46.372 47.3012 46.372 47.0727C46.372 46.8443 46.4591 46.6244 46.6156 46.4579C46.7023 46.3742 46.805 46.3088 46.9176 46.2656C47.0302 46.2224 47.1503 46.2024 47.2708 46.2066ZM47.2708 46.5118C47.1979 46.5076 47.1249 46.519 47.0568 46.5453C46.9887 46.5716 46.927 46.6122 46.8759 46.6644C46.8228 46.7171 46.7811 46.7801 46.7533 46.8496C46.7255 46.919 46.7122 46.9934 46.7143 47.0682C46.7113 47.1418 46.7241 47.2152 46.752 47.2833C46.7799 47.3515 46.8221 47.4128 46.8759 47.4631C46.929 47.515 46.9924 47.5554 47.0619 47.5817C47.1314 47.6079 47.2055 47.6195 47.2798 47.6157C47.3541 47.6212 47.4288 47.6105 47.4986 47.5841C47.5683 47.5577 47.6315 47.5165 47.6836 47.4631C47.7365 47.4121 47.7781 47.3507 47.8059 47.2827C47.8337 47.2147 47.8471 47.1417 47.8452 47.0682C47.8473 46.9934 47.834 46.919 47.8062 46.8496C47.7784 46.7801 47.7367 46.7171 47.6836 46.6644C47.6282 46.613 47.5632 46.5731 47.4924 46.547C47.4216 46.5208 47.3462 46.5088 47.2708 46.5118ZM49.6491 45.3361H51.1031V45.6592H49.9812V46.44H51.0313V46.7721H49.9812V47.5708H51.1031V47.9029H49.6132V45.3091L49.6491 45.3361ZM52.8711 46.6733V47.876H52.5301V46.9336C52.5442 46.7978 52.5193 46.6608 52.4583 46.5387C52.4244 46.4945 52.3781 46.4615 52.3253 46.4439C52.2725 46.4263 52.2157 46.4249 52.1621 46.44C52.0926 46.4398 52.0244 46.4584 51.9647 46.4938C51.8896 46.5391 51.8229 46.5967 51.7672 46.6644V47.876H51.4351V46.1797H51.7672V46.44C51.894 46.2905 52.0746 46.197 52.2698 46.1797C52.3734 46.18 52.4747 46.2097 52.5621 46.2653C52.6495 46.3209 52.7193 46.4001 52.7634 46.4938C52.8289 46.4033 52.9135 46.3282 53.0112 46.2739C53.1089 46.2196 53.2173 46.1875 53.3288 46.1797C53.4051 46.1788 53.4807 46.1943 53.5504 46.2253C53.6201 46.2563 53.6823 46.302 53.7327 46.3592C53.852 46.5191 53.9094 46.7168 53.8943 46.9157V47.876H53.5532V46.8708C53.5611 46.7573 53.5328 46.6441 53.4724 46.5477C53.4432 46.5092 53.4051 46.4785 53.3613 46.4582C53.3175 46.4378 53.2694 46.4285 53.2211 46.431C53.1447 46.4351 53.0701 46.4567 53.0032 46.494C52.9363 46.5313 52.8789 46.5835 52.8352 46.6464L52.8711 46.6733ZM54.361 48.7645V46.1797H54.9533C55.2136 46.1764 55.466 46.269 55.6623 46.44C55.7462 46.521 55.812 46.6189 55.8553 46.7272C55.8986 46.8355 55.9185 46.9517 55.9136 47.0682C55.9185 47.184 55.8995 47.2995 55.8578 47.4076C55.8162 47.5157 55.7526 47.614 55.6713 47.6965C55.5936 47.7767 55.4999 47.8396 55.3963 47.8814C55.2927 47.9231 55.1816 47.9427 55.07 47.9388C54.9497 47.9386 54.8306 47.9141 54.7199 47.867V48.7645H54.361ZM54.9443 46.5208H54.6751V47.5619C54.7714 47.6147 54.8794 47.6425 54.9892 47.6426C55.0614 47.6456 55.1334 47.6327 55.2001 47.6048C55.2668 47.5768 55.3265 47.5346 55.3751 47.4811C55.4777 47.3649 55.5322 47.2141 55.5277 47.0593C55.5274 46.9563 55.5028 46.8548 55.4559 46.7631C55.4146 46.6841 55.3483 46.621 55.2674 46.5836C55.1541 46.5356 55.0313 46.5141 54.9084 46.5208H54.9443ZM57.0804 46.2066C57.3176 46.2029 57.5467 46.2932 57.7176 46.4579C57.8026 46.5385 57.8697 46.6361 57.9146 46.7444C57.9594 46.8526 57.981 46.9691 57.9778 47.0862C57.98 47.1992 57.9579 47.3114 57.913 47.4151C57.8681 47.5188 57.8015 47.6117 57.7176 47.6875C57.6301 47.7696 57.5271 47.8334 57.4145 47.875C57.302 47.9166 57.1823 47.9353 57.0624 47.9298C56.8264 47.936 56.5974 47.8489 56.4252 47.6875C56.3427 47.6092 56.2777 47.5144 56.2344 47.4092C56.1911 47.304 56.1704 47.1909 56.1739 47.0772C56.1691 46.9612 56.1899 46.8456 56.2349 46.7385C56.2799 46.6315 56.3479 46.5357 56.4342 46.4579C56.5198 46.3753 56.6211 46.3105 56.732 46.2674C56.8429 46.2242 56.9614 46.2036 57.0804 46.2066ZM57.0804 46.5118C57.0075 46.5076 56.9345 46.519 56.8664 46.5453C56.7983 46.5716 56.7366 46.6122 56.6855 46.6644C56.6324 46.7171 56.5906 46.7801 56.5628 46.8496C56.5351 46.919 56.5218 46.9934 56.5239 47.0682C56.5208 47.1418 56.5337 47.2152 56.5615 47.2833C56.5894 47.3515 56.6317 47.4128 56.6855 47.4631C56.7386 47.515 56.8019 47.5554 56.8714 47.5817C56.9409 47.6079 57.0151 47.6195 57.0893 47.6157C57.1637 47.6212 57.2384 47.6105 57.3081 47.5841C57.3779 47.5577 57.4411 47.5165 57.4932 47.4631C57.546 47.4121 57.5877 47.3507 57.6155 47.2827C57.6433 47.2147 57.6567 47.1417 57.6547 47.0682C57.6568 46.9934 57.6436 46.919 57.6158 46.8496C57.588 46.7801 57.5463 46.7171 57.4932 46.6644C57.4381 46.6126 57.3731 46.5725 57.3022 46.5463C57.2313 46.52 57.1559 46.5083 57.0804 46.5118ZM60.437 46.2066H60.796L60.051 47.9298H59.9433L59.4407 46.7541L58.9471 47.9298H58.8394L58.0945 46.2066H58.4535L58.8933 47.2388L59.2523 46.1797H59.5036L59.9254 47.2118L60.3652 46.1797L60.437 46.2066ZM62.4025 47.1041H61.155C61.1547 47.1781 61.1697 47.2514 61.1991 47.3193C61.2284 47.3873 61.2714 47.4485 61.3255 47.499C61.3763 47.5484 61.4369 47.5866 61.5034 47.6114C61.5698 47.6361 61.6406 47.6467 61.7114 47.6426C61.9315 47.6401 62.1452 47.5678 62.3217 47.4362V47.7683C62.2265 47.8289 62.124 47.8772 62.0165 47.9119C61.8992 47.9417 61.7786 47.9568 61.6576 47.9567C61.4998 47.9625 61.3438 47.922 61.2088 47.8401C61.0894 47.7624 60.9933 47.6538 60.9306 47.5259C60.8546 47.3857 60.8175 47.2277 60.8229 47.0682C60.8142 46.8378 60.8945 46.6128 61.0473 46.44C61.1177 46.3602 61.2049 46.2971 61.3027 46.2552C61.4005 46.2133 61.5064 46.1936 61.6127 46.1977C61.7141 46.194 61.8151 46.2131 61.9083 46.2535C62.0015 46.2938 62.0844 46.3545 62.1512 46.431C62.2917 46.6126 62.3619 46.839 62.3486 47.0682L62.4025 47.1041ZM61.2178 46.9067H62.0704C62.0712 46.7939 62.0296 46.685 61.9537 46.6015C61.9155 46.5653 61.8703 46.5372 61.821 46.5187C61.7717 46.5002 61.7192 46.4917 61.6665 46.4938C61.5574 46.4892 61.451 46.5279 61.3704 46.6015C61.2898 46.6855 61.2366 46.7919 61.2178 46.9067ZM63.1205 46.2336V46.6195C63.282 46.3592 63.4436 46.2246 63.6051 46.2246C63.6807 46.2298 63.7545 46.25 63.8223 46.2839C63.8901 46.3177 63.9505 46.3647 64 46.422L63.8295 46.7092C63.7946 46.6396 63.744 46.579 63.6817 46.5323C63.6194 46.4856 63.5471 46.454 63.4705 46.44C63.4141 46.4417 63.3589 46.4564 63.3091 46.4828C63.2593 46.5093 63.2163 46.5468 63.1833 46.5926C63.1073 46.7002 63.0665 46.8288 63.0666 46.9605V47.858H62.7345V46.1797L63.1205 46.2336Z" fill="#444847"/>
<path fill-rule="evenodd" clip-rule="evenodd" d="M25.5066 46.9785L24.8066 48.235C23.4161 50.6088 21.4098 52.5624 18.9998 53.8892C18.7575 53.9969 18.578 54.0866 18.3357 54.1854C18.0959 54.2646 17.862 54.3605 17.6356 54.4726C22.0718 53.6759 26.0713 51.3048 28.8991 47.7952C31.3493 44.8335 33.8712 40.0319 33.5122 34.6021C33.225 29.3877 30.2274 25.4387 25.8387 24.3348C21.1538 23.1501 17.6177 25.2323 15.0688 28.6428C14.7549 29.059 14.4758 29.5002 14.2341 29.9621C17.6895 28.2389 21.809 27.476 25.2823 29.9621C28.3158 32.1609 29.2222 36.5856 28.4324 40.4448C27.9633 42.5181 27.1209 44.4887 25.9464 46.2605C25.8566 46.4221 25.5515 46.817 25.5066 46.9426V46.9785Z" fill="#E76120"/>
<path fill-rule="evenodd" clip-rule="evenodd" d="M13.4174 54.2392C13.0943 54.4636 11.8378 54.0687 11.5058 54.0148C12.3777 54.5317 13.3578 54.839 14.3688 54.9123C15.4734 54.9499 16.5768 54.8074 17.6356 54.4905C17.862 54.3785 18.0959 54.2825 18.3357 54.2033C18.578 54.1046 18.7575 54.0148 18.9998 53.9071C21.4121 52.5755 23.4187 50.6154 24.8066 48.235L25.5066 47.0054C25.5874 46.7541 25.7759 46.4221 25.8836 46.1618C26.9235 43.9768 27.4105 41.5698 27.3016 39.1524C27.2178 37.8267 26.8407 36.5362 26.1977 35.374C25.1998 33.7154 23.6269 32.4816 21.7784 31.9073C19.9299 31.3331 17.9348 31.4585 16.1727 32.2597C14.304 33.1279 12.7739 34.5886 11.8199 36.4151C11.6763 36.6663 11.5596 36.9625 11.434 37.1779C11.7252 37.0486 12.0098 36.9049 12.2866 36.7471C13.2431 36.2693 14.2655 35.9365 15.3201 35.7599C18.21 35.2842 21.2615 36.2176 22.7334 38.7037C23.4356 40.0877 23.6897 41.6561 23.4604 43.1911C23.1098 45.9282 22.0277 48.5202 20.3281 50.6941C19.9304 51.1847 19.4986 51.6466 19.0357 52.0763C18.5682 52.4913 18.0669 52.8665 17.5369 53.1981C16.5407 53.8174 14.5393 54.5713 13.4174 54.2751V54.2392Z" fill="#009844"/>
<path fill-rule="evenodd" clip-rule="evenodd" d="M11.5058 54.0148C11.8378 54.0686 13.0943 54.4635 13.4174 54.2391C13.1775 54.1795 12.9561 54.0614 12.7729 53.8954C12.5897 53.7294 12.4504 53.5207 12.3674 53.2878C11.775 51.9236 12.2776 49.4286 12.6007 48.0824C12.87 47.0054 13.1572 46.0092 13.4982 44.9681L14.5124 41.9974H10.5006C10.1216 43.0016 9.82153 44.0339 9.60309 45.0847C8.89407 47.8849 8.15813 52.7224 11.5058 54.0148Z" fill="#005BA1"/>
<path fill-rule="evenodd" clip-rule="evenodd" d="M10.3749 39.3408L10.6711 39.6729C10.8864 39.4469 11.1383 39.2588 11.416 39.1165C11.7523 38.9503 12.1224 38.8638 12.4975 38.8638C12.8726 38.8638 13.2427 38.9503 13.579 39.1165C13.723 39.1926 13.861 39.2796 13.9918 39.3767C14.1107 39.4865 14.2367 39.5884 14.3688 39.6819L14.6649 39.3767C14.4175 39.0906 14.1114 38.8611 13.7674 38.7036C13.3711 38.5134 12.9371 38.4146 12.4975 38.4146C12.0579 38.4146 11.6239 38.5134 11.2275 38.7036C10.8834 38.8608 10.5773 39.0904 10.33 39.3767L10.3749 39.3408Z" fill="#005BA1"/>
<path fill-rule="evenodd" clip-rule="evenodd" d="M10.8955 39.9063L11.2006 40.2473C11.4614 39.9848 11.7946 39.8061 12.1576 39.7341C12.5205 39.6622 12.8967 39.7002 13.2379 39.8435C13.4495 39.9335 13.637 40.0718 13.7854 40.2473L14.1444 39.8524C13.7052 39.422 13.1169 39.1777 12.502 39.1703C12.1973 39.1719 11.8964 39.2383 11.6194 39.3652C11.3424 39.4921 11.0956 39.6766 10.8955 39.9063Z" fill="#005BA1"/>
<path fill-rule="evenodd" clip-rule="evenodd" d="M11.4788 40.4896L11.8019 40.7499L11.8917 40.6871C12.0664 40.5511 12.2806 40.4756 12.502 40.4717C12.9597 40.4717 13.0494 40.6602 13.3456 40.8038L13.561 40.4896C13.429 40.3449 13.2682 40.2292 13.0889 40.1501C12.9097 40.071 12.7159 40.0301 12.5199 40.0301C12.324 40.0301 12.1302 40.071 11.9509 40.1501C11.7717 40.2292 11.6109 40.3449 11.4788 40.4896Z" fill="#005BA1"/>
<path fill-rule="evenodd" clip-rule="evenodd" d="M11.9904 41.0551L12.5738 41.6384L13.0495 41.0551C12.9846 40.9777 12.9036 40.9155 12.8121 40.8728C12.7206 40.8302 12.6209 40.808 12.5199 40.808C12.419 40.808 12.3193 40.8302 12.2278 40.8728C12.1363 40.9155 12.0553 40.9777 11.9904 41.0551Z" fill="#005BA1"/>
<path fill-rule="evenodd" clip-rule="evenodd" d="M36.1419 40.0588C38.26 39.8614 37.5689 42.15 36.6355 42.6526C36.1822 42.8302 35.6909 42.8889 35.2085 42.8231L36.106 40.0588H36.1419ZM34.1854 43.5142C35.0634 43.5998 35.9492 43.5575 36.815 43.3885C38.3318 42.7513 38.7626 40.5614 38.0087 39.7447C37.5151 39.2152 36.3124 39.3588 35.5854 39.3498L34.2123 43.5142H34.1854Z" fill="#444847"/>
<path fill-rule="evenodd" clip-rule="evenodd" d="M40.3152 43.8283C40.8447 43.6667 41.482 44.2321 40.737 44.3757C39.9921 44.5193 39.4985 44.0706 40.3152 43.8283ZM41.1589 41.3332C41.7781 41.1268 41.5448 42.1141 41.2127 42.2307C40.8806 42.3474 40.7011 42.2307 40.7729 41.8448C40.8447 41.4589 40.9255 41.3781 41.1589 41.2973V41.3332ZM40.3511 42.6077C40.2382 42.6207 40.1302 42.661 40.0364 42.7251C39.9426 42.7892 39.8658 42.8752 39.8126 42.9757C39.7557 43.0862 39.7425 43.2141 39.7758 43.3339C39.8091 43.4537 39.8863 43.5565 39.9921 43.6218C39.2921 43.8911 39.0946 44.3668 39.3908 44.6899C39.8934 45.1925 42.1371 44.9771 41.7602 43.6577C41.5897 43.0385 40.6563 43.2898 40.5037 42.9757C40.6473 42.6167 41.0063 43.0475 41.7422 42.5628C41.9129 42.4165 42.0441 42.2298 42.1241 42.0197C42.204 41.8097 42.2301 41.5829 42.1999 41.3602H42.5948L42.7564 40.7678C41.8589 40.6422 40.4498 40.6332 40.1178 41.6653C40.0632 41.8498 40.0632 42.0462 40.1178 42.2307C40.1287 42.3036 40.1598 42.372 40.2075 42.4282L40.3601 42.6346L40.3511 42.6077Z" fill="#444847"/>
<path fill-rule="evenodd" clip-rule="evenodd" d="M58.1035 42.85C56.9637 43.0923 57.206 41.3422 58.5971 41.4051C58.4707 41.8989 58.3057 42.3821 58.1035 42.85ZM58.8484 40.6781C57.7983 40.7499 56.9637 40.9025 56.6585 42.1141C56.2906 43.559 57.556 43.6488 58.6689 43.4603L60.0331 39.3229H59.2972L58.8484 40.6781Z" fill="#444847"/>
<path fill-rule="evenodd" clip-rule="evenodd" d="M48.0247 41.3961C47.9349 41.7551 47.7913 42.1231 47.6836 42.482C47.5759 42.841 47.5849 42.7692 47.3515 42.868C46.4541 43.2449 46.6964 42.2667 47.0374 41.8359C47.1397 41.6728 47.2882 41.5439 47.4641 41.4656C47.6399 41.3873 47.835 41.3631 48.0247 41.3961ZM47.3605 43.3077C47.3651 43.3315 47.3651 43.3558 47.3605 43.3795C47.3605 43.3795 47.3605 43.4693 47.3605 43.5231H48.0516L48.9491 40.7858C48.3794 40.647 47.7821 40.6719 47.2259 40.8576C45.4937 41.5128 45.5296 44.4476 47.3336 43.3077H47.3605Z" fill="#444847"/>
<path fill-rule="evenodd" clip-rule="evenodd" d="M63.0217 41.3961C62.9499 41.7371 62.7794 42.141 62.6717 42.4821C62.6548 42.5714 62.6168 42.6555 62.5611 42.7273C62.5053 42.7991 62.4332 42.8567 62.3509 42.8953C62.2685 42.9338 62.1782 42.9523 62.0873 42.9491C61.9964 42.9459 61.9075 42.9212 61.8281 42.8769C61.5768 42.5987 61.8909 41.3243 63.0217 41.3961ZM62.3576 43.3077V43.5231H63.0397L63.9372 40.8307C63.452 40.665 62.9259 40.6631 62.4395 40.8252C61.9532 40.9873 61.5334 41.3045 61.2447 41.7282C60.6344 42.7872 61.0383 44.2232 62.3396 43.3436L62.3576 43.3077Z" fill="#444847"/>
<path fill-rule="evenodd" clip-rule="evenodd" d="M53.3378 43.5141H54.0648L54.5315 42.114C54.5315 42.0512 54.5315 42.0063 54.5853 41.9615C54.6482 41.7281 54.6302 41.7191 54.8725 41.5486C55.5187 41.073 55.6174 41.3691 55.4738 41.8448L54.9623 43.5141H55.6623L56.2726 41.7191C56.2726 41.6563 56.2726 41.5935 56.2726 41.5576C56.3624 41.1717 56.2726 40.7588 55.9405 40.6601C55.5607 40.6289 55.1829 40.7409 54.8815 40.9742L54.9533 40.705H54.2353L53.3378 43.4782V43.5141Z" fill="#444847"/>
<path fill-rule="evenodd" clip-rule="evenodd" d="M44.8206 40.7409H44.327L44.1026 41.3422H44.5873C44.5065 41.782 43.1782 44.1693 45.404 43.3885L45.5386 42.6705C45.405 42.7369 45.2632 42.7852 45.1168 42.8141C44.6232 42.7692 45.2335 41.6204 45.3232 41.3512H45.8886L46.0861 40.7409H45.5655L45.7899 40.1575H45.054L44.8475 40.7409H44.8206Z" fill="#444847"/>
<path fill-rule="evenodd" clip-rule="evenodd" d="M51.7672 43.5141L52.5391 43.5231L53.9391 39.3498H53.1493L51.7672 43.5141Z" fill="#444847"/>
<path fill-rule="evenodd" clip-rule="evenodd" d="M48.7606 43.5141L49.4876 43.5231L50.8697 39.3498H50.1338L48.7606 43.5141Z" fill="#444847"/>
<path fill-rule="evenodd" clip-rule="evenodd" d="M38.233 43.55H38.969L39.8665 40.7319H39.1305L38.233 43.55ZM39.8485 39.5831C40.055 39.5831 40.1716 39.7806 40.1178 40.0139C40.097 40.1265 40.0403 40.2294 39.9562 40.3071C39.872 40.3847 39.765 40.433 39.6511 40.4447C39.4536 40.4447 39.328 40.2562 39.3818 40.0139C39.4039 39.9019 39.461 39.7998 39.5449 39.7224C39.6288 39.645 39.7351 39.5962 39.8485 39.5831Z" fill="#444847"/>
<path fill-rule="evenodd" clip-rule="evenodd" d="M42.2987 43.55H43.0346L43.9321 40.7319H43.1962L42.2987 43.55ZM43.9142 39.5831C44.1116 39.5831 44.2373 39.7806 44.1834 40.0139C44.1627 40.1265 44.106 40.2294 44.0218 40.3071C43.9377 40.3847 43.8306 40.433 43.7167 40.4447C43.5103 40.4447 43.3936 40.2562 43.4475 40.0139C43.4695 39.9019 43.5267 39.7998 43.6105 39.7224C43.6944 39.645 43.8007 39.5962 43.9142 39.5831Z" fill="#444847"/>
<path fill-rule="evenodd" clip-rule="evenodd" d="M59.2523 43.55H59.9882L60.8857 40.7319H60.1498L59.2523 43.55ZM60.8678 39.5831C61.0652 39.5831 61.1909 39.7806 61.137 40.0139C61.1163 40.1265 61.0596 40.2294 60.9754 40.3071C60.8913 40.3847 60.7842 40.433 60.6703 40.4447C60.4639 40.4447 60.3472 40.2562 60.4011 40.0139C60.4231 39.9019 60.4803 39.7998 60.5641 39.7224C60.648 39.645 60.7543 39.5962 60.8678 39.5831Z" fill="#444847"/>
<path fill-rule="evenodd" clip-rule="evenodd" d="M63.659 43.9539H42.2718V44.2411H63.659V43.9539Z" fill="#444847"/>
<path fill-rule="evenodd" clip-rule="evenodd" d="M38.4125 43.9539H34.0418V44.2411H38.4125V43.9539Z" fill="#444847"/>
<path d="M78 26H77V53H78V26Z" fill="#D2D2D2"/>
</svg>
