<svg width="40" height="38" viewBox="0 0 40 38" fill="none" xmlns="http://www.w3.org/2000/svg">
<path d="M38.9474 20.1294H27.3684V16.9715C27.3684 16.6924 27.2575 16.4246 27.0601 16.2272C26.8627 16.0298 26.595 15.9189 26.3158 15.9189H25.2702C25.4442 15.6913 25.5601 15.4247 25.6077 15.1423C25.6554 14.8598 25.6335 14.5699 25.5439 14.2979L24.4421 10.8873L27.3404 8.78206C27.6404 8.56202 27.8638 8.25326 27.9789 7.8994C28.0939 7.54553 28.0949 7.16446 27.9817 6.81C27.8685 6.45554 27.6467 6.14562 27.3478 5.92402C27.0489 5.70243 26.6879 5.58035 26.3158 5.57505H22.7368L21.607 2.17154C21.4908 1.81556 21.2649 1.50545 20.9618 1.28556C20.6587 1.06568 20.2938 0.947266 19.9193 0.947266C19.5448 0.947266 19.1799 1.06568 18.8768 1.28556C18.5737 1.50545 18.3478 1.81556 18.2316 2.17154L17.1228 5.57505H13.5439C13.1706 5.57746 12.8076 5.69745 12.5064 5.91797C12.2053 6.1385 11.9813 6.44833 11.8663 6.80344C11.7513 7.15855 11.7511 7.54087 11.8658 7.89608C11.9805 8.25128 12.2043 8.5613 12.5053 8.78206L15.3965 10.8873L14.2947 14.2979C14.2042 14.5702 14.1825 14.8608 14.2314 15.1436C14.2804 15.4265 14.3986 15.6928 14.5754 15.9189H13.6842C13.405 15.9189 13.1373 16.0298 12.9399 16.2272C12.7425 16.4246 12.6316 16.6924 12.6316 16.9715V24.34H1.05263C0.773456 24.34 0.505715 24.4509 0.308309 24.6483C0.110902 24.8457 0 25.1134 0 25.3926V36.6207C0 36.8998 0.110902 37.1676 0.308309 37.365C0.505715 37.5624 0.773456 37.6733 1.05263 37.6733H38.9474C39.2265 37.6733 39.4943 37.5624 39.6917 37.365C39.8891 37.1676 40 36.8998 40 36.6207V21.1821C40 20.9029 39.8891 20.6351 39.6917 20.4377C39.4943 20.2403 39.2265 20.1294 38.9474 20.1294ZM14.5614 7.68031H17.8947C18.1143 7.68262 18.3291 7.6162 18.509 7.49037C18.689 7.36453 18.8251 7.18558 18.8982 6.97855L19.9298 3.82066L20.9544 6.97855C21.0276 7.18558 21.1637 7.36453 21.3436 7.49037C21.5235 7.6162 21.7383 7.68262 21.9579 7.68031H25.2842L22.5895 9.6382C22.4112 9.76901 22.2787 9.95261 22.2107 10.163C22.1427 10.3733 22.1426 10.5997 22.2105 10.8101L23.2281 13.975L20.5404 12.0242C20.3605 11.8914 20.1428 11.8197 19.9193 11.8197C19.6958 11.8197 19.4781 11.8914 19.2982 12.0242L16.6105 13.975L17.6351 10.8101C17.703 10.5997 17.7029 10.3733 17.6349 10.163C17.5669 9.95261 17.4344 9.76901 17.2561 9.6382L14.5614 7.68031ZM19.9228 14.1715L22.3228 15.9189H17.5158L19.9228 14.1715ZM2.10526 26.4452H12.6316V35.568H2.10526V26.4452ZM14.7368 25.3926V18.0242H25.2632V35.568H14.7368V25.3926ZM37.8947 35.568H27.3684V22.2347H37.8947V35.568Z" fill="#2961AD"/>
</svg>
