<svg width="192" height="70" viewBox="0 0 192 70" fill="none" xmlns="http://www.w3.org/2000/svg">
<rect width="192" height="70" fill="white"/>
<path d="M192 0H0V70H192V0Z" fill="white"/>
<path d="M109.633 33.0972C109.89 33.2725 110.104 33.4914 110.232 33.7104C110.36 33.9295 110.446 34.1924 110.446 34.4114C110.446 34.718 110.403 34.937 110.318 35.1123C110.232 35.2875 110.147 35.4627 110.061 35.6379C109.89 35.5941 109.762 35.5503 109.633 35.5065C109.462 35.5065 109.334 35.4627 109.119 35.4627C108.863 35.4627 108.606 35.5941 108.307 35.7694C108.05 35.9445 107.922 36.2512 107.922 36.6455C107.922 36.9959 108.05 37.3025 108.264 37.5215C108.478 37.7844 108.82 37.872 109.29 37.872C109.676 37.872 110.104 37.7844 110.574 37.6092C111.002 37.4339 111.559 37.1273 112.243 36.7331L113.741 35.8569C113.998 36.0322 114.297 36.2512 114.639 36.6016C114.981 36.9521 115.281 37.3902 115.624 37.9158C115.923 38.4415 116.222 39.0547 116.436 39.7118C116.693 40.3689 116.778 41.1136 116.778 41.9021C116.778 42.9972 116.565 43.9609 116.137 44.7933C115.752 45.6694 115.152 46.3703 114.425 46.9835C113.698 47.553 112.799 48.0348 111.815 48.3414C110.788 48.6481 109.719 48.8234 108.521 48.8234C107.366 48.8234 106.21 48.6481 105.098 48.2976C103.942 47.9472 102.916 47.4215 101.931 46.7206C100.99 46.0198 100.134 45.1875 99.4071 44.1362C98.6797 43.1286 98.0807 41.9021 97.6528 40.5879C97.5244 40.0623 97.3961 39.5804 97.3105 39.0985C97.2677 38.6167 97.2249 38.091 97.2249 37.5654C97.2249 36.8206 97.4389 36.2512 97.8667 35.8569C98.2946 35.4627 98.8508 35.2436 99.4926 35.2436C99.9205 35.2436 100.22 35.2875 100.477 35.3751C100.733 35.4627 100.947 35.5503 101.119 35.6817L101.247 36.9521C101.418 38.4415 101.718 39.7118 102.188 40.7632C102.659 41.8145 103.258 42.6905 103.9 43.3476C104.584 44.0047 105.312 44.4866 106.125 44.7933C106.937 45.0999 107.751 45.2313 108.563 45.2313C109.119 45.2313 109.676 45.1875 110.147 45.0123C110.66 44.8808 111.088 44.6618 111.473 44.3552C111.858 44.0924 112.158 43.6981 112.371 43.3038C112.585 42.8658 112.714 42.3839 112.714 41.8583C112.714 41.5078 112.671 41.1574 112.585 40.8507C112.5 40.5441 112.371 40.2813 112.2 40.0623C111.602 40.4127 111.002 40.6755 110.446 40.8945C109.89 41.1136 109.162 41.2012 108.349 41.2012C107.751 41.2012 107.194 41.1136 106.638 40.9384C106.082 40.7194 105.611 40.4565 105.183 40.0623C104.755 39.7118 104.456 39.23 104.199 38.7043C103.942 38.1786 103.814 37.5215 103.814 36.8206C103.814 35.9884 104.028 35.1999 104.413 34.5428C104.841 33.8857 105.397 33.4038 106.082 33.0972H96.3692C95.9414 33.0972 95.599 32.9658 95.3851 32.703C95.1284 32.4839 95 32.0459 95 31.4765C95 31.1698 95.0428 30.8632 95.0855 30.6003C95.1712 30.3374 95.2567 30.1184 95.3423 29.9433H118.319C118.747 29.9433 119.089 30.0746 119.345 30.2936C119.603 30.5565 119.688 30.9507 119.688 31.5203C119.688 31.8269 119.688 32.1335 119.603 32.3964C119.517 32.6592 119.431 32.922 119.345 33.0972H109.633Z" fill="#0D3AA9"/>
<path d="M117.163 33.0972C116.736 33.0972 116.393 32.9658 116.137 32.703C115.879 32.4839 115.751 32.0459 115.751 31.4765C115.751 31.1698 115.794 30.8632 115.879 30.6003C115.966 30.3374 116.051 30.1184 116.137 29.9433H119.645C120.287 29.9433 120.886 30.0746 121.399 30.2936C121.955 30.5565 122.341 30.9507 122.64 31.4326C122.854 30.9069 123.153 30.5127 123.581 30.2936C124.009 30.0308 124.523 29.9433 125.079 29.9433H126.619C127.004 29.9433 127.347 30.0746 127.603 30.2936C127.86 30.5565 127.988 30.9507 127.988 31.5203C127.988 31.8269 127.945 32.1335 127.903 32.3964C127.817 32.6592 127.731 32.922 127.646 33.0972H125.378C124.951 33.0972 124.608 33.2286 124.309 33.4476C124.052 33.6667 123.923 34.0609 123.923 34.6742V49.8308C123.795 49.8746 123.581 49.9184 123.282 49.9623C122.982 50.0499 122.597 50.0499 122.255 50.0499C121.527 50.0499 120.971 49.9185 120.544 49.6556C120.116 49.4366 119.901 48.9109 119.901 48.0786V34.1047C119.901 33.7981 119.859 33.5791 119.687 33.4038C119.516 33.1848 119.303 33.0972 119.046 33.0972H117.163Z" fill="#0D3AA9"/>
<path d="M163.074 38.5749C163.16 38.6625 163.202 38.8377 163.288 39.1006C163.373 39.4073 163.416 39.7139 163.416 40.0643C163.416 40.7214 163.202 41.2471 162.775 41.5975C162.389 41.9917 161.705 42.2107 160.849 42.2107C160.207 42.2107 159.565 42.0794 158.881 41.8165C158.239 41.5975 157.64 41.2033 157.127 40.7214C156.571 40.1957 156.142 39.5825 155.8 38.794C155.458 38.0055 155.287 37.1294 155.287 36.078C155.287 35.0267 155.458 34.1068 155.843 33.2745C156.185 32.486 156.656 31.7851 157.255 31.2156C157.854 30.69 158.539 30.2519 159.309 29.9891C160.078 29.6825 160.849 29.551 161.662 29.551C162.903 29.551 163.887 29.8138 164.743 30.2957C165.598 30.7775 166.24 31.3033 166.668 31.9604C166.839 31.3471 167.139 30.8652 167.566 30.5147C167.951 30.1205 168.55 29.9453 169.278 29.9453H172.615C173.043 29.9453 173.343 30.0767 173.599 30.2957C173.856 30.5585 173.984 30.9528 173.984 31.5223C173.984 31.8289 173.942 32.1355 173.899 32.3984C173.813 32.6612 173.728 32.924 173.642 33.0993H169.92V49.4825C169.791 49.5263 169.577 49.5701 169.278 49.6139C168.979 49.6576 168.636 49.7015 168.251 49.7015C167.524 49.7015 166.968 49.5701 166.539 49.3073C166.111 49.0444 165.94 48.5187 165.94 47.7303V35.859C165.641 35.1581 165.171 34.5448 164.485 34.0192C163.844 33.4497 163.117 33.1869 162.261 33.1869C161.448 33.1869 160.806 33.4497 160.292 33.9754C159.779 34.4573 159.522 35.1581 159.522 36.0342C159.522 36.8227 159.779 37.4798 160.292 37.9616C160.806 38.4435 161.491 38.7064 162.261 38.7064C162.474 38.7064 162.646 38.6625 162.732 38.6625C162.817 38.6187 162.946 38.6187 163.074 38.5749Z" fill="#0D3AA9"/>
<path d="M178.306 33.0978V49.8315C178.22 49.8753 178.006 49.919 177.664 49.9628C177.365 50.0066 177.023 50.0505 176.638 50.0505C175.953 50.0505 175.397 49.919 174.969 49.6562C174.541 49.3934 174.326 48.8677 174.326 48.0792V33.0978H171.546C171.118 33.0978 170.776 32.9664 170.562 32.7035C170.304 32.4845 170.176 32.0465 170.176 31.477C170.176 31.1704 170.219 30.8637 170.304 30.6009C170.347 30.3381 170.476 30.119 170.562 29.9438H173.856C173.343 28.7611 172.787 27.7097 172.059 26.8775C171.375 26.0014 170.562 25.3005 169.706 24.7748C168.85 24.2053 167.909 23.8111 166.925 23.5483C165.94 23.3292 164.914 23.1978 163.887 23.1978C162.39 23.1978 161.277 23.373 160.593 23.7235C159.865 24.0739 159.522 24.4244 159.522 24.7748C159.522 25.169 159.907 25.3881 160.635 25.3881H166.54C167.01 25.3881 167.353 25.5195 167.609 25.7823C167.866 26.0889 167.994 26.527 167.994 27.1403C167.994 27.3593 167.951 27.6221 167.909 27.8412C167.866 28.0602 167.78 28.2354 167.738 28.323H159.522C158.239 28.323 157.255 28.0602 156.528 27.4907C155.843 26.9651 155.458 26.1327 155.458 25.0815C155.458 24.3805 155.672 23.7235 156.099 23.154C156.528 22.5407 157.127 22.015 157.854 21.5332C158.624 21.0514 159.522 20.7009 160.593 20.4381C161.619 20.1315 162.775 20 164.058 20C165.769 20 167.395 20.2628 168.85 20.7009C170.304 21.1827 171.631 21.8398 172.787 22.7159C173.984 23.592 175.012 24.6434 175.867 25.8699C176.723 27.0526 177.408 28.4545 177.878 29.9438H181.087C181.472 29.9438 181.814 30.0752 182.071 30.2943C182.328 30.5571 182.456 30.9514 182.456 31.5208C182.456 31.8275 182.413 32.1341 182.328 32.3969C182.285 32.6597 182.199 32.9225 182.071 33.0978H178.306Z" fill="#0D3AA9"/>
<path d="M132.31 33.0962V49.8298C132.181 49.8736 131.967 49.9175 131.668 49.9613C131.369 50.005 131.026 50.0488 130.641 50.0488C129.914 50.0488 129.358 49.9174 128.93 49.6546C128.545 49.3917 128.331 48.8661 128.331 48.0776V33.0962H126.406C125.977 33.0962 125.635 32.9647 125.378 32.7019C125.122 32.4829 124.993 32.0448 124.993 31.4754C124.993 31.1687 125.036 30.8621 125.122 30.5993C125.164 30.3365 125.25 30.1174 125.378 29.9422H128.116C127.903 29.6794 127.731 29.2851 127.518 28.8033C127.347 28.3652 127.218 27.7957 127.218 27.2263C127.218 26.2625 127.475 25.3864 127.903 24.6417C128.331 23.8533 128.93 23.24 129.7 22.7144C130.47 22.1886 131.411 21.7945 132.481 21.5315C133.551 21.2687 134.749 21.1374 135.989 21.1374C137.102 21.1374 138.129 21.2249 139.113 21.4002C140.097 21.5754 140.953 21.7945 141.766 22.0573C142.536 22.3201 143.221 22.6267 143.777 22.8895C144.333 23.1524 144.761 23.4152 145.061 23.6343C145.745 24.0723 146.173 24.4665 146.429 24.817C146.644 25.1236 146.729 25.4741 146.729 25.8683C146.729 26.3502 146.601 26.7445 146.301 27.0948C146.044 27.4015 145.702 27.6644 145.274 27.8395C144.676 27.4015 144.033 27.0073 143.349 26.613C142.665 26.2187 141.937 25.8683 141.167 25.5616C140.396 25.255 139.584 25.036 138.728 24.8608C137.872 24.6417 136.974 24.5542 136.075 24.5542C135.391 24.5542 134.749 24.6417 134.192 24.7732C133.593 24.9484 133.123 25.1236 132.695 25.3865C132.267 25.6493 131.925 25.9997 131.711 26.394C131.454 26.7882 131.369 27.2263 131.369 27.7519C131.369 28.2776 131.454 28.7595 131.582 29.1099C131.753 29.4604 131.967 29.767 132.181 29.9422H135.006C135.433 29.9422 135.775 30.0736 136.032 30.2926C136.246 30.5554 136.375 30.9497 136.375 31.5192C136.375 31.8258 136.331 32.1324 136.289 32.3953C136.203 32.6581 136.118 32.921 136.032 33.0962H132.31Z" fill="#0D3AA9"/>
<path d="M151.821 33.0972V49.2614C151.564 49.4804 151.265 49.6556 150.923 49.7871C150.537 49.9185 150.066 49.9623 149.553 49.9623C149.425 49.9623 149.339 49.9623 149.211 49.9623C149.125 49.9623 149.04 49.9184 148.954 49.8746C147.927 49.2175 146.901 48.5604 145.959 48.0348C144.975 47.4654 144.033 46.9397 143.135 46.4578C142.193 45.976 141.252 45.5379 140.311 45.1437C139.37 44.7056 138.386 44.3114 137.402 43.9171C137.102 43.4791 136.931 42.9972 136.803 42.3839C136.674 41.8145 136.589 41.245 136.589 40.6755C136.589 40.5004 136.589 40.3689 136.632 40.2375C136.632 40.1499 136.632 40.0185 136.674 39.9308C136.974 39.7556 137.316 39.5804 137.701 39.3614C138.129 39.1862 138.514 38.9671 138.985 38.7919C139.413 38.5729 139.84 38.3976 140.268 38.2225C140.654 38.0472 141.039 37.872 141.338 37.7405L136.803 35.9007C136.461 35.7255 136.203 35.5941 136.032 35.3751C135.861 35.1999 135.775 34.8933 135.775 34.499C135.775 34.2362 135.818 34.0171 135.904 33.7981C135.989 33.5791 136.075 33.3163 136.203 33.0972H135.006C134.578 33.0972 134.236 32.9658 133.978 32.703C133.722 32.4839 133.636 32.0459 133.636 31.4765C133.636 31.1698 133.636 30.8632 133.722 30.6003C133.807 30.3374 133.893 30.1184 134.021 29.9433H154.473C154.902 29.9433 155.244 30.0746 155.5 30.2936C155.757 30.5565 155.885 30.9507 155.885 31.5203C155.885 31.8269 155.843 32.1335 155.757 32.3964C155.672 32.6592 155.586 32.922 155.5 33.0972H151.821ZM147.927 45.1437C147.927 44.8808 147.927 44.5742 147.884 44.2237C147.884 43.8734 147.841 43.5229 147.841 43.1725C147.841 42.822 147.841 42.5154 147.799 42.1649C147.799 41.8583 147.799 41.5955 147.799 41.3326V40.5441L145.061 39.2737C144.761 39.449 144.418 39.668 144.076 39.8433C143.691 40.0184 143.349 40.2374 142.964 40.4127C142.622 40.6317 142.279 40.807 141.937 40.9822C141.595 41.2012 141.295 41.3326 141.039 41.5078C141.552 41.7269 142.065 41.9897 142.665 42.2525C143.221 42.5154 143.819 42.822 144.418 43.1286C145.018 43.4791 145.617 43.7857 146.215 44.1362C146.815 44.4866 147.414 44.837 147.927 45.1437ZM139.327 33.0972C139.669 33.2725 140.182 33.4915 140.868 33.7981C141.595 34.1047 142.322 34.4552 143.135 34.8495C143.948 35.2436 144.761 35.6379 145.617 36.0322C146.429 36.4264 147.157 36.7769 147.799 37.0397V33.0972H139.327Z" fill="#0D3AA9"/>
</svg>
