<svg width="192" height="70" viewBox="0 0 192 70" fill="none" xmlns="http://www.w3.org/2000/svg">
<rect width="192" height="70" fill="white"/>
<path d="M192 0H0V70H192V0Z" fill="white"/>
<path d="M108.809 32.905C109.112 33.0776 109.285 33.2502 109.415 33.5092C109.588 33.7249 109.632 33.9839 109.632 34.1996C109.632 34.5017 109.588 34.7175 109.502 34.8901C109.415 35.0627 109.329 35.2353 109.242 35.408C109.112 35.3648 108.939 35.3216 108.809 35.2785C108.679 35.2785 108.506 35.2353 108.333 35.2353C108.03 35.2353 107.77 35.3216 107.51 35.4943C107.25 35.71 107.12 36.0121 107.12 36.4005C107.12 36.7457 107.207 37.0478 107.423 37.2636C107.683 37.4794 108.03 37.6088 108.463 37.6088C108.852 37.6088 109.285 37.5225 109.762 37.3499C110.238 37.1773 110.801 36.8752 111.45 36.4868L112.966 35.6237C113.226 35.7532 113.529 36.0121 113.875 36.3574C114.222 36.7026 114.568 37.1341 114.871 37.652C115.218 38.1698 115.477 38.774 115.694 39.4213C115.954 40.0686 116.084 40.8023 116.084 41.579C116.084 42.6147 115.867 43.6073 115.434 44.4272C115.001 45.2903 114.395 45.9808 113.659 46.585C112.923 47.146 112.057 47.6207 111.017 47.9227C109.978 48.2248 108.896 48.3974 107.726 48.3974C106.514 48.3974 105.345 48.2248 104.219 47.8796C103.05 47.5343 102.011 47.0165 101.058 46.326C100.062 45.6356 99.1961 44.7725 98.46 43.7799C97.7239 42.7874 97.1177 41.579 96.728 40.2413C96.5548 39.7666 96.4249 39.2919 96.3383 38.8172C96.295 38.3425 96.2517 37.8246 96.2517 37.2636C96.2517 36.5731 96.4682 36.0121 96.9012 35.6237C97.3342 35.2353 97.8971 35.0196 98.5899 35.0196C98.9796 35.0196 99.326 35.0627 99.5425 35.149C99.8023 35.2353 100.019 35.3216 100.235 35.408L100.322 36.7026C100.495 38.1698 100.798 39.4213 101.318 40.457C101.794 41.4927 102.357 42.3558 103.007 43.0031C103.699 43.6505 104.436 44.1252 105.258 44.4272C106.081 44.7293 106.904 44.8588 107.726 44.8588C108.333 44.8588 108.852 44.8156 109.372 44.643C109.848 44.5135 110.324 44.2546 110.671 43.9957C111.061 43.6936 111.364 43.3484 111.58 42.96C111.797 42.5284 111.927 42.0537 111.927 41.5359C111.927 41.1906 111.883 40.8454 111.797 40.5433C111.71 40.2413 111.58 39.9823 111.45 39.7234C110.844 40.0686 110.238 40.3707 109.632 40.5865C109.069 40.8023 108.376 40.8886 107.51 40.8886C106.904 40.8886 106.341 40.8023 105.778 40.5865C105.258 40.4139 104.739 40.1549 104.349 39.7666C103.916 39.4213 103.569 38.9466 103.31 38.4288C103.05 37.8678 102.92 37.2636 102.92 36.5731C102.92 35.71 103.137 34.9764 103.57 34.3291C103.959 33.6818 104.522 33.2071 105.215 32.905H95.3856C94.9526 32.905 94.6495 32.7755 94.3897 32.5166C94.1299 32.2577 94 31.8693 94 31.3083C94 31.0062 94.0433 30.7041 94.0866 30.4452C94.1732 30.1863 94.2598 29.9705 94.3464 29.7547H117.599C118.032 29.7547 118.378 29.8842 118.638 30.1431C118.898 30.402 119.028 30.7904 119.028 31.3514C119.028 31.6535 118.985 31.9556 118.898 32.2145C118.855 32.4735 118.768 32.6892 118.638 32.905H108.809Z" fill="#0D3AA9"/>
<path d="M116.43 32.905C115.997 32.905 115.651 32.7755 115.391 32.5166C115.174 32.2577 115.044 31.8693 115.044 31.3083C115.044 31.0062 115.088 30.7041 115.131 30.4452C115.218 30.1863 115.304 29.9705 115.434 29.7547H118.942C119.591 29.7547 120.197 29.8842 120.76 30.1431C121.28 30.402 121.713 30.7473 121.973 31.2651C122.189 30.7473 122.536 30.3589 122.969 30.1431C123.402 29.8842 123.878 29.7547 124.441 29.7547H126C126.433 29.7547 126.779 29.8842 127.039 30.1431C127.299 30.402 127.385 30.7904 127.385 31.3514C127.385 31.6535 127.385 31.9556 127.299 32.2145C127.212 32.4735 127.125 32.6892 127.039 32.905H124.787C124.354 32.905 123.964 32.9913 123.705 33.2071C123.445 33.4229 123.272 33.8544 123.272 34.4586V49.39C123.185 49.4331 122.969 49.4763 122.622 49.5195C122.319 49.6058 121.973 49.6058 121.583 49.6058C120.89 49.6058 120.284 49.4763 119.894 49.2174C119.461 48.9584 119.245 48.4406 119.245 47.6638V33.8976C119.245 33.5955 119.158 33.3797 118.985 33.1639C118.812 32.9913 118.595 32.905 118.335 32.905H116.43Z" fill="#0D3AA9"/>
<path d="M131.802 32.9017V49.3867C131.672 49.3867 131.456 49.473 131.152 49.5161C130.806 49.5593 130.46 49.5593 130.07 49.5593C129.377 49.5593 128.814 49.473 128.381 49.2141C127.948 48.9551 127.732 48.4373 127.732 47.6174V32.9017H125.783C125.35 32.9017 125.004 32.7722 124.787 32.5133C124.527 32.2544 124.397 31.866 124.397 31.305C124.397 31.0029 124.441 30.7008 124.484 30.4419C124.571 30.183 124.657 29.9672 124.744 29.7514H127.558C127.342 29.4925 127.125 29.1473 126.952 28.6726C126.736 28.1979 126.649 27.68 126.649 27.0759C126.649 26.1265 126.866 25.3065 127.299 24.5297C127.775 23.7961 128.381 23.1488 129.161 22.631C129.94 22.1131 130.893 21.7247 131.975 21.4658C133.058 21.2069 134.227 21.0774 135.526 21.0774C136.652 21.0774 137.691 21.1637 138.687 21.3363C139.639 21.5521 140.549 21.7679 141.328 22.0268C142.108 22.2857 142.8 22.5446 143.363 22.8467C143.97 23.1056 144.403 23.3214 144.706 23.5372C145.398 24.0119 145.831 24.4003 146.048 24.7455C146.264 25.0476 146.394 25.3928 146.394 25.7812C146.394 26.2128 146.264 26.6443 145.961 26.9464C145.702 27.2916 145.312 27.5506 144.922 27.7232C144.273 27.2916 143.623 26.8601 142.974 26.4717C142.281 26.1265 141.545 25.7812 140.722 25.4791C139.943 25.1771 139.12 24.9613 138.254 24.7455C137.388 24.5729 136.522 24.4866 135.569 24.4866C134.876 24.4866 134.27 24.5729 133.664 24.7024C133.101 24.8318 132.581 25.0476 132.148 25.3065C131.715 25.5655 131.412 25.9107 131.152 26.2559C130.936 26.6443 130.806 27.119 130.806 27.5937C130.806 28.1547 130.893 28.6294 131.066 28.9746C131.239 29.3199 131.412 29.5788 131.629 29.7514H134.53C134.92 29.7514 135.266 29.8809 135.526 30.1398C135.786 30.3987 135.916 30.7871 135.916 31.3481C135.916 31.6502 135.872 31.9523 135.786 32.2112C135.742 32.4702 135.656 32.6859 135.526 32.9017H131.802Z" fill="#0D3AA9"/>
<path d="M151.504 32.905V48.829C151.288 49.0448 150.984 49.1742 150.638 49.3037C150.248 49.4763 149.772 49.5195 149.252 49.5195C149.122 49.5195 149.036 49.5195 148.906 49.5195C148.819 49.4763 148.733 49.4763 148.646 49.4331C147.564 48.7427 146.568 48.1385 145.572 47.6207C144.619 47.0596 143.667 46.5418 142.714 46.0671C141.761 45.5924 140.852 45.1609 139.899 44.7725C138.947 44.3409 137.951 43.9525 136.912 43.521C136.652 43.1326 136.435 42.6579 136.305 42.0537C136.175 41.4927 136.132 40.9317 136.132 40.3276C136.132 40.1981 136.132 40.0686 136.132 39.9392C136.132 39.8097 136.175 39.7234 136.175 39.6371C136.479 39.4645 136.825 39.2919 137.258 39.0761C137.648 38.9035 138.081 38.6877 138.514 38.4719C138.99 38.2993 139.423 38.0835 139.813 37.9109C140.246 37.7383 140.592 37.6088 140.895 37.4794L136.349 35.6237C136.002 35.4943 135.742 35.3216 135.569 35.149C135.396 34.9764 135.309 34.6743 135.309 34.2859C135.309 34.027 135.353 33.8112 135.439 33.5523C135.483 33.3365 135.613 33.1208 135.742 32.905H134.487C134.097 32.905 133.751 32.7755 133.491 32.5166C133.231 32.2577 133.101 31.8693 133.101 31.3083C133.101 31.0062 133.144 30.7041 133.231 30.4452C133.318 30.1863 133.404 29.9705 133.491 29.7547H154.232C154.665 29.7547 155.011 29.8842 155.271 30.1431C155.488 30.402 155.618 30.7904 155.618 31.3514C155.618 31.6535 155.618 31.9556 155.531 32.2145C155.444 32.4735 155.358 32.6892 155.271 32.905H151.504ZM147.607 44.7725C147.607 44.5135 147.564 44.2115 147.564 43.8662C147.52 43.521 147.52 43.1758 147.52 42.8305C147.52 42.4853 147.477 42.1832 147.477 41.838C147.477 41.5359 147.477 41.277 147.477 41.018V40.2413L144.706 38.9898C144.403 39.1624 144.056 39.335 143.667 39.5508C143.32 39.7234 142.974 39.9392 142.584 40.1118C142.238 40.3276 141.891 40.5002 141.545 40.6728C141.198 40.8454 140.895 41.018 140.635 41.1475C141.112 41.4064 141.675 41.6222 142.238 41.9243C142.844 42.1832 143.45 42.4853 144.056 42.7874C144.662 43.0894 145.269 43.4347 145.875 43.7799C146.481 44.1251 147.087 44.4704 147.607 44.7725ZM138.86 32.905C139.207 33.0345 139.726 33.2934 140.462 33.5955C141.155 33.8976 141.934 34.2428 142.757 34.6312C143.58 35.0196 144.403 35.408 145.269 35.7963C146.091 36.1847 146.828 36.4868 147.477 36.7889V32.905H138.86Z" fill="#0D3AA9"/>
<path d="M169.951 32.905V49.0448C169.821 49.0879 169.604 49.1311 169.301 49.1742C168.998 49.2174 168.652 49.2605 168.262 49.2605C167.526 49.2605 166.963 49.1311 166.53 48.8721C166.14 48.6132 165.924 48.0954 165.924 47.3186V42.7442C165.361 41.7948 164.711 40.9749 163.975 40.4139C163.196 39.8097 162.416 39.5076 161.593 39.5076C160.944 39.5076 160.381 39.7234 159.991 40.0686C159.558 40.457 159.342 40.9317 159.342 41.4496C159.342 41.7948 159.385 42.0969 159.472 42.3127C159.558 42.5284 159.645 42.7874 159.775 43.0894C159.558 43.3484 159.299 43.6073 158.995 43.8231C158.649 43.9957 158.259 44.1252 157.74 44.1252C157.047 44.1252 156.397 43.8662 155.878 43.3052C155.315 42.7874 155.055 41.9674 155.055 40.8886C155.055 40.1118 155.228 39.3782 155.531 38.774C155.834 38.1698 156.224 37.652 156.744 37.2204C157.307 36.7889 157.913 36.4868 158.606 36.271C159.299 36.0553 160.078 35.9258 160.857 35.9258C161.464 35.9258 162.027 36.0121 162.503 36.1416C163.022 36.2279 163.499 36.4005 163.932 36.6163C164.365 36.8321 164.711 37.0478 165.058 37.2636C165.404 37.4794 165.664 37.7383 165.924 37.9972V32.905H154.232C153.799 32.905 153.453 32.7755 153.193 32.5166C152.977 32.2577 152.847 31.8693 152.847 31.3083C152.847 31.0062 152.89 30.7041 152.933 30.4452C153.02 30.1863 153.106 29.9705 153.236 29.7547H172.679C173.112 29.7547 173.458 29.8842 173.674 30.1431C173.934 30.402 174.064 30.7904 174.064 31.3514C174.064 31.6535 174.021 31.9556 173.978 32.2145C173.891 32.4735 173.804 32.6892 173.718 32.905H169.951Z" fill="#0D3AA9"/>
<path d="M178.48 32.9032V49.3882C178.35 49.3882 178.134 49.4745 177.831 49.5176C177.484 49.5608 177.138 49.5608 176.748 49.5608C176.055 49.5608 175.492 49.4745 175.059 49.2155C174.626 48.9566 174.41 48.4388 174.41 47.6188V32.9032H171.595C171.162 32.9032 170.859 32.7737 170.599 32.5148C170.34 32.2559 170.21 31.8675 170.21 31.3065C170.21 31.0044 170.253 30.7023 170.34 30.4434C170.426 30.1844 170.513 29.9687 170.599 29.7529H173.934C173.414 28.5877 172.851 27.5952 172.115 26.7321C171.422 25.9122 170.599 25.2217 169.733 24.7038C168.867 24.1428 167.915 23.7544 166.919 23.4955C165.923 23.2366 164.884 23.1071 163.845 23.1071C162.329 23.1071 161.203 23.2797 160.51 23.625C159.774 23.9702 159.428 24.3154 159.428 24.6607C159.428 25.0922 159.818 25.308 160.554 25.308H166.529C167.005 25.308 167.352 25.4375 167.612 25.6964C167.872 25.9553 168.001 26.3869 168.001 26.991C168.001 27.2499 167.958 27.4657 167.915 27.7246C167.872 27.9404 167.785 28.0699 167.742 28.1993H159.428C158.129 28.1993 157.133 27.9404 156.397 27.3794C155.704 26.8184 155.314 26.0416 155.314 24.9628C155.314 24.3154 155.531 23.6681 155.964 23.064C156.397 22.4598 157.003 21.9419 157.739 21.5104C158.518 21.0357 159.428 20.6905 160.51 20.3884C161.55 20.1295 162.719 20 164.018 20C165.75 20 167.395 20.2158 168.867 20.6905C170.34 21.1652 171.682 21.8125 172.851 22.6756C174.064 23.4955 175.103 24.5312 175.969 25.7395C176.835 26.9479 177.528 28.2856 178.004 29.7529H181.252C181.685 29.7529 181.988 29.8824 182.247 30.1413C182.507 30.4002 182.637 30.7886 182.637 31.3496C182.637 31.6517 182.594 31.9538 182.551 32.2127C182.464 32.4716 182.377 32.6874 182.291 32.9032H178.48Z" fill="#0D3AA9"/>
</svg>
