<svg width="192" height="70" viewBox="0 0 192 70" fill="none" xmlns="http://www.w3.org/2000/svg">
<path d="M192 0H0V70H192V0Z" fill="white"/>
<path d="M153.681 24.5439C154.972 24.5439 155.939 25.3419 155.939 27.2645V41.8471C155.939 43.806 154.972 44.604 153.681 44.604C152.319 44.604 151.423 43.806 151.423 41.8471V27.5184C151.423 25.2331 152.319 24.5439 153.681 24.5439Z" fill="#0D3AA9"/>
<path d="M109.774 35.3176V31.9077C109.774 29.7312 108.735 28.7518 106.943 28.7518H106.298C104.541 28.7518 103.466 29.7312 103.466 31.9077V35.3176H109.774ZM103.466 39.1265V41.8471C103.466 43.806 102.498 44.604 101.208 44.604C99.846 44.604 98.95 43.806 98.95 41.8471V31.9077C98.95 27.3008 101.531 24.5439 105.688 24.5439H107.516C111.746 24.5439 114.29 27.3008 114.29 31.9077V41.8471C114.29 43.806 113.323 44.604 112.032 44.604C110.706 44.604 109.774 43.806 109.774 41.8471V39.1265H103.466Z" fill="#0D3AA9"/>
<path d="M180.742 24.5439C182.032 24.5439 183 25.3419 183 27.2645V41.8471C183 43.806 182.032 44.604 180.742 44.604C179.38 44.604 178.484 43.806 178.484 41.8471V27.5184C178.484 25.2331 179.38 24.5439 180.742 24.5439Z" fill="#0D3AA9"/>
<path d="M163.573 33.2121L163.717 41.8456C163.717 43.8045 162.749 44.6025 161.459 44.6025C160.097 44.6025 159.201 43.8045 159.201 41.8456V26.61C159.201 25.2316 160.025 24.3972 161.423 24.3972C162.355 24.3972 163.215 24.9051 163.932 25.9208L170.814 36.1141L170.67 27.263C170.67 25.3404 171.638 24.5423 172.928 24.5423C174.219 24.5423 175.186 25.3404 175.186 27.263V42.5348C175.186 43.9133 174.362 44.7476 172.964 44.7476C171.996 44.7476 171.136 44.2398 170.419 43.1878L163.573 33.2121Z" fill="#0D3AA9"/>
<path d="M136.943 36.5509V41.8471C136.943 43.806 135.975 44.604 134.685 44.604C133.323 44.604 132.427 43.806 132.427 41.8471V27.2645C132.427 25.3419 133.323 24.5439 134.685 24.5439C135.975 24.5439 136.943 25.3419 136.943 27.2645V32.2705H143.573V27.2645C143.573 25.3419 144.541 24.5439 145.832 24.5439C147.194 24.5439 148.09 25.3419 148.09 27.2645V41.8471C148.09 43.806 147.194 44.604 145.832 44.604C144.541 44.604 143.573 43.806 143.573 41.8471V36.5509H136.943Z" fill="#0D3AA9"/>
<path d="M67.5161 40.6863H70.3118C71.7814 40.6863 72.6057 39.8883 72.6057 38.3647C72.6057 36.8774 71.5663 36.0431 69.7025 36.0431H67.5161V40.6863ZM67.5161 32.343H69.129C70.491 32.343 71.4946 31.545 71.4946 30.2753C71.4946 29.0057 70.7778 28.389 69.3441 28.389H67.5161V32.343ZM74.0394 33.8666C76.0108 34.5921 77.1935 36.4421 77.1935 38.4372C77.1935 42.2461 74.7921 44.604 70.0251 44.604H65.1864C63.5735 44.604 63 44.1325 63 42.7177V26.4302C63 25.1968 63.5735 24.5439 65.1864 24.5439H69.2724C73.8961 24.5439 75.7599 26.6478 75.7599 29.8038C75.7599 31.8352 74.8996 33.2136 74.0394 33.8666Z" fill="#0D3AA9"/>
<path d="M125.222 38.8365C125.222 38.111 125.007 37.5669 124.577 37.2767C124.147 36.9139 123.286 36.5149 122.068 36.0433C118.627 34.81 116.835 32.9962 116.835 30.0579C116.835 28.2079 117.48 26.7206 118.77 25.6686C120.061 24.5441 121.674 24 123.645 24C126.763 24 128.77 25.2333 128.77 26.9745C128.77 28.353 128.053 29.1148 126.763 29.1148C126.405 29.1148 125.975 28.9697 125.509 28.6795C125.007 28.353 124.433 28.2079 123.752 28.2079C122.39 28.2079 121.53 28.8608 121.53 30.0579C121.53 30.9648 122.426 31.7266 124.218 32.4158C126.297 33.1776 127.767 34.0119 128.627 34.8825C129.487 35.7531 129.917 37.0228 129.917 38.6914C129.917 40.6866 129.236 42.2464 127.874 43.4435C126.512 44.6043 124.792 45.1847 122.641 45.1847C120.957 45.1847 119.559 44.8945 118.412 44.2052C117.301 43.5523 116.727 42.7905 116.727 41.9199C116.727 40.6866 117.623 39.7434 118.985 39.7434C119.344 39.7434 119.846 39.9248 120.562 40.2875C121.279 40.6866 121.996 40.8679 122.713 40.8679C124.362 40.8679 125.222 39.9973 125.222 38.8365Z" fill="#0D3AA9"/>
<path d="M84.4693 36.5509V41.8471C84.4693 43.806 83.5015 44.604 82.2112 44.604C80.8492 44.604 79.9531 43.806 79.9531 41.8471V27.2645C79.9531 25.3419 80.8492 24.5439 82.2112 24.5439C83.5015 24.5439 84.4693 25.3419 84.4693 27.2645V32.2705H91.1001V27.2645C91.1001 25.3419 92.0678 24.5439 93.3582 24.5439C94.7202 24.5439 95.6162 25.3419 95.6162 27.2645V41.8471C95.6162 43.806 94.7202 44.604 93.3582 44.604C92.0678 44.604 91.1001 43.806 91.1001 41.8471V36.5509H84.4693Z" fill="#0D3AA9"/>
</svg>
