<svg width="192" height="70" viewBox="0 0 192 70" fill="none" xmlns="http://www.w3.org/2000/svg">
<rect width="192" height="70" fill="white"/>
<path d="M192 0H0V70H192V0Z" fill="white"/>
<path d="M122.98 49.9629C122.696 50.0597 122.365 50.108 121.939 50.1564C121.514 50.2048 121.135 50.2532 120.71 50.2532C119.858 50.2532 119.196 50.0597 118.723 49.7694C118.298 49.4307 118.061 48.8986 118.061 48.0761V29.1597C118.061 25.9667 119.102 23.4509 121.135 21.7093C123.122 19.9192 126.149 19 130.122 19C131.399 19 132.676 19.1451 133.811 19.4354C134.946 19.7257 135.987 20.0644 136.933 20.4514C137.879 20.8384 138.683 21.2738 139.392 21.7093C140.054 22.1447 140.622 22.5317 141.047 22.9187C141.568 23.3058 141.946 23.6928 142.23 24.0799C142.514 24.4669 142.656 24.9023 142.656 25.3861C142.656 25.8215 142.466 26.3053 142.088 26.7407C141.71 27.1761 141.237 27.4664 140.622 27.6599C140.007 27.1761 139.345 26.644 138.541 26.1118C137.784 25.5796 136.98 25.0958 136.081 24.612C135.183 24.1766 134.237 23.7896 133.291 23.4993C132.297 23.209 131.304 23.0639 130.216 23.0639C127.993 23.0639 126.196 23.6928 124.919 24.9023C123.595 26.1118 122.98 27.9502 122.98 30.3692V49.9629Z" fill="#0D3AA9"/>
<path d="M128.229 34.6748C128.229 34.191 128.134 33.7555 127.945 33.4169C127.803 33.0782 127.425 32.9331 126.81 32.9331H126.101C126.006 32.7396 125.959 32.4493 125.864 32.2074C125.817 31.9171 125.817 31.6268 125.817 31.3849C125.817 30.5141 126.053 29.8368 126.621 29.4498C127.141 29.0627 127.851 28.8208 128.749 28.8208H128.986C129.506 28.8208 129.932 28.8208 130.31 28.9176C130.641 29.0143 131.02 29.1111 131.398 29.3046C131.729 29.4498 132.107 29.6433 132.438 29.9336C132.817 30.1755 133.195 30.5141 133.621 30.8528L139.486 35.981V29.1595C139.77 29.0627 140.101 28.966 140.479 28.9176C140.905 28.8208 141.33 28.8208 141.756 28.8208C142.607 28.8208 143.27 28.966 143.743 29.3046C144.168 29.5949 144.405 30.1755 144.405 30.9495V49.9143C144.168 49.9627 143.884 50.0594 143.553 50.1078C143.175 50.2046 142.749 50.253 142.276 50.253C141.378 50.253 140.716 50.0594 140.243 49.7692C139.722 49.4789 139.486 48.8983 139.486 48.0275V43.7701C139.013 44.0604 138.398 44.2539 137.736 44.4474C137.026 44.6409 136.27 44.7377 135.418 44.7377C134.425 44.7377 133.526 44.6409 132.628 44.399C131.776 44.1088 131.02 43.7217 130.357 43.1896C129.695 42.609 129.175 41.8833 128.797 40.9641C128.418 40.0449 128.229 38.8838 128.229 37.5291V34.6748ZM133.101 37.3356C133.101 39.5611 134.188 40.6738 136.364 40.6738C137.026 40.6738 137.641 40.5771 138.209 40.3352C138.729 40.1416 139.155 39.8514 139.438 39.5611L135.371 35.981C134.993 35.6907 134.614 35.3037 134.236 34.9167C133.857 34.5296 133.432 34.0942 132.959 33.6104C133.006 33.8523 133.053 34.1426 133.053 34.4329C133.101 34.7231 133.101 35.0134 133.101 35.3037V37.3356Z" fill="#0D3AA9"/>
<path d="M98.8108 37.7216V29.1584C99.0945 29.0616 99.4256 28.9649 99.8513 28.9165C100.23 28.8197 100.655 28.8197 101.081 28.8197C101.932 28.8197 102.594 28.9649 103.067 29.3035C103.54 29.6422 103.73 30.2227 103.73 30.9484V49.9132C103.493 49.9616 103.209 50.0583 102.878 50.1067C102.5 50.2035 102.122 50.2519 101.601 50.2519C100.75 50.2519 100.04 50.0583 99.5675 49.7681C99.0945 49.4778 98.8108 48.8972 98.8108 48.0264V41.7371H94.1283C93.9864 42.753 93.5608 43.5755 92.8513 44.1077C92.1892 44.6882 91.2905 44.9301 90.2027 44.9301C88.9729 44.9301 88.0743 44.6398 87.4594 44.0109C86.8446 43.4303 86.5135 42.6563 86.5135 41.7854C86.5135 41.35 86.5608 40.963 86.6554 40.6243C86.75 40.2857 86.8446 39.9954 86.9865 39.7051H87.9324C88.9256 39.7051 89.4459 39.1246 89.4459 38.0118V35.4961C89.4459 34.5769 89.2094 33.8512 88.7838 33.3674C88.3581 32.8352 87.7432 32.5933 86.9865 32.5933C86.4662 32.5933 85.9932 32.6901 85.5203 32.9804C85.0473 33.2223 84.6216 33.6093 84.2905 34.1415C83.9594 34.6736 83.6284 35.351 83.4392 36.1734C83.2027 36.9959 83.1081 38.0118 83.1081 39.1246C83.1081 40.2857 83.2027 41.3016 83.4392 42.2209C83.6757 43.0917 84.0067 43.9141 84.3851 44.5914C84.7635 45.3171 85.1892 45.8977 85.7094 46.4299C86.2297 46.962 86.75 47.3975 87.2702 47.7845C87.2229 48.5586 86.9865 49.1875 86.5608 49.6713C86.0878 50.1551 85.473 50.397 84.6689 50.397C83.8648 50.397 83.1081 50.1067 82.304 49.5262C81.5 48.994 80.7905 48.1715 80.1757 47.1556C79.5135 46.1396 78.9932 44.9785 78.6149 43.5755C78.2365 42.2209 78 40.7211 78 39.1246C78 37.3829 78.2365 35.8831 78.6622 34.5285C79.0878 33.2223 79.7027 32.1095 80.5068 31.1903C81.2635 30.3195 82.2094 29.6422 83.3446 29.1584C84.4324 28.723 85.6621 28.4811 86.9865 28.4811C89.3513 28.4811 91.1486 29.11 92.4256 30.3679C93.7027 31.6257 94.3175 33.319 94.3175 35.351V37.7216H98.8108Z" fill="#0D3AA9"/>
<path d="M113.331 49.9627C113.094 50.0594 112.763 50.1078 112.337 50.1562C111.912 50.2046 111.486 50.253 111.108 50.253C110.256 50.253 109.594 50.0594 109.121 49.7692C108.695 49.4305 108.459 48.8983 108.459 48.0759V29.0627C108.695 28.966 109.027 28.9176 109.452 28.8692C109.831 28.8208 110.256 28.8208 110.682 28.8208C111.533 28.8208 112.195 28.966 112.668 29.3046C113.141 29.5949 113.331 30.1755 113.331 30.9495V49.9627Z" fill="#0D3AA9"/>
<path d="M173.445 49.9132C173.162 49.9616 172.878 50.0583 172.547 50.1067C172.216 50.2035 171.79 50.2519 171.27 50.2519C170.418 50.2519 169.756 50.0583 169.236 49.7681C168.763 49.4778 168.527 48.8972 168.527 48.0264V29.1584C168.763 29.0616 169.094 28.9649 169.52 28.9165C169.898 28.8197 170.324 28.8197 170.75 28.8197C171.648 28.8197 172.31 28.9649 172.736 29.3035C173.209 29.5938 173.445 30.1743 173.445 30.9484V49.9132ZM148.945 29.11C149.182 29.0132 149.513 28.9165 149.891 28.8681C150.317 28.8681 150.695 28.8197 151.168 28.8197C152.02 28.8197 152.682 29.0132 153.108 29.3035C153.581 29.6422 153.77 30.2227 153.77 30.9484V40.5759C153.77 42.4628 154.337 43.9141 155.425 44.8817C156.513 45.8977 157.932 46.3815 159.729 46.3815C160.817 46.3815 161.716 46.2364 162.425 45.9945C163.135 45.7526 163.702 45.4623 164.175 45.172C164.459 45.4623 164.743 45.8009 164.932 46.188C165.168 46.6234 165.263 47.0588 165.263 47.4942C165.263 48.0748 165.121 48.5102 164.79 48.8972C164.506 49.2843 164.081 49.6229 163.56 49.8648C163.04 50.1067 162.425 50.3002 161.716 50.397C160.959 50.4938 160.202 50.5421 159.398 50.5421C157.837 50.5421 156.466 50.3486 155.189 49.9132C153.864 49.4778 152.777 48.8489 151.831 48.0264C150.932 47.2039 150.223 46.188 149.702 44.9301C149.135 43.6722 148.898 42.2209 148.898 40.5759L148.945 29.11ZM156.324 30.9C156.324 30.0776 156.608 29.4487 157.223 29.0616C157.79 28.6746 158.547 28.4811 159.587 28.4811C160.533 28.4811 161.385 28.6262 162.189 28.9649C162.945 29.2551 163.608 29.7389 164.175 30.3195C164.743 30.9 165.168 31.6741 165.5 32.5449C165.783 33.4158 165.925 34.3834 165.925 35.4961C165.925 36.7056 165.783 37.7699 165.452 38.6408C165.168 39.56 164.695 40.2857 164.128 40.8662C163.56 41.4952 162.851 41.9306 162.047 42.1725C161.243 42.4628 160.391 42.6079 159.398 42.6079C158.358 42.6079 157.554 42.4144 156.986 41.979C156.418 41.5919 156.135 41.0114 156.135 40.2857C156.135 39.8503 156.229 39.4632 156.324 39.1729C156.466 38.8343 156.608 38.5924 156.797 38.3989C156.986 38.4956 157.223 38.544 157.506 38.6408C157.79 38.6891 158.074 38.7375 158.452 38.7375C159.256 38.7375 159.918 38.4473 160.391 37.9151C160.912 37.3829 161.148 36.5604 161.148 35.4961C161.148 34.4317 160.912 33.6577 160.391 33.1255C159.871 32.5933 159.209 32.3514 158.405 32.3514C158.168 32.3514 157.932 32.3514 157.695 32.3998C157.459 32.4482 157.223 32.4966 156.986 32.5933C156.797 32.3998 156.655 32.1579 156.513 31.916C156.418 31.6257 156.324 31.2871 156.324 30.9Z" fill="#0D3AA9"/>
<path d="M183 49.9629C182.763 50.0597 182.432 50.108 182.007 50.1564C181.581 50.2048 181.155 50.2532 180.73 50.2532C179.878 50.2532 179.216 50.0597 178.79 49.7694C178.318 49.4307 178.128 48.8986 178.128 48.0761V25.8699C178.128 24.9507 177.892 24.2734 177.466 23.7896C177.04 23.3058 176.473 23.0639 175.716 23.0639C175.007 23.0639 174.439 23.3058 174.013 23.7896C173.588 24.2734 173.351 24.9991 173.351 25.9667V26.9826C173.162 27.1278 172.926 27.3213 172.595 27.418C172.263 27.5632 171.838 27.6599 171.365 27.6599C170.466 27.6599 169.804 27.3697 169.331 26.8859C168.858 26.3537 168.622 25.628 168.622 24.7572C168.622 23.838 168.811 23.0155 169.189 22.3382C169.568 21.6125 170.04 20.9836 170.703 20.4998C171.318 20.016 172.074 19.6289 172.973 19.387C173.824 19.0968 174.723 19 175.716 19C177.986 19 179.736 19.5806 181.061 20.79C182.338 21.9995 183 23.6928 183 25.8699V49.9629Z" fill="#0D3AA9"/>
</svg>
