<svg width="192" height="70" viewBox="0 0 192 70" fill="none" xmlns="http://www.w3.org/2000/svg">
<path d="M192 0H0V70H192V0Z" fill="white"/>
<path d="M179.519 32.8725V48.907C179.3 48.9947 179.037 49.0385 178.731 49.1261C178.424 49.1699 178.03 49.2137 177.636 49.2137C176.673 49.2137 175.972 49.0385 175.622 48.7318C175.272 48.4251 175.097 47.8994 175.097 47.1985V32.8725H173.083C172.601 32.8725 172.295 32.7411 172.076 32.4344C171.901 32.1716 171.813 31.7335 171.813 31.2078C171.813 30.9449 171.857 30.682 171.901 30.3754C171.944 30.0687 172.032 29.8058 172.076 29.6306H175.14V29.1925C175.14 27.5277 174.922 26.3448 174.44 25.6001C174.002 24.8991 173.389 24.5486 172.557 24.5486C171.901 24.5486 171.375 24.7677 170.981 25.2058C170.631 25.6001 170.412 26.2134 170.412 26.9582V27.7468C170.237 27.8344 170.062 27.8782 169.843 27.9658C169.712 28.0096 169.493 28.0534 169.274 28.0972C169.055 28.1411 168.792 28.1411 168.573 28.1411C167.873 28.1411 167.26 28.0096 166.735 27.7029C166.209 27.3963 165.99 26.8267 165.99 25.9505C165.99 25.2934 166.122 24.6362 166.428 24.0229C166.691 23.4534 167.129 22.9276 167.654 22.4457C168.223 22.0076 168.88 21.6572 169.712 21.3943C170.5 21.1314 171.419 21 172.47 21C174.659 21 176.366 21.6572 177.636 22.9715C178.862 24.3296 179.475 26.3886 179.475 29.1487V29.6306H181.533C182.364 29.6306 182.802 30.1563 182.802 31.2516C182.802 31.4706 182.758 31.7773 182.715 32.084C182.627 32.4344 182.539 32.6973 182.452 32.8725H179.519Z" fill="#0D3AA9"/>
<path d="M170.631 32.8741V48.9086C170.412 48.9962 170.15 49.04 169.843 49.1277C169.537 49.1715 169.143 49.2153 168.749 49.2153C167.785 49.2153 167.085 49.04 166.735 48.7334C166.384 48.4267 166.209 47.901 166.209 47.2V32.8741H162.882C163.101 34.8456 163.188 36.7732 163.188 38.657C163.188 39.7085 163.013 40.5847 162.707 41.3295C162.356 42.0742 161.919 42.6876 161.35 43.2133C160.78 43.6952 160.08 44.0457 159.292 44.3085C158.46 44.5276 157.584 44.659 156.665 44.659C155.702 44.659 154.826 44.5276 154.038 44.3085C153.206 44.0457 152.55 43.6952 151.937 43.2133C151.367 42.7314 150.93 42.118 150.579 41.3295C150.273 40.5847 150.098 39.7085 150.098 38.657C150.098 37.6494 150.142 36.6856 150.185 35.7656C150.229 34.8017 150.273 33.8379 150.36 32.8741H148.609C148.128 32.8741 147.777 32.7427 147.602 32.436C147.427 32.1731 147.34 31.735 147.34 31.2093C147.34 30.9465 147.34 30.6836 147.383 30.3769C147.471 30.0703 147.515 29.8074 147.602 29.6322H172.601C173.433 29.6322 173.871 30.1579 173.871 31.2531C173.871 31.4722 173.827 31.7789 173.783 32.0855C173.74 32.436 173.652 32.6989 173.564 32.8741H170.631ZM156.665 41.1542C157.278 41.1542 157.759 40.979 158.11 40.5847C158.416 40.2342 158.591 39.6209 158.591 38.8761V32.8741H154.651V38.8761C154.651 39.6209 154.826 40.2342 155.176 40.5847C155.527 40.979 156.008 41.1542 156.665 41.1542Z" fill="#0D3AA9"/>
<path d="M146.376 32.8741V48.9086C146.157 48.9962 145.895 49.04 145.588 49.1277C145.282 49.1715 144.888 49.2153 144.494 49.2153C143.53 49.2153 142.874 49.04 142.523 48.7334C142.129 48.4267 141.954 47.901 141.954 47.2V43.1695C141.473 43.4762 140.903 43.6952 140.247 43.8266C139.634 44.0019 138.977 44.0895 138.233 44.0895C136.219 44.0895 134.599 43.52 133.461 42.3809C132.279 41.2418 131.709 39.5771 131.709 37.3865V32.8741H130.177C129.696 32.8741 129.389 32.7427 129.214 32.436C128.995 32.1731 128.907 31.735 128.907 31.2093C128.907 30.9465 128.951 30.6836 128.995 30.3769C129.039 30.0703 129.126 29.8074 129.214 29.6322H148.346C149.178 29.6322 149.616 30.1579 149.616 31.2531C149.616 31.4722 149.616 31.7789 149.528 32.0855C149.485 32.436 149.397 32.6989 149.309 32.8741H146.376ZM141.954 37.1237V32.8741H136.438L141.954 37.1237ZM139.24 40.5409C139.765 40.5409 140.291 40.4533 140.772 40.278C141.254 40.1028 141.604 39.8837 141.867 39.6209L136.131 35.1522V37.1675C136.131 38.3942 136.394 39.2704 136.919 39.7961C137.445 40.3218 138.189 40.5409 139.24 40.5409Z" fill="#0D3AA9"/>
<path d="M127.988 32.8725V48.907C127.769 48.9947 127.506 49.0385 127.156 49.1261C126.85 49.1699 126.499 49.2137 126.105 49.2137C125.098 49.2137 124.442 49.0385 124.091 48.7318C123.741 48.4251 123.566 47.8994 123.566 47.1985V32.8725H121.552C121.071 32.8725 120.72 32.7411 120.545 32.4344C120.37 32.1716 120.282 31.7335 120.282 31.2078C120.282 30.9449 120.282 30.682 120.37 30.3754C120.414 30.0687 120.458 29.8058 120.545 29.6306H123.522C123.391 29.3239 123.26 28.9296 123.172 28.4915C123.084 28.0534 123.041 27.6153 123.041 27.1334C123.041 26.2572 123.216 25.4686 123.566 24.7239C123.96 23.9353 124.485 23.2781 125.23 22.7524C125.93 22.2267 126.85 21.7886 127.944 21.4819C128.995 21.1752 130.265 21 131.709 21C133.548 21 135.256 21.2191 136.875 21.6572C138.452 22.0514 139.809 22.5334 140.991 23.1029C142.129 23.6724 143.049 24.2858 143.705 24.8991C144.362 25.5124 144.712 25.9944 144.712 26.3886C144.712 27.002 144.45 27.4839 144.012 27.7906C143.53 28.1411 142.873 28.3163 142.085 28.3163C141.56 27.7029 140.86 27.1772 140.115 26.7391C139.327 26.2572 138.539 25.8629 137.62 25.5563C136.744 25.2058 135.825 24.9867 134.905 24.8115C133.942 24.6362 132.979 24.5486 132.016 24.5486C130.527 24.5486 129.389 24.8115 128.688 25.4248C127.944 25.9944 127.594 26.7829 127.594 27.7029C127.594 28.4915 127.725 29.1049 128.032 29.6306H129.958C130.834 29.6306 131.228 30.1563 131.228 31.2516C131.228 31.4706 131.228 31.7773 131.14 32.084C131.096 32.4344 131.009 32.6973 130.921 32.8725H127.988Z" fill="#0D3AA9"/>
<path d="M119.1 32.8741V48.9086C118.882 48.9962 118.575 49.04 118.269 49.1277C117.962 49.1715 117.612 49.2153 117.218 49.2153C116.211 49.2153 115.554 49.04 115.204 48.7334C114.854 48.4267 114.679 47.901 114.679 47.2V32.8741H112.665C112.183 32.8741 111.833 32.7427 111.658 32.436C111.483 32.1731 111.395 31.735 111.395 31.2093C111.395 30.9465 111.395 30.6836 111.483 30.3769C111.526 30.0703 111.57 29.8074 111.658 29.6322H121.071C121.946 29.6322 122.34 30.1579 122.34 31.2531C122.34 31.4722 122.34 31.7789 122.253 32.0855C122.209 32.436 122.121 32.6989 122.034 32.8741H119.1Z" fill="#0D3AA9"/>
<path d="M110.213 32.8707V48.9052C109.994 48.9928 109.688 49.0366 109.381 49.1242C109.075 49.168 108.724 49.2118 108.286 49.2118C107.323 49.2118 106.667 49.0366 106.316 48.7299C105.966 48.4233 105.791 47.8975 105.791 47.1966V42.0708H100.975C100.756 42.9032 100.362 43.5165 99.7492 43.9984C99.1363 44.4365 98.392 44.6994 97.4288 44.6994C96.2468 44.6994 95.4149 44.3927 94.8458 43.867C94.2766 43.2975 94.0139 42.6403 94.0139 41.8956C94.0139 41.2822 94.1891 40.6689 94.5831 40.0117H95.3274C95.7652 40.0117 96.1154 39.8803 96.3781 39.6174C96.597 39.3546 96.7284 38.9603 96.7284 38.4784V33.9659C96.7284 33.5716 96.6408 33.3088 96.4657 33.1335C96.2468 33.0021 96.0279 32.9145 95.7214 32.9145C95.4149 32.9145 95.196 32.9583 95.0209 33.1335C94.8458 33.265 94.7144 33.484 94.6706 33.7469C94.4517 33.7907 94.2766 33.8345 94.0577 33.8345C93.4448 33.8345 92.9194 33.6593 92.5692 33.3088C92.2189 32.9583 92 32.5202 92 31.9068C92 31.4687 92.1313 31.0306 92.3065 30.6802C92.5254 30.3297 92.7881 30.023 93.1383 29.7602C93.4886 29.4973 93.8826 29.3221 94.3642 29.1906C94.8458 29.0592 95.3711 29.0154 95.9403 29.0154C97.604 29.0154 98.9174 29.3659 99.793 30.1106C100.712 30.8554 101.15 31.9068 101.15 33.3526V38.6098H105.791V32.8707H103.996C103.514 32.8707 103.164 32.7392 102.989 32.4326C102.814 32.1697 102.726 31.7316 102.726 31.2059C102.726 30.943 102.726 30.6802 102.77 30.3735C102.858 30.0668 102.901 29.804 102.989 29.6287H112.183C113.059 29.6287 113.453 30.1544 113.453 31.2497C113.453 31.4687 113.453 31.7754 113.365 32.0821C113.321 32.4326 113.234 32.6954 113.146 32.8707H110.213Z" fill="#0D3AA9"/>
</svg>
