<svg width="192" height="70" viewBox="0 0 192 70" fill="none" xmlns="http://www.w3.org/2000/svg">
<path d="M192 0H0V70H192V0Z" fill="white"/>
<path d="M120.661 40.0549C120.661 40.7183 120.911 41.2158 121.37 41.5889C121.829 42.0034 122.454 42.1693 123.164 42.1693C124.29 42.1693 125.166 41.7547 125.792 40.8841C126.418 40.0549 126.751 38.8527 126.751 37.2773C126.751 35.2873 126.126 33.7534 124.916 32.717C123.664 31.6391 121.996 31.1416 119.91 31.1416H111.566C112.317 31.8878 112.943 32.7999 113.485 33.9192C114.028 35.0386 114.32 36.2823 114.32 37.6919C114.32 40.1793 113.694 42.0864 112.484 43.4545C111.233 44.8225 109.564 45.5273 107.436 45.5273C106.352 45.5273 105.392 45.32 104.516 44.9469C103.682 44.5738 102.973 44.0349 102.472 43.2886C101.971 43.9934 101.304 44.5323 100.47 44.9055C99.5937 45.32 98.5925 45.5273 97.4244 45.5273C96.5066 45.5273 95.6723 45.403 94.8797 45.1542C94.087 44.9055 93.4196 44.5323 92.8355 44.0763C92.2932 43.6203 91.8343 43.0399 91.5006 42.3766C91.2086 41.7132 91.0417 40.967 91.0417 40.1379C91.0417 39.06 91.3337 38.1064 91.8761 37.3187C92.4601 36.5311 93.2944 35.8263 94.4208 35.2459L96.3397 34.2509C97.0489 33.9192 97.5495 33.5461 97.8833 33.173C98.1753 32.7999 98.3422 32.3853 98.3422 31.8878C98.3422 31.4318 98.1753 31.1001 97.8833 30.8099C97.5913 30.5197 97.1741 30.3954 96.6735 30.3954C96.0894 30.3954 95.6306 30.5612 95.3803 30.8514C95.0882 31.183 94.9631 31.5976 94.9631 32.0537C94.9631 32.3439 94.9631 32.5511 95.0048 32.7584C95.0882 32.9657 95.13 33.1315 95.2551 33.2974C95.0882 33.5047 94.8379 33.6705 94.4625 33.8363C94.087 34.0022 93.7116 34.0851 93.2944 34.0851C92.627 34.0851 92.0429 33.8778 91.6258 33.4217C91.2086 33.0072 91 32.3853 91 31.5976C91 30.8928 91.1669 30.271 91.4589 29.732C91.7926 29.1931 92.2098 28.7785 92.7104 28.4054C93.211 28.0323 93.795 27.7835 94.4625 27.6177C95.1717 27.4104 95.8391 27.3275 96.59 27.3275C97.341 27.3275 98.0501 27.4104 98.7593 27.6177C99.4268 27.825 100.053 28.1152 100.553 28.4883C101.096 28.8614 101.513 29.3589 101.805 29.9393C102.138 30.5197 102.305 31.2245 102.305 32.0122C102.305 33.0486 102.013 33.9607 101.471 34.7484C100.887 35.4946 100.136 36.1579 99.0931 36.6554L97.1324 37.6919C96.5483 38.0235 96.0894 38.3552 95.7557 38.7283C95.422 39.1014 95.2551 39.5575 95.2551 40.0964C95.2551 40.7183 95.5054 41.2158 95.9643 41.5889C96.4649 41.9205 97.0907 42.0864 97.8416 42.0864C98.6342 42.0864 99.2599 41.8791 99.7605 41.4645C100.219 41.0499 100.47 40.4695 100.47 39.7233V38.4381C100.72 38.2723 100.97 38.1479 101.304 38.0235C101.68 37.8992 102.055 37.8577 102.472 37.8577C102.889 37.8577 103.265 37.8992 103.599 38.0235C103.932 38.1479 104.224 38.2723 104.433 38.4381V39.6818C104.433 40.4281 104.683 41.0085 105.142 41.423C105.643 41.8791 106.268 42.0864 107.061 42.0864C108.02 42.0864 108.771 41.7132 109.272 41.0085C109.814 40.2622 110.065 39.1843 110.065 37.6919C110.065 36.7798 109.981 35.9921 109.773 35.2459C109.564 34.5411 109.272 33.9192 108.938 33.3388C108.605 32.7999 108.229 32.3439 107.812 31.9707C107.395 31.5976 106.978 31.3489 106.56 31.1416H104.433C104.308 30.9343 104.224 30.727 104.141 30.4783C104.057 30.2295 104.016 29.8979 104.016 29.5662C104.016 29.0273 104.141 28.6127 104.391 28.3225C104.683 28.0737 105.017 27.9494 105.476 27.9494H120.577C122.162 27.9494 123.623 28.1566 124.874 28.6541C126.126 29.1102 127.21 29.7735 128.086 30.6026C128.962 31.4732 129.63 32.4682 130.089 33.5876C130.548 34.7484 130.756 35.9921 130.756 37.3187C130.756 38.6039 130.589 39.7647 130.255 40.7597C129.88 41.7962 129.379 42.6253 128.712 43.3301C128.045 44.0349 127.252 44.5738 126.334 44.9469C125.375 45.32 124.332 45.5273 123.164 45.5273C122.288 45.5273 121.453 45.403 120.661 45.1542C119.868 44.9055 119.159 44.5323 118.575 44.0349C117.991 43.5788 117.49 42.957 117.156 42.2522C116.823 41.5474 116.614 40.7597 116.614 39.8477C116.614 39.0185 116.781 38.3137 117.031 37.6919C117.282 37.07 117.615 36.5725 118.074 36.1579C118.533 35.7434 119.034 35.4117 119.576 35.2044C120.16 34.9971 120.702 34.9142 121.328 34.9142C122.162 34.9142 122.83 35.08 123.247 35.4532C123.706 35.7848 123.956 36.2823 123.956 36.8213C123.956 37.3602 123.789 37.8577 123.456 38.2723C123.205 38.1894 122.955 38.1479 122.663 38.1479C122.079 38.1479 121.62 38.3137 121.245 38.6454C120.869 38.977 120.661 39.4331 120.661 40.0549ZM102.472 51.0826C101.805 51.0826 101.304 50.9168 100.929 50.5437C100.511 50.1706 100.345 49.6316 100.345 48.9683C100.345 48.3879 100.47 47.8075 100.762 47.2271C101.012 46.6467 101.387 46.1492 101.846 45.7346C102.055 45.4859 102.263 45.403 102.472 45.403C102.555 45.403 102.681 45.403 102.764 45.4859C102.889 45.5273 103.014 45.6102 103.098 45.7346C103.515 46.1492 103.849 46.6467 104.141 47.2271C104.433 47.8075 104.558 48.3879 104.558 48.9683C104.558 49.6316 104.391 50.1706 104.016 50.5437C103.599 50.9168 103.098 51.0826 102.472 51.0826Z" fill="#0D3AA9"/>
<path d="M139.475 45.528C138.474 45.528 137.598 45.3622 136.764 45.1134C135.971 44.8232 135.303 44.4501 134.719 43.9526C134.177 43.4552 133.76 42.8333 133.426 42.1285C133.134 41.4237 132.967 40.5946 132.967 39.724C132.967 38.8948 133.092 38.1486 133.343 37.4853C133.635 36.822 133.968 36.283 134.427 35.827C134.886 35.3295 135.429 34.9978 136.096 34.7491C136.722 34.5003 137.431 34.376 138.182 34.376C139.141 34.376 139.851 34.5418 140.351 34.9149C140.852 35.288 141.102 35.827 141.102 36.4488C141.102 36.822 141.06 37.1122 140.935 37.4024C140.768 37.6926 140.601 37.9413 140.435 38.1071C140.059 37.8998 139.6 37.8169 139.058 37.8169C138.516 37.8169 138.057 37.9828 137.681 38.3144C137.306 38.6875 137.097 39.185 137.097 39.8484C137.097 40.5117 137.348 41.0921 137.806 41.5066C138.307 41.8798 138.933 42.0871 139.725 42.0871C140.601 42.0871 141.269 41.8798 141.77 41.4237C142.312 41.0092 142.562 40.3873 142.562 39.6411V38.5217C142.771 38.3559 143.063 38.2315 143.396 38.1071C143.73 38.0242 144.106 37.9828 144.523 37.9828C144.982 37.9828 145.357 38.0242 145.649 38.1071C145.983 38.2315 146.275 38.3559 146.484 38.5217V39.6411C146.484 40.5531 146.776 41.2164 147.36 41.7139C147.944 42.17 148.653 42.4187 149.487 42.4187C150.113 42.4187 150.655 42.2943 151.114 42.0456L148.027 38.9363C148.11 38.4803 148.277 38.1071 148.653 37.7755C148.987 37.4853 149.404 37.3194 149.863 37.3194L152.366 40.1386C152.407 40.0142 152.449 39.8069 152.491 39.6411C152.532 39.4338 152.532 39.2265 152.532 39.0192C152.532 38.0657 152.324 37.2365 151.948 36.5318C151.531 35.7855 150.947 35.1222 150.196 34.5833C150.238 34.1272 150.447 33.7126 150.822 33.381C151.156 33.0493 151.615 32.8835 152.115 32.8835C152.866 32.8835 153.617 33.2152 154.326 33.9199C154.869 34.4174 155.327 35.1222 155.703 35.9928C156.037 36.8634 156.245 37.8584 156.245 39.0192C156.245 40.5531 155.87 41.8383 155.119 42.9577L156.662 44.533C156.662 44.7818 156.579 44.9891 156.496 45.1549C156.37 45.3622 156.245 45.528 156.078 45.6524C155.912 45.8182 155.745 45.9426 155.494 46.0255C155.286 46.1084 155.035 46.1499 154.785 46.1913L153.283 44.533C152.783 44.8647 152.199 45.072 151.531 45.2378C150.864 45.4037 150.155 45.528 149.404 45.528C148.194 45.528 147.193 45.2793 146.358 44.8647C145.566 44.4087 144.94 43.9112 144.523 43.2893C144.147 43.9112 143.522 44.4087 142.646 44.8647C141.77 45.2793 140.727 45.528 139.475 45.528ZM144.398 30.5619C143.814 30.5619 143.271 30.479 142.729 30.3131C142.187 30.1058 141.728 29.8571 141.352 29.5254C140.935 29.1938 140.643 28.7792 140.393 28.2817C140.184 27.7842 140.059 27.2038 140.059 26.5405C140.059 25.9186 140.184 25.3797 140.393 24.8407C140.643 24.3433 140.977 23.8872 141.394 23.5141C141.811 23.141 142.354 22.8508 142.938 22.6435C143.522 22.4362 144.189 22.3118 144.898 22.3118C146.525 22.3118 147.818 22.8508 148.736 23.8872C149.654 24.9237 150.155 26.3332 150.155 28.1573C150.155 29.1523 149.988 30.0644 149.696 30.8521C149.445 31.6812 149.028 32.386 148.528 32.9664C147.985 33.5883 147.36 34.0443 146.609 34.376C145.858 34.7076 145.023 34.8735 144.106 34.8735C143.146 34.8735 142.395 34.7076 141.853 34.4174C141.352 34.0858 141.102 33.6297 141.102 33.0493C141.102 32.5933 141.227 32.1787 141.519 31.8056C142.103 32.0129 142.771 32.1373 143.522 32.1373C144.273 32.1373 144.94 31.9714 145.524 31.6398C146.108 31.3081 146.484 30.7692 146.65 29.9815C146.4 30.1473 146.066 30.2717 145.691 30.396C145.315 30.5204 144.898 30.5619 144.398 30.5619ZM144.982 28.1159C145.441 28.1159 145.816 27.9501 146.15 27.6599C146.442 27.4111 146.567 26.9965 146.567 26.5405C146.567 26.0845 146.442 25.7114 146.108 25.4212C145.816 25.131 145.441 25.0066 144.982 25.0066C144.565 25.0066 144.189 25.131 143.897 25.4212C143.563 25.7114 143.438 26.0845 143.438 26.5405C143.438 26.9965 143.563 27.4111 143.897 27.6599C144.189 27.9501 144.565 28.1159 144.982 28.1159Z" fill="#0D3AA9"/>
<path d="M166.674 34.7903C166.758 34.9976 166.883 35.2463 166.966 35.4951C167.092 35.7853 167.133 36.0755 167.133 36.4071C167.133 36.7388 167.092 37.029 167.008 37.3192C166.883 37.6094 166.8 37.8167 166.674 37.9825H164.964C164.255 38.024 163.712 38.2312 163.337 38.6044C162.962 38.9775 162.753 39.475 162.753 40.1383C162.753 40.7602 163.003 41.2162 163.42 41.5893C163.879 41.921 164.422 42.0868 165.047 42.0868C165.59 42.0868 166.049 42.0453 166.424 41.8795C166.8 41.7551 167.133 41.5893 167.384 41.3406C167.676 41.5478 167.884 41.7551 168.093 42.0453C168.301 42.3355 168.385 42.7087 168.385 43.0818C168.385 43.7865 168.051 44.367 167.384 44.823C166.758 45.279 165.715 45.5278 164.38 45.5278C163.504 45.5278 162.711 45.4034 162.002 45.1546C161.335 44.9059 160.709 44.5742 160.208 44.1182C159.666 43.6622 159.291 43.1232 159.04 42.5014C158.748 41.8795 158.623 41.1747 158.623 40.387C158.623 39.4335 158.873 38.6044 159.374 37.941C159.833 37.2363 160.5 36.7388 161.335 36.3657C160.584 35.9925 160 35.4951 159.583 34.7903C159.124 34.0855 158.915 33.3393 158.915 32.5516C158.915 30.9762 159.457 29.7325 160.584 28.7789C161.668 27.8254 163.254 27.3279 165.339 27.3279C166.466 27.3279 167.467 27.5352 168.343 27.9913C169.177 28.4058 169.845 29.0277 170.304 29.8154C170.763 29.0277 171.43 28.4058 172.306 27.9913C173.224 27.5352 174.183 27.3279 175.226 27.3279C175.31 27.3279 175.435 27.3279 175.56 27.3694C175.685 27.3694 175.81 27.3694 175.894 27.3694C176.77 27.0377 177.312 26.333 177.646 25.2551C177.104 25.6696 176.394 25.8769 175.477 25.8769C174.893 25.8769 174.35 25.794 173.85 25.6282C173.349 25.4623 172.932 25.2136 172.556 24.8819C172.181 24.5503 171.889 24.1357 171.68 23.6797C171.43 23.1822 171.347 22.6432 171.347 22.0214C171.347 21.441 171.43 20.902 171.68 20.4045C171.889 19.9485 172.223 19.4925 172.598 19.1608C173.015 18.7877 173.516 18.4975 174.058 18.2902C174.642 18.0829 175.268 18 175.936 18C177.479 18 178.689 18.456 179.607 19.451C180.483 20.446 180.942 21.8141 180.942 23.5553C180.942 25.6282 180.316 27.2036 179.064 28.3644C180.274 29.0691 181.234 30.1885 181.943 31.5981C182.652 33.0491 182.986 34.7903 182.986 36.8217C182.986 38.1898 182.819 39.3921 182.485 40.4699C182.151 41.5478 181.692 42.4599 181.067 43.2061C180.441 43.9524 179.69 44.5328 178.814 44.9474C177.896 45.3619 176.937 45.5692 175.81 45.5692C175.018 45.5692 174.225 45.4448 173.558 45.2376C172.848 44.9888 172.264 44.6572 171.764 44.2426C171.222 43.828 170.846 43.2891 170.554 42.6672C170.262 42.0868 170.137 41.382 170.137 40.6358C170.137 39.931 170.262 39.2677 170.471 38.7287C170.721 38.1483 171.013 37.6923 171.388 37.3192C171.764 36.9461 172.223 36.6559 172.723 36.4486C173.224 36.2413 173.766 36.1584 174.267 36.1584C175.101 36.1584 175.727 36.3242 176.144 36.6559C176.603 36.9875 176.812 37.4436 176.812 38.024C176.812 38.3142 176.77 38.5214 176.686 38.7287C176.603 38.936 176.52 39.1433 176.394 39.3506C176.102 39.2262 175.81 39.1848 175.518 39.1848C175.143 39.1848 174.809 39.3091 174.517 39.5579C174.183 39.8066 174.058 40.1797 174.058 40.6772C174.058 41.1747 174.225 41.5064 174.559 41.7966C174.893 42.0868 175.31 42.2112 175.852 42.2112C176.812 42.2112 177.562 41.7551 178.105 40.8431C178.689 39.8895 178.939 38.5629 178.939 36.8217C178.939 34.9561 178.605 33.4636 177.896 32.3443C177.229 31.2249 176.228 30.6445 174.976 30.6445C174.183 30.6445 173.558 30.8933 173.057 31.3078C172.515 31.7639 172.264 32.3857 172.264 33.1734V34.2099C171.764 34.583 171.096 34.7488 170.304 34.7488C169.887 34.7488 169.511 34.7074 169.177 34.583C168.844 34.5001 168.593 34.3757 168.343 34.2099V33.1734C168.343 32.3857 168.093 31.7639 167.592 31.3493C167.05 30.8933 166.424 30.686 165.631 30.686C164.755 30.686 164.13 30.8933 163.712 31.2664C163.295 31.681 163.087 32.1785 163.087 32.7589C163.087 33.3393 163.254 33.8368 163.671 34.2099C164.088 34.6244 164.714 34.7903 165.548 34.7903H166.674ZM176.019 23.5553C176.436 23.5553 176.812 23.3895 177.104 23.1407C177.396 22.8505 177.562 22.5189 177.562 22.0628C177.562 21.6068 177.396 21.2337 177.104 20.9849C176.812 20.6947 176.436 20.5704 176.019 20.5704C175.602 20.5704 175.268 20.6947 174.976 20.9849C174.684 21.2337 174.517 21.6068 174.517 22.0628C174.517 22.4774 174.684 22.8505 174.976 23.1407C175.268 23.3895 175.602 23.5553 176.019 23.5553Z" fill="#0D3AA9"/>
</svg>
