<svg width="192" height="63" viewBox="0 0 192 63" fill="none" xmlns="http://www.w3.org/2000/svg">
<rect width="192" height="63" fill="white"/>
<path d="M192 0H0V63H192V0Z" fill="white"/>
<path d="M144.049 33.966C144.764 33.966 145.404 34.1176 146.006 34.345C146.645 34.5723 147.172 34.9134 147.623 35.3681C148.075 35.7849 148.414 36.3154 148.677 36.9217C148.94 37.5658 149.054 38.2479 149.054 39.0058C149.054 39.7257 148.94 40.4079 148.677 41.052C148.452 41.6962 148.075 42.2646 147.586 42.7572C147.097 43.2119 146.532 43.6287 145.817 43.894C145.065 44.1971 144.275 44.3487 143.334 44.3487C142.469 44.3487 141.641 44.1971 140.85 43.8561C140.098 43.5529 139.458 43.0603 138.931 42.4161C138.367 41.772 137.953 40.9762 137.652 39.991C137.351 39.0058 137.201 37.869 137.201 36.5807C137.201 34.9891 137.389 33.5871 137.84 32.3745C138.292 31.1241 138.894 30.101 139.684 29.2673C140.512 28.3958 141.452 27.7516 142.581 27.3348C143.673 26.8801 144.915 26.6527 146.231 26.6527C147.736 26.6527 149.054 26.9558 150.22 27.4864C151.349 28.0547 152.29 28.8126 152.966 29.7979C153.418 28.7747 154.133 27.9789 155.036 27.4485C155.94 26.9179 156.955 26.6527 158.046 26.6527C159.063 26.6527 160.003 26.88 160.869 27.2969C161.696 27.7137 162.373 28.3201 162.9 29.1157C163.464 28.3201 164.217 27.6758 165.121 27.2969C166.061 26.88 167.04 26.6527 168.093 26.6527C169.222 26.6527 170.237 26.8801 171.216 27.259C172.156 27.6758 172.984 28.2443 173.662 29.0021C174.339 29.76 174.866 30.7073 175.242 31.8062C175.619 32.905 175.806 34.1934 175.806 35.5955C175.806 37.0354 175.581 38.3995 175.091 39.6879C174.64 40.9383 174 41.9993 173.173 42.833C172.796 43.2877 172.345 43.6287 171.856 43.8561C171.367 44.1214 170.839 44.235 170.237 44.235C169.598 44.235 169.071 44.0456 168.657 43.6287C168.244 43.2119 168.018 42.7193 167.942 42.1509C169.033 41.431 169.861 40.5215 170.501 39.4226C171.103 38.3237 171.404 37.0354 171.404 35.5955C171.404 33.9281 171.065 32.6019 170.388 31.6546C169.711 30.7073 168.808 30.2525 167.754 30.2525C166.927 30.2525 166.249 30.5178 165.76 31.0862C165.308 31.6167 165.045 32.3367 165.045 33.2082V43.9319C164.894 44.0077 164.594 44.0456 164.179 44.1214C163.803 44.1971 163.427 44.235 163.051 44.235C162.298 44.235 161.734 44.0835 161.32 43.7803C160.906 43.515 160.718 42.9467 160.718 42.0751V33.2082C160.718 32.3367 160.492 31.6167 160.078 31.0862C159.665 30.5178 159.025 30.2525 158.197 30.2525C157.331 30.2525 156.691 30.5178 156.278 31.0862C155.826 31.6167 155.6 32.3367 155.6 33.2082V43.9319C155.413 44.0077 155.149 44.0456 154.735 44.1214C154.359 44.1971 153.945 44.235 153.606 44.235C152.854 44.235 152.252 44.0835 151.875 43.7803C151.462 43.515 151.273 42.9467 151.273 42.0751V34.9891C151.273 34.2692 151.16 33.625 150.897 33.0188C150.633 32.4503 150.295 31.9578 149.882 31.5409C149.467 31.1241 148.94 30.7831 148.338 30.5936C147.736 30.3662 147.097 30.2525 146.419 30.2525C145.517 30.2525 144.764 30.4041 144.124 30.6694C143.485 30.9725 142.958 31.3514 142.543 31.8441C142.092 32.2988 141.754 32.8292 141.528 33.3977C141.302 34.0039 141.152 34.5724 141.114 35.1407C141.49 34.7618 141.979 34.4587 142.506 34.2692C143.033 34.0797 143.56 33.966 144.049 33.966ZM141.302 39.0437C141.302 39.65 141.49 40.1426 141.867 40.4836C142.243 40.8625 142.694 41.0141 143.259 41.0141C143.785 41.0141 144.237 40.8625 144.613 40.4836C144.989 40.1426 145.178 39.65 145.178 39.0437C145.178 38.4753 144.989 37.9827 144.651 37.6037C144.275 37.2248 143.823 37.0354 143.259 37.0354C142.694 37.0354 142.243 37.2248 141.867 37.6037C141.49 37.9827 141.302 38.4753 141.302 39.0437Z" fill="#0D3AA9"/>
<path d="M179.005 25.3287C179.005 24.533 178.854 23.9646 178.478 23.5099C178.101 23.0551 177.537 22.8278 176.822 22.8278C176.144 22.8278 175.618 23.0551 175.242 23.472C174.865 23.8888 174.677 24.3815 174.677 25.0256V25.7456C174.451 25.8593 174.226 25.935 174 26.0108C173.774 26.0866 173.511 26.1245 173.21 26.1245C172.419 26.1245 171.817 25.8971 171.441 25.4803C171.028 25.0635 170.839 24.4951 170.839 23.813C170.839 23.0551 170.99 22.3731 171.366 21.8047C171.743 21.2742 172.194 20.7815 172.758 20.4026C173.36 20.0616 174 19.7585 174.715 19.6069C175.43 19.4174 176.144 19.3037 176.822 19.3037C177.763 19.3037 178.59 19.4553 179.381 19.6827C180.171 19.9101 180.886 20.289 181.45 20.7815C182.052 21.2742 182.504 21.8804 182.843 22.6004C183.181 23.3583 183.332 24.1919 183.332 25.1771V43.9341C183.181 44.0099 182.88 44.0478 182.504 44.1236C182.128 44.1994 181.789 44.2373 181.413 44.2373C180.622 44.2373 180.02 44.0857 179.607 43.7826C179.23 43.5173 179.005 42.911 179.005 42.0395V25.3287Z" fill="#0D3AA9"/>
<path d="M70.4495 41.1657C71.2398 41.1657 71.8418 41.052 72.331 40.8625C72.7824 40.711 73.0083 40.4079 73.0083 39.991C73.0083 39.4605 72.5944 39.1953 71.8041 39.1953H70.7882C69.6971 39.1953 68.7939 38.8922 68.0791 38.2858C67.3642 37.7175 66.9879 36.8459 66.9879 35.7091C66.9879 34.6102 67.3642 33.7387 68.0415 33.1703C68.7188 32.6019 69.6218 32.2988 70.6754 32.2988H71.5784C71.9171 32.2988 72.1804 32.2609 72.3686 32.1472C72.5567 32.0714 72.632 31.882 72.632 31.6167C72.632 31.162 72.331 30.7831 71.7289 30.5178C71.1645 30.2525 70.3367 30.101 69.2831 30.101C68.6058 30.101 67.9662 30.1768 67.4018 30.3662C66.7997 30.5557 66.3106 30.8589 65.8967 31.2378C65.4828 31.6167 65.1441 32.1093 64.9183 32.6398C64.6926 33.2082 64.5421 33.8524 64.5421 34.5724V43.9319C64.3916 44.0077 64.1282 44.0456 63.7143 44.1214C63.338 44.1971 62.9617 44.235 62.5854 44.235C61.7953 44.235 61.2308 44.0835 60.817 43.7803C60.4031 43.515 60.215 42.9467 60.215 42.0372V34.4587C60.215 33.2461 60.4407 32.1851 60.8546 31.1999C61.2685 30.2525 61.8705 29.4189 62.6231 28.7747C63.4133 28.0926 64.354 27.5622 65.4827 27.2211C66.6116 26.8422 67.8533 26.6527 69.2079 26.6527C70.2991 26.6527 71.315 26.7664 72.2181 26.9937C73.1587 27.259 73.9489 27.5622 74.6638 28.0168C75.3411 28.4337 75.9056 28.9642 76.3194 29.5705C76.6957 30.2146 76.9215 30.9346 76.9215 31.7303C76.9215 32.7534 76.5452 33.5492 75.8679 34.1176C75.1906 34.6481 74.25 34.9512 73.0458 34.9512H71.7289C71.0516 34.9512 70.713 35.1786 70.713 35.7091C70.713 36.2017 71.0516 36.4669 71.7665 36.4669H73.1964C74.4381 36.4669 75.454 36.7701 76.2066 37.3385C76.9967 37.9448 77.373 38.8542 77.373 40.0289C77.373 41.4689 76.8462 42.5299 75.7174 43.2877C74.6262 44.0456 73.0458 44.3866 71.014 44.3866C69.5842 44.3866 68.5306 44.1971 67.8909 43.8182C67.2136 43.4392 66.875 42.8709 66.875 42.1888C66.875 41.6583 67.0632 41.1657 67.4394 40.711C67.778 40.8246 68.1919 40.9383 68.7188 41.0141C69.2455 41.0899 69.8099 41.1657 70.4495 41.1657Z" fill="#0D3AA9"/>
<path d="M83.0174 40.711C84.1462 40.711 85.0117 40.2942 85.6513 39.3847C86.291 38.5132 86.6297 37.2248 86.6297 35.4818C86.6297 33.7766 86.291 32.4503 85.6513 31.5788C85.0117 30.7073 84.071 30.2525 82.8669 30.2525C82.3778 30.2525 81.8886 30.3662 81.5123 30.5556C81.0985 30.7452 80.7222 30.9725 80.3835 31.1999C80.0825 31.0104 79.8567 30.7452 79.6686 30.442C79.4428 30.1389 79.3676 29.7978 79.3676 29.4189C79.3676 28.7747 79.5933 28.2443 80.0449 27.8274C80.4212 27.4485 80.9103 27.1833 81.5123 26.9937C82.1519 26.7664 82.8669 26.6527 83.7324 26.6527C84.7859 26.6527 85.8018 26.8422 86.6673 27.259C87.5703 27.6379 88.3605 28.2064 89.0002 28.9642C89.6775 29.7221 90.1666 30.6315 90.5429 31.7303C90.8811 32.8292 91.0695 34.0797 91.0695 35.4818C91.0695 36.9217 90.9188 38.1722 90.5429 39.2711C90.2042 40.37 89.715 41.2794 89.0754 42.0372C88.3981 42.7572 87.6456 43.3256 86.7425 43.7425C85.8394 44.1214 84.8611 44.3108 83.7699 44.3108C82.9798 44.3108 82.3401 44.235 81.7381 44.0835C81.1736 43.9319 80.6845 43.7046 80.3082 43.4392C79.6686 42.9846 79.3676 42.3782 79.3676 41.5825C79.3676 41.2414 79.4428 40.9004 79.6309 40.5594C79.8191 40.1805 80.0449 39.9152 80.3082 39.7257C80.6469 39.991 81.0608 40.2184 81.5123 40.4079C81.9638 40.6352 82.453 40.711 83.0174 40.711Z" fill="#0D3AA9"/>
<path d="M121.848 27.5243C121.999 27.4864 122.225 27.4485 122.563 27.3727C122.864 27.2969 123.165 27.259 123.503 27.259C124.294 27.259 124.858 27.4106 125.235 27.6758C125.648 27.9411 125.837 28.5095 125.837 29.3811V41.431C125.837 42.2267 125.611 42.8709 125.122 43.3256C124.67 43.7803 124.031 44.0077 123.24 44.0077H103.787C103.11 44.0077 102.62 43.8182 102.206 43.4014C101.831 43.0225 101.642 42.4161 101.642 41.6204C101.98 41.2794 102.244 40.9004 102.433 40.4079C102.658 39.9531 102.733 39.4605 102.733 38.8542C102.733 37.9827 102.508 37.3006 102.093 36.7701C101.642 36.2775 101.04 36.0123 100.212 36.0123C99.4224 36.0123 98.8204 36.2775 98.3682 36.808C97.9169 37.3385 97.6908 38.0585 97.6908 38.968C97.6908 39.8015 97.8039 40.4457 98.1054 41.0141C98.3682 41.5446 98.6697 41.9993 99.0456 42.4161C98.9702 42.9846 98.7074 43.4392 98.3305 43.7425C97.9169 44.0835 97.428 44.235 96.8636 44.235C96.3747 44.235 95.9225 44.1214 95.4712 43.8561C95.0576 43.5908 94.6808 43.2498 94.3802 42.7572C94.0411 42.3025 93.8159 41.7341 93.6274 41.0899C93.439 40.4458 93.3646 39.7258 93.3646 38.968C93.3646 37.9827 93.5144 37.0733 93.8159 36.2775C94.1541 35.4818 94.6054 34.7997 95.2083 34.2313C95.8103 33.6629 96.5245 33.2461 97.3903 32.9429C98.2184 32.6398 99.1587 32.4882 100.212 32.4882C101.266 32.4882 102.206 32.6398 103.035 32.905C103.862 33.2082 104.539 33.5871 105.141 34.1176C105.705 34.6481 106.158 35.2165 106.458 35.9365C106.797 36.6186 106.947 37.3764 106.947 38.2101C106.947 38.6269 106.91 39.0816 106.797 39.4605C106.722 39.8773 106.571 40.2942 106.421 40.6352H112.178L113.42 37.2627C112.629 37.2627 111.839 37.149 111.049 36.9217C110.296 36.6944 109.619 36.3533 109.017 35.8986C108.377 35.4439 107.926 34.8755 107.549 34.1935C107.173 33.5492 106.985 32.7534 106.985 31.882C106.985 31.0104 107.136 30.2525 107.475 29.6084C107.775 28.9642 108.189 28.3958 108.716 27.9411C109.281 27.5243 109.883 27.1833 110.56 26.9558C111.237 26.7285 111.952 26.6527 112.742 26.6527C113.608 26.6527 114.398 26.7664 115.113 27.0696C115.828 27.3348 116.43 27.7137 116.919 28.2064C117.445 28.6989 117.822 29.2673 118.123 29.9115C118.386 30.5556 118.537 31.2757 118.537 32.0335C118.537 32.3367 118.5 32.6019 118.462 32.8292C118.424 33.0567 118.386 33.284 118.273 33.5113C119.214 33.0945 119.966 32.3746 120.606 31.4272C121.246 30.442 121.659 29.1536 121.848 27.5243ZM121.585 34.9134C121.133 35.4439 120.531 35.8986 119.816 36.2775C119.102 36.6565 118.349 36.9217 117.596 37.0733L116.467 40.6352H121.585V34.9134ZM111.049 31.6167C111.049 32.4882 111.35 33.1703 111.952 33.5871C112.516 34.0418 113.269 34.2692 114.135 34.2692C114.248 33.8902 114.322 33.5113 114.36 33.1324C114.435 32.7913 114.473 32.4124 114.473 32.0714C114.473 31.3893 114.322 30.821 114.022 30.442C113.72 30.0252 113.269 29.8357 112.742 29.8357C112.216 29.8357 111.839 29.9873 111.5 30.2904C111.2 30.5936 111.049 31.0483 111.049 31.6167Z" fill="#0D3AA9"/>
<path d="M129.75 25.025C129.75 24.2292 129.563 23.6608 129.186 23.2062C128.81 22.7514 128.283 22.524 127.568 22.524C126.853 22.524 126.327 22.7514 125.951 23.1683C125.574 23.585 125.424 24.0776 125.424 24.7218V25.4417C125.198 25.5555 124.972 25.6313 124.747 25.7071C124.521 25.7828 124.257 25.8207 123.956 25.8207C123.128 25.8207 122.564 25.5934 122.15 25.1765C121.737 24.7597 121.548 24.1913 121.548 23.5093C121.548 22.7514 121.737 22.0694 122.075 21.5009C122.451 20.9705 122.903 20.4778 123.505 20.0989C124.069 19.7579 124.709 19.4547 125.424 19.3031C126.138 19.1137 126.853 19 127.568 19C128.472 19 129.337 19.1516 130.127 19.3789C130.918 19.6063 131.594 19.9852 132.197 20.4778C132.761 20.9705 133.213 21.5767 133.551 22.2967C133.89 23.0545 134.041 23.8882 134.041 24.8734V43.9335C133.89 44.0093 133.626 44.0472 133.25 44.123C132.874 44.1987 132.498 44.2366 132.122 44.2366C131.331 44.2366 130.729 44.0851 130.353 43.782C129.939 43.5167 129.75 42.9104 129.75 42.0388V25.025Z" fill="#0D3AA9"/>
</svg>
