<svg width="192" height="70" viewBox="0 0 192 70" fill="none" xmlns="http://www.w3.org/2000/svg">
<rect width="192" height="70" fill="white"/>
<path d="M192 0H0V70H192V0Z" fill="white"/>
<path d="M110.193 32.8577V48.9187C109.975 48.9624 109.668 49.05 109.362 49.0937C109.056 49.1812 108.706 49.1812 108.269 49.1812C107.307 49.1812 106.651 49.05 106.301 48.7436C105.951 48.4373 105.776 47.9121 105.776 47.2119V42.0917H100.965C100.747 42.8794 100.353 43.5359 99.7409 43.9735C99.1286 44.4549 98.3851 44.6737 97.423 44.6737C96.2422 44.6737 95.4112 44.4111 94.8427 43.886C94.2742 43.317 94.0118 42.6606 94.0118 41.8729C94.0118 41.304 94.1867 40.6475 94.5803 39.9911H95.3238C95.7611 39.9911 96.111 39.8598 96.3734 39.5972C96.592 39.3346 96.7232 38.9845 96.7232 38.4594V33.9518C96.7232 33.6017 96.6358 33.3391 96.4608 33.1641C96.2422 32.989 96.0235 32.9015 95.7174 32.9015C95.4112 32.9015 95.1926 32.989 95.0176 33.1203C94.8427 33.2516 94.7115 33.4704 94.6678 33.733C94.4491 33.8205 94.2742 33.8643 94.0555 33.8643C93.4432 33.8643 92.9184 33.6892 92.5685 33.3391C92.2187 32.989 92 32.5076 92 31.895C92 31.4573 92.1312 31.0635 92.3061 30.6696C92.5248 30.3195 92.7872 30.0132 93.1371 29.7506C93.4869 29.5318 93.8805 29.3567 94.3616 29.2254C94.8427 29.0941 95.3675 29.0066 95.936 29.0066C97.5979 29.0066 98.9099 29.4005 99.7846 30.1445C100.703 30.8447 101.14 31.9387 101.14 33.3391V38.6344H105.776V32.8577H103.983C103.502 32.8577 103.152 32.7265 102.977 32.4639C102.802 32.2013 102.715 31.7637 102.715 31.1948C102.715 30.9759 102.715 30.7134 102.758 30.407C102.846 30.1007 102.89 29.8381 102.977 29.6631H112.161C113.036 29.6631 113.429 30.1882 113.429 31.2823C113.429 31.5011 113.43 31.7637 113.342 32.1138C113.298 32.4201 113.211 32.6827 113.123 32.8577H110.193Z" fill="#0D3AA9"/>
<path d="M119.071 32.8608V48.9218C118.852 48.9655 118.546 49.0531 118.24 49.0968C117.934 49.1844 117.584 49.1844 117.191 49.1844C116.185 49.1844 115.529 49.0531 115.179 48.7467C114.829 48.4404 114.654 47.9152 114.654 47.215V32.8608H112.642C112.161 32.8608 111.811 32.7296 111.636 32.467C111.461 32.2044 111.374 31.7668 111.374 31.1979C111.374 30.9791 111.374 30.7165 111.461 30.4101C111.505 30.1038 111.549 29.8412 111.636 29.6662H121.039C121.914 29.6662 122.307 30.1913 122.307 31.2854C122.307 31.5042 122.307 31.7668 122.22 32.1169C122.176 32.4232 122.089 32.6858 122.001 32.8608H119.071Z" fill="#0D3AA9"/>
<path d="M127.949 32.8599V48.9209C127.73 48.9646 127.468 49.0522 127.118 49.0959C126.812 49.1835 126.462 49.1835 126.069 49.1835C125.063 49.1835 124.407 49.0522 124.057 48.7458C123.707 48.4395 123.532 47.9143 123.532 47.2141V32.8599H121.52C121.039 32.8599 120.689 32.7287 120.514 32.4661C120.339 32.2035 120.252 31.7659 120.252 31.197C120.252 30.9782 120.252 30.7156 120.339 30.4092C120.383 30.1029 120.427 29.8403 120.514 29.6653H123.488C123.357 29.3589 123.226 28.9651 123.138 28.5274C123.051 28.0898 123.007 27.6084 123.007 27.1708C123.007 26.2955 123.182 25.464 123.532 24.7201C123.926 23.9761 124.45 23.3197 125.194 22.7945C125.894 22.2256 126.812 21.8317 127.905 21.5254C128.955 21.2191 130.223 21.044 131.666 21.044C133.503 21.044 135.209 21.2628 136.827 21.6567C138.401 22.0943 139.757 22.5757 140.938 23.1446C142.075 23.7135 142.993 24.2824 143.649 24.8951C144.305 25.5078 144.655 26.033 144.655 26.3831C144.655 26.9957 144.393 27.4771 143.956 27.8272C143.475 28.1336 142.819 28.3086 142.031 28.3086C141.507 27.7397 140.807 27.2146 140.063 26.7332C139.276 26.2955 138.489 25.9017 137.57 25.5516C136.696 25.2452 135.777 24.9827 134.859 24.8076C133.897 24.6326 132.935 24.545 131.973 24.545C130.486 24.545 129.349 24.8514 128.649 25.4203C127.905 26.033 127.555 26.7769 127.555 27.7397C127.555 28.4837 127.687 29.1401 127.993 29.6653H129.917C130.792 29.6653 131.185 30.1904 131.185 31.2845C131.185 31.5033 131.185 31.7659 131.098 32.116C131.054 32.4223 130.967 32.6849 130.879 32.8599H127.949Z" fill="#0D3AA9"/>
<path d="M170.546 32.8608V48.9217C170.327 48.9655 170.065 49.053 169.759 49.0968C169.453 49.1843 169.059 49.1843 168.666 49.1843C167.703 49.1843 167.004 49.053 166.654 48.7467C166.304 48.4404 166.129 47.9152 166.129 47.215V32.8608H162.805C163.024 34.8301 163.111 36.7557 163.111 38.6813C163.111 39.6878 162.936 40.6068 162.63 41.3508C162.28 42.0948 161.843 42.7074 161.275 43.1888C160.706 43.714 160.006 44.0641 159.219 44.2829C158.388 44.5455 157.513 44.6768 156.595 44.6768C155.633 44.6768 154.758 44.5455 153.971 44.2829C153.14 44.0641 152.484 43.714 151.872 43.2326C151.303 42.7074 150.866 42.0948 150.516 41.3508C150.21 40.6068 150.035 39.6878 150.035 38.6813C150.035 37.6747 150.079 36.7119 150.122 35.7492C150.166 34.8301 150.21 33.8674 150.297 32.8608H148.548C148.067 32.8608 147.717 32.7295 147.542 32.467C147.367 32.2044 147.28 31.7667 147.28 31.1978C147.28 30.979 147.28 30.7164 147.324 30.4101C147.411 30.1038 147.455 29.8412 147.542 29.6661H172.514C173.345 29.6661 173.782 30.1913 173.782 31.2854C173.782 31.5042 173.739 31.7667 173.695 32.1169C173.651 32.4232 173.564 32.6858 173.476 32.8608H170.546ZM156.595 41.132C157.207 41.132 157.688 40.9569 158.038 40.6068C158.344 40.213 158.519 39.644 158.519 38.9001V32.8608H154.583V38.9001C154.583 39.644 154.758 40.213 155.108 40.6068C155.458 40.9569 155.939 41.132 156.595 41.132Z" fill="#0D3AA9"/>
<path d="M179.424 32.8597V48.9206C179.205 48.9644 178.943 49.0519 178.637 49.0957C178.331 49.1832 177.937 49.1832 177.543 49.1832C176.581 49.1832 175.881 49.0519 175.532 48.7456C175.182 48.4392 175.007 47.9141 175.007 47.2139V32.8597H172.995C172.514 32.8597 172.208 32.7284 171.989 32.4658C171.814 32.2033 171.727 31.7656 171.727 31.1967C171.727 30.9779 171.77 30.7153 171.814 30.409C171.858 30.1027 171.945 29.8401 171.989 29.665H175.051V29.2274C175.051 27.5644 174.832 26.3828 174.351 25.6389C173.913 24.8949 173.301 24.5448 172.47 24.5448C171.814 24.5448 171.289 24.7636 170.896 25.2012C170.546 25.6389 170.327 26.2515 170.327 26.9955V27.7832C170.152 27.827 169.977 27.9145 169.759 27.9583C169.628 28.002 169.409 28.0458 169.19 28.0896C168.972 28.1333 168.709 28.1771 168.49 28.1771C167.791 28.1771 167.178 28.002 166.654 27.6957C166.129 27.3894 165.91 26.8204 165.91 25.989C165.91 25.2887 166.041 24.6761 166.347 24.0634C166.61 23.4507 167.047 22.9256 167.572 22.4879C168.141 22.0503 168.797 21.7002 169.628 21.3939C170.415 21.1313 171.333 21 172.383 21C174.569 21 176.275 21.7002 177.543 23.0131C178.768 24.3697 179.38 26.3828 179.38 29.1399V29.665H181.436C182.267 29.665 182.704 30.1902 182.704 31.2842C182.704 31.5031 182.66 31.7656 182.616 32.1157C182.529 32.4221 182.441 32.6847 182.354 32.8597H179.424Z" fill="#0D3AA9"/>
<path d="M146.317 32.8608V48.9218C146.099 48.9655 145.836 49.0531 145.53 49.0968C145.224 49.1844 144.83 49.1844 144.437 49.1844C143.475 49.1844 142.819 49.0531 142.469 48.7467C142.075 48.4404 141.9 47.9152 141.9 47.215V43.1889C141.419 43.4514 140.851 43.6702 140.195 43.8453C139.582 43.9766 138.926 44.0641 138.183 44.0641C136.171 44.0641 134.553 43.4952 133.416 42.3574C132.235 41.2633 131.667 39.6003 131.667 37.3684V32.8608H130.136C129.655 32.8608 129.349 32.7296 129.174 32.467C128.955 32.2044 128.868 31.7668 128.868 31.1979C128.868 30.9791 128.911 30.7165 128.955 30.4101C128.999 30.1038 129.086 29.8412 129.174 29.6662H148.285C149.116 29.6662 149.554 30.1913 149.554 31.2854C149.554 31.5042 149.554 31.7668 149.466 32.1169C149.423 32.4232 149.335 32.6858 149.248 32.8608H146.317ZM139.189 40.5631C139.714 40.5631 140.238 40.4756 140.72 40.3005C141.201 40.1255 141.55 39.9067 141.813 39.6441L136.084 35.1365V37.1496C136.084 38.4187 136.346 39.294 136.871 39.7754C137.396 40.3005 138.139 40.5631 139.189 40.5631ZM141.9 37.1496V32.8608H136.39L141.9 37.1496Z" fill="#0D3AA9"/>
</svg>
