<svg width="192" height="70" viewBox="0 0 192 70" fill="none" xmlns="http://www.w3.org/2000/svg">
<rect width="192" height="70" fill="white"/>
<path d="M192 0H0V70H192V0Z" fill="white"/>
<path d="M106.942 40.9732C107.113 40.9732 107.328 40.93 107.499 40.7574C107.714 40.6279 107.8 40.4122 107.843 40.067C107.843 39.8081 107.843 39.5492 107.8 39.2903C107.8 38.9882 107.8 38.7293 107.8 38.4704C107.757 38.2115 107.757 37.9957 107.757 37.78C107.757 37.6074 107.757 37.4779 107.757 37.4347C107.928 37.3053 108.186 37.219 108.486 37.1758C108.786 37.1327 109.044 37.0895 109.301 37.0895C109.816 37.0895 110.245 37.2621 110.588 37.521C110.888 37.8231 111.103 38.3409 111.232 39.0313C111.274 39.2903 111.274 39.5492 111.317 39.8944C111.36 40.1964 111.36 40.5848 111.36 40.9732C111.36 42.354 111.189 43.5191 110.803 44.4684C110.459 45.4609 109.945 46.2808 109.301 46.928C108.658 47.5322 107.886 48.0068 106.985 48.3089C106.084 48.6109 105.097 48.7404 104.068 48.7404C102.952 48.7404 101.923 48.5678 100.979 48.2657C100.035 47.9637 99.2202 47.489 98.5338 46.928C97.8475 46.3239 97.3327 45.5903 96.9466 44.7273C96.5605 43.8643 96.346 42.8718 96.346 41.793C95.4452 41.3184 94.6301 40.6279 93.9867 39.6355C93.3003 38.6861 93 37.4347 93 35.8381C93 34.5005 93.2574 33.2922 93.8151 32.1703C94.3727 31.0483 95.1878 30.0559 96.2173 29.236C97.2469 28.4161 98.448 27.812 99.9066 27.3373C101.365 26.8627 102.952 26.6469 104.754 26.6469C106.684 26.6469 108.486 26.9058 110.116 27.4668C111.746 28.0278 113.119 28.8476 114.32 29.8833C115.478 30.9189 116.379 32.1703 117.023 33.6806C117.666 35.1477 118.009 36.7875 118.009 38.5567C118.009 39.2903 117.967 40.0238 117.838 40.6711C117.709 41.3615 117.58 41.9656 117.409 42.5266C117.237 43.0876 117.066 43.6054 116.851 44.0369C116.637 44.5116 116.465 44.8999 116.336 45.202C116.551 45.3746 116.765 45.5903 117.066 45.8493C117.366 46.065 117.666 46.3239 117.967 46.5828C118.267 46.8849 118.61 47.1438 118.91 47.4027C119.211 47.6616 119.511 47.9205 119.811 48.1363C119.768 48.8698 119.597 49.474 119.211 49.9486C118.825 50.3801 118.31 50.6391 117.58 50.6391C117.237 50.6391 116.937 50.5528 116.594 50.3801C116.251 50.2507 115.907 49.9918 115.521 49.6466C115.135 49.3014 114.706 48.8267 114.277 48.2657C113.805 47.7048 113.334 46.9712 112.776 46.1082C112.647 45.9356 112.604 45.8061 112.519 45.6766C112.476 45.5903 112.476 45.4609 112.476 45.2883C112.476 45.1157 112.476 44.9431 112.561 44.6842C112.604 44.4684 112.69 44.2095 112.819 43.8211C113.033 43.2602 113.248 42.5266 113.419 41.6204C113.634 40.7574 113.72 39.8944 113.72 38.9882C113.72 37.6505 113.505 36.4423 113.033 35.3635C112.561 34.2847 111.961 33.3785 111.146 32.6449C110.374 31.8682 109.43 31.3073 108.314 30.9189C107.242 30.4874 106.084 30.2716 104.84 30.2716C103.639 30.2716 102.566 30.4442 101.622 30.7463C100.679 31.0483 99.9066 31.4799 99.2631 31.9977C98.6196 32.5155 98.1048 33.1196 97.8046 33.81C97.4614 34.5436 97.2898 35.2772 97.2898 36.0971C97.2898 36.5717 97.3327 37.0032 97.4614 37.3053C97.7617 36.9169 98.062 36.5717 98.4051 36.356C98.7483 36.1402 99.1344 36.0108 99.6063 36.0108C99.9066 36.0108 100.164 36.0539 100.378 36.1834C100.593 36.2697 100.764 36.3991 100.936 36.5717C101.065 36.7443 101.193 36.9169 101.279 37.1327C101.322 37.3053 101.408 37.4779 101.408 37.6937C101.151 37.9957 100.893 38.4704 100.636 39.0745C100.378 39.7218 100.25 40.4553 100.25 41.2752C100.25 42.6561 100.636 43.6485 101.408 44.3821C102.18 45.0725 103.124 45.4177 104.196 45.4177C105.054 45.4177 105.741 45.2451 106.298 44.8999C106.856 44.5547 107.242 44.1232 107.457 43.5622C107.113 43.6917 106.684 43.7348 106.256 43.7348C105.097 43.7348 104.111 43.4328 103.381 42.8287C102.609 42.1814 102.223 41.2752 102.223 40.0238C102.223 39.0313 102.438 38.2546 102.867 37.7368C103.296 37.1758 103.853 36.9169 104.454 36.9169C104.84 36.9169 105.183 37.0032 105.483 37.1758C105.784 37.3053 105.998 37.4779 106.17 37.6505C106.041 37.8663 105.955 38.1252 105.869 38.4272C105.784 38.6861 105.741 39.0313 105.741 39.3766C105.741 39.9807 105.869 40.4122 106.084 40.6279C106.298 40.8869 106.599 40.9732 106.942 40.9732Z" fill="#0D3AA9"/>
<path d="M125.731 48.3064C125.559 48.3495 125.259 48.3927 124.916 48.4358C124.573 48.479 124.229 48.479 123.886 48.479C123.157 48.479 122.556 48.3927 122.17 48.1338C121.784 47.918 121.57 47.4002 121.57 46.5803V27.4211C121.741 27.378 121.999 27.3348 122.342 27.2485C122.685 27.2054 123.028 27.2054 123.372 27.2054C124.144 27.2054 124.701 27.2917 125.13 27.5506C125.516 27.7664 125.731 28.2842 125.731 29.104V48.3064Z" fill="#0D3AA9"/>
<path d="M131.566 42.4835C131.566 41.7067 131.737 41.0163 131.995 40.4122C131.566 40.1964 131.18 39.9375 130.794 39.5923C130.408 39.2471 130.064 38.8156 129.764 38.3409C129.464 37.8663 129.249 37.3053 129.078 36.7443C128.906 36.1402 128.82 35.4929 128.82 34.8457C128.82 33.6374 129.035 32.5155 129.507 31.523C129.979 30.5305 130.665 29.6675 131.566 28.9339C132.424 28.2004 133.496 27.6394 134.74 27.251C136.027 26.8195 137.4 26.6469 138.944 26.6469C139.716 26.6469 140.446 26.6901 141.175 26.8195C141.947 26.949 142.633 27.1216 143.32 27.3373C143.963 27.5531 144.607 27.812 145.164 28.0709C145.722 28.373 146.237 28.675 146.623 29.0202C147.095 29.3654 147.395 29.6675 147.524 30.0127C147.652 30.3579 147.738 30.7463 147.738 31.1778V48.3952C147.524 48.4815 147.224 48.5246 146.923 48.5678C146.58 48.6109 146.237 48.6109 145.937 48.6109C145.122 48.6109 144.564 48.5246 144.221 48.3089C143.835 48.0931 143.663 47.7911 143.663 47.3596C143.105 47.7048 142.462 48.0068 141.69 48.2657C140.918 48.5246 139.974 48.6541 138.901 48.6541C136.499 48.6541 134.654 48.0931 133.453 46.9712C132.209 45.8493 131.566 44.339 131.566 42.4835ZM138.987 30.0559C138.773 30.0559 138.558 30.0559 138.344 30.0559C138.129 30.099 137.915 30.099 137.7 30.1422L143.577 41.2321V31.3504C143.191 31.0052 142.548 30.7031 141.69 30.4442C140.875 30.1853 139.974 30.0559 138.987 30.0559ZM139.459 45.3746C139.931 45.3746 140.446 45.3314 140.875 45.202C141.304 45.0725 141.733 44.8999 142.076 44.6842L139.245 39.506C138.129 39.5492 137.271 39.8512 136.628 40.3259C135.984 40.8437 135.684 41.5341 135.684 42.3972C135.684 43.3896 136.027 44.1232 136.671 44.641C137.314 45.1157 138.258 45.3746 139.459 45.3746ZM134.397 37.6074C134.826 37.2621 135.298 37.0464 135.898 36.8306C136.499 36.658 137.1 36.5717 137.657 36.5286L134.826 31.221C134.225 31.6093 133.796 32.1271 133.496 32.7313C133.196 33.3354 133.024 34.0258 133.024 34.7594C133.024 35.4498 133.153 36.0108 133.453 36.4854C133.711 36.9601 134.011 37.3053 134.397 37.6074Z" fill="#0D3AA9"/>
<path d="M138.858 20C139.759 20 140.66 20.0863 141.518 20.2158C142.333 20.3452 143.148 20.5178 143.877 20.7336C144.606 20.9062 145.25 21.1651 145.85 21.424C146.494 21.7261 147.009 21.985 147.438 22.2439C147.91 22.5459 148.296 22.848 148.596 23.1932C148.896 23.5384 149.068 23.9268 149.068 24.3583C149.068 24.7898 148.939 25.2213 148.682 25.5234C148.424 25.8254 148.038 26.0843 147.609 26.3001C146.537 25.4371 145.25 24.7898 143.834 24.272C142.376 23.7973 140.746 23.5384 138.944 23.5384C137.142 23.5384 135.512 23.7973 134.011 24.3151C132.552 24.7898 131.308 25.4802 130.279 26.3001C129.85 26.1275 129.506 25.9117 129.206 25.5665C128.906 25.2213 128.777 24.8329 128.777 24.3583C128.777 23.6679 129.163 23.0206 129.892 22.4596C130.836 21.7692 132.08 21.1651 133.539 20.6904C134.997 20.2589 136.756 20 138.858 20Z" fill="#0D3AA9"/>
<path d="M161.766 33.0298C162.409 33.2456 162.881 33.5045 163.224 33.8929C163.524 34.2381 163.696 34.6264 163.696 35.0148C163.696 35.4895 163.61 35.8778 163.396 36.1799C163.181 36.4819 162.924 36.7408 162.623 36.9566C162.237 36.7408 161.766 36.5251 161.208 36.3525C160.65 36.1367 160.05 36.0504 159.406 36.0504C159.02 36.0504 158.677 36.0936 158.291 36.1367C157.905 36.223 157.519 36.3525 157.133 36.5251C156.789 36.7408 156.446 36.9566 156.146 37.2587C155.803 37.5176 155.545 37.9059 155.331 38.3374C155.631 38.2943 155.931 38.2511 156.189 38.208C156.446 38.208 156.746 38.208 157.004 38.208C158.162 38.208 159.235 38.3374 160.135 38.5964C161.036 38.8984 161.808 39.2868 162.452 39.7614C163.095 40.2793 163.567 40.8834 163.868 41.5738C164.211 42.2211 164.382 42.9978 164.382 43.7745C164.382 44.4649 164.254 45.1122 163.996 45.7595C163.739 46.3636 163.353 46.8814 162.881 47.3129C162.366 47.7876 161.766 48.1328 161.036 48.3917C160.307 48.6506 159.449 48.7801 158.505 48.7801C157.433 48.7801 156.489 48.6075 155.545 48.2623C154.644 47.917 153.829 47.4424 153.143 46.752C152.457 46.1047 151.942 45.2848 151.513 44.2923C151.127 43.2999 150.912 42.1348 150.912 40.8834C150.912 39.5888 151.127 38.4669 151.513 37.4744C151.942 36.5251 152.457 35.6621 153.1 35.0148C153.701 34.3244 154.43 33.8066 155.245 33.4613C156.06 33.073 156.875 32.8572 157.733 32.7278V32.3826C157.733 31.5627 157.905 30.786 158.291 30.1387C158.677 29.4483 159.192 28.8442 159.835 28.3695C160.436 27.8948 161.208 27.5065 162.066 27.2476C162.924 26.9886 163.825 26.8592 164.811 26.8592C166.098 26.8592 167.171 26.9886 168.072 27.2476C168.972 27.5496 169.659 27.8948 170.216 28.2832C170.56 28.5421 170.817 28.801 170.903 29.1462C171.031 29.4483 171.074 29.8366 171.074 30.225V48.3054C170.86 48.3486 170.603 48.3917 170.259 48.4349C169.959 48.478 169.616 48.478 169.316 48.478C168.929 48.478 168.629 48.478 168.286 48.4349C167.986 48.3917 167.728 48.2623 167.514 48.1328C167.299 48.0033 167.171 47.7876 167.042 47.5287C166.913 47.2698 166.87 46.9246 166.87 46.5362V30.6565C166.613 30.5702 166.356 30.4408 166.012 30.3545C165.669 30.2681 165.283 30.225 164.897 30.225C163.996 30.225 163.267 30.4839 162.666 30.9586C162.066 31.4332 161.766 32.0805 161.766 32.9435V33.0298ZM156.532 41.4443C156.317 41.4443 156.103 41.4443 155.803 41.4875C155.502 41.5306 155.202 41.5738 154.902 41.617C154.988 42.9115 155.374 43.8608 156.06 44.4649C156.746 45.1122 157.562 45.4143 158.419 45.4143C159.063 45.4143 159.535 45.2417 159.878 44.9828C160.221 44.6807 160.393 44.2923 160.393 43.7745C160.393 43.4725 160.35 43.2136 160.178 42.9115C160.05 42.6526 159.835 42.3937 159.535 42.1779C159.235 41.9622 158.806 41.7896 158.334 41.6601C157.862 41.5306 157.261 41.4443 156.532 41.4443Z" fill="#0D3AA9"/>
<path d="M183.085 28.0679C183.171 28.2405 183.257 28.4562 183.3 28.672C183.386 28.8877 183.386 29.1898 183.386 29.535V48.3058C183.171 48.3058 182.914 48.3921 182.614 48.4353C182.27 48.4784 181.927 48.4784 181.584 48.4784C180.855 48.4784 180.297 48.3921 179.868 48.1332C179.439 47.8743 179.225 47.3565 179.225 46.5798V32.0378L175.664 34.9289C175.149 34.7995 174.635 34.4974 174.248 34.0659C173.819 33.6344 173.605 33.1166 173.605 32.5124C173.605 32.0809 173.734 31.6926 173.948 31.3474C174.206 31.0021 174.592 30.6138 175.192 30.2254L179.782 27.0754C179.825 27.0322 179.911 27.0322 180.04 27.0322C180.168 27.0322 180.34 27.0322 180.469 27.0322C181.198 27.0322 181.756 27.1185 182.185 27.3343C182.614 27.5069 182.914 27.7658 183.085 28.0679Z" fill="#0D3AA9"/>
</svg>
