<svg width="192" height="70" viewBox="0 0 192 70" fill="none" xmlns="http://www.w3.org/2000/svg">
<rect width="192" height="70" fill="white"/>
<path d="M192 0H0V70H192V0Z" fill="white"/>
<path d="M118.081 32.9985C118.036 34.1939 117.9 35.2514 117.629 36.2169C117.312 37.2284 116.996 38.056 116.589 38.6997C116.996 39.2055 117.312 39.7572 117.584 40.4468C117.81 41.0905 117.945 41.7802 117.945 42.5618C117.945 43.5733 117.764 44.4929 117.358 45.3205C116.951 46.1481 116.363 46.8377 115.595 47.3895C114.826 47.9872 113.877 48.401 112.792 48.7228C111.707 49.0446 110.487 49.1826 109.086 49.1826C107.775 49.1826 106.554 49.0446 105.424 48.7228C104.339 48.4469 103.481 48.0791 102.893 47.6653C102.486 47.3895 102.215 47.1136 102.034 46.7917C101.899 46.5159 101.808 46.194 101.808 45.7802C101.808 45.3205 101.944 44.9067 102.26 44.4929C102.531 44.125 102.893 43.8492 103.3 43.6653C103.887 44.171 104.656 44.5848 105.605 45.0446C106.509 45.4584 107.684 45.6883 109.04 45.6883C110.622 45.6883 111.888 45.3205 112.702 44.6308C113.561 43.9411 114.013 43.1135 114.013 42.148C114.013 41.9641 113.967 41.8262 113.967 41.6882C113.922 41.5503 113.922 41.4124 113.877 41.2744C113.335 41.8721 112.657 42.3319 111.753 42.6538C110.849 43.0216 109.809 43.2055 108.679 43.2055C107.82 43.2055 107.052 43.1135 106.328 42.9296C105.605 42.7457 105.017 42.4699 104.475 42.102C103.978 41.6882 103.571 41.2285 103.255 40.7227C102.983 40.171 102.848 39.5273 102.848 38.8376C102.848 37.4583 103.345 36.4008 104.294 35.6192C105.289 34.8376 106.645 34.4238 108.362 34.4238C109.492 34.4238 110.442 34.5617 111.346 34.8836C112.205 35.2054 112.928 35.5732 113.515 36.033C113.606 35.6192 113.741 35.1135 113.787 34.6077C113.877 34.056 113.922 33.5502 113.922 32.9985H101.266C100.814 32.9985 100.452 32.8606 100.271 32.5847C100.09 32.2628 100 31.895 100 31.3433C100 31.1134 100.045 30.8835 100.09 30.5617C100.136 30.2398 100.226 30.0099 100.316 29.7801H119.301C119.753 29.7801 120.024 29.964 120.205 30.2398C120.386 30.5157 120.477 30.9295 120.477 31.4353C120.477 31.6651 120.431 31.941 120.386 32.2628C120.341 32.5847 120.25 32.8146 120.205 32.9985H118.081ZM108.905 40.033C109.538 40.033 110.125 39.8951 110.668 39.7112C111.255 39.4813 111.753 39.1595 112.159 38.7457C111.707 38.3319 111.21 38.01 110.622 37.7801C110.035 37.5503 109.447 37.4583 108.905 37.4583C108.317 37.4583 107.865 37.5962 107.594 37.8261C107.278 38.102 107.142 38.3779 107.142 38.7457C107.142 39.1135 107.278 39.4353 107.594 39.6652C107.865 39.8951 108.317 40.033 108.905 40.033Z" fill="#0D3AA9"/>
<path d="M125.584 32.9985V42.24C125.358 42.2859 125.087 42.3319 124.726 42.3779C124.409 42.4699 124.048 42.4699 123.686 42.4699C122.917 42.4699 122.33 42.3779 121.923 42.102C121.471 41.8262 121.29 41.2744 121.29 40.4468V32.9985H119.618C119.12 32.9985 118.804 32.8606 118.623 32.5847C118.442 32.3088 118.352 31.895 118.352 31.3893C118.352 31.1594 118.397 30.8835 118.442 30.5617C118.488 30.2398 118.578 30.0099 118.668 29.7801H127.212C127.664 29.7801 127.98 29.964 128.206 30.2398C128.387 30.5157 128.477 30.8835 128.477 31.4353C128.477 31.6651 128.432 31.941 128.387 32.2628C128.342 32.5847 128.251 32.8146 128.206 32.9985H125.584Z" fill="#0D3AA9"/>
<path d="M133.902 33.0001V48.4486C133.675 48.4486 133.404 48.5405 133.088 48.5865C132.726 48.6325 132.365 48.6785 132.003 48.6785C131.235 48.6785 130.647 48.5405 130.24 48.2647C129.788 47.9888 129.607 47.4371 129.607 46.6095V33.0001H127.89C127.438 33.0001 127.121 32.8622 126.94 32.5863C126.76 32.3105 126.669 31.8967 126.669 31.3909C126.669 31.161 126.714 30.8852 126.76 30.5633C126.85 30.2415 126.895 30.0116 126.94 29.7817H129.607V27.2529C129.607 25.2759 130.15 23.7587 131.325 22.6552C132.455 21.5517 134.082 21 136.162 21C137.201 21 138.15 21.1379 138.964 21.4138C139.823 21.6897 140.501 22.0575 141.089 22.5173C141.631 22.977 142.083 23.5288 142.354 24.0805C142.625 24.6782 142.761 25.3219 142.761 25.9656C142.761 26.8851 142.58 27.5748 142.128 27.9886C141.721 28.4024 141.179 28.6323 140.456 28.6323C139.959 28.6323 139.552 28.5403 139.19 28.4484C138.829 28.3104 138.557 28.2185 138.331 28.0346C138.331 27.8966 138.377 27.6667 138.377 27.4369C138.377 27.161 138.377 26.9311 138.377 26.7472C138.377 26.1035 138.196 25.5518 137.789 25.184C137.382 24.7702 136.84 24.5403 136.116 24.5403C135.393 24.5403 134.851 24.7702 134.444 25.2299C134.082 25.6897 133.856 26.3794 133.856 27.2529V29.7817H135.8C136.252 29.7817 136.568 29.9656 136.749 30.2415C136.93 30.5173 137.02 30.8852 137.02 31.4369C137.02 31.6668 137.02 31.9426 136.975 32.2645C136.885 32.5863 136.84 32.8162 136.749 33.0001H133.902Z" fill="#0D3AA9"/>
<path d="M153.384 32.9985V48.4469C153.203 48.4469 152.932 48.5389 152.57 48.5849C152.208 48.6308 151.847 48.6768 151.485 48.6768C150.717 48.6768 150.129 48.5389 149.722 48.263C149.27 47.9872 149.089 47.4354 149.089 46.6078V41.5963H143.439C142.942 44.8147 141.676 46.4239 139.597 46.4239C138.828 46.4239 138.196 46.194 137.653 45.6883C137.111 45.1825 136.794 44.6308 136.704 43.9411C137.427 43.4354 138.015 42.6078 138.512 41.5043C138.964 40.4468 139.19 39.1135 139.19 37.5043C139.19 36.8606 139.145 36.125 139.055 35.2514C138.964 34.4238 138.783 33.6422 138.557 32.9985H136.252C135.8 32.9985 135.484 32.8606 135.303 32.5847C135.077 32.2628 134.986 31.895 134.986 31.3433C134.986 31.1134 135.032 30.8835 135.077 30.5617C135.122 30.2398 135.212 30.0099 135.303 29.7801H155.282C155.734 29.7801 156.05 29.964 156.231 30.2398C156.412 30.5157 156.502 30.8835 156.502 31.4353C156.502 31.6651 156.502 31.941 156.412 32.2628C156.367 32.5847 156.322 32.8146 156.231 32.9985H153.384ZM149.089 38.148V32.9985H143.032C143.123 33.4123 143.213 33.8721 143.303 34.3318C143.349 34.8376 143.439 35.2974 143.484 35.7571C143.53 36.2169 143.575 36.6307 143.575 37.0445C143.62 37.4583 143.62 37.8261 143.62 38.148H149.089ZM143.484 46.1021C143.484 45.5044 143.71 44.9526 144.117 44.5388C144.524 44.125 145.021 43.9411 145.699 43.9411C146.332 43.9411 146.874 44.125 147.281 44.5388C147.688 44.9526 147.869 45.5044 147.869 46.1021C147.869 46.7458 147.688 47.2515 147.281 47.7113C146.874 48.1251 146.332 48.309 145.699 48.309C145.021 48.309 144.524 48.1251 144.117 47.7113C143.71 47.2515 143.484 46.7458 143.484 46.1021Z" fill="#0D3AA9"/>
<path d="M164.955 32.9985C165.452 33.8721 166.22 34.5157 167.396 34.9755C168.526 35.4353 169.836 35.6652 171.328 35.6652H171.961C172.006 35.8031 172.097 35.987 172.142 36.2169C172.187 36.4008 172.187 36.6767 172.187 36.9526C172.187 37.5043 172.051 37.9641 171.69 38.3319C171.328 38.6537 170.786 38.8376 170.108 38.8376C169.61 38.8376 169.158 38.7917 168.706 38.7457L167.124 42.6538C166.582 42.3319 165.994 42.102 165.361 41.9181C164.729 41.7342 164.096 41.5963 163.418 41.5963C162.74 41.5963 162.152 41.7342 161.655 42.0101C161.112 42.2859 160.796 42.6538 160.615 43.1135C161.067 43.8492 161.7 44.4469 162.604 44.8607C163.508 45.3205 164.593 45.5044 165.813 45.5044C166.944 45.5044 167.938 45.3664 168.752 45.0446C169.565 44.7228 170.243 44.3549 170.786 43.9411C171.147 44.0791 171.509 44.309 171.78 44.6308C172.051 44.9986 172.187 45.3664 172.187 45.7802C172.187 46.1021 172.097 46.4239 171.961 46.7458C171.825 47.0216 171.645 47.2975 171.328 47.5274C170.786 47.9872 170.062 48.355 169.068 48.6308C168.074 48.9067 166.898 49.0446 165.542 49.0446C164.231 49.0446 163.101 48.9067 162.062 48.5849C160.977 48.263 160.073 47.8492 159.259 47.2975C158.491 46.7458 157.813 46.1021 157.27 45.4124C156.728 44.6768 156.366 43.8952 156.095 43.0676C156.547 41.5963 157.406 40.4928 158.581 39.6192C159.802 38.7917 161.158 38.3779 162.695 38.3779C163.101 38.3779 163.463 38.3779 163.825 38.4698C164.186 38.5618 164.503 38.6537 164.774 38.7457L165.09 37.7801C162.74 36.7686 161.158 35.2054 160.344 32.9985H155.733C155.281 32.9985 154.965 32.8606 154.739 32.5847C154.558 32.2628 154.468 31.895 154.468 31.3433C154.468 31.1134 154.513 30.8835 154.558 30.5617C154.603 30.2398 154.694 30.0099 154.784 29.7801H172.955C173.407 29.7801 173.724 29.964 173.95 30.2398C174.131 30.5157 174.221 30.8835 174.221 31.4353C174.221 31.6651 174.176 31.941 174.131 32.2628C174.04 32.5847 173.995 32.8146 173.95 32.9985H164.955Z" fill="#0D3AA9"/>
<path d="M177.703 48.6785C176.934 48.6785 176.347 48.5405 175.94 48.2647C175.533 47.9888 175.307 47.4371 175.307 46.6095V33.0001H173.634C173.182 33.0001 172.866 32.8622 172.685 32.5863C172.504 32.3105 172.414 31.8967 172.414 31.3909C172.414 31.161 172.414 30.8852 172.504 30.5633C172.55 30.2415 172.595 30.0116 172.685 29.7817H175.352V27.2529C175.352 26.3794 175.126 25.6897 174.674 25.2299C174.222 24.7702 173.68 24.5403 172.956 24.5403C172.188 24.5403 171.691 24.7702 171.329 25.2299C171.013 25.6897 170.832 26.1955 170.832 26.7472C170.832 26.9311 170.832 27.161 170.832 27.4369C170.832 27.6667 170.877 27.8966 170.877 28.0346C170.651 28.2185 170.38 28.3104 170.018 28.4484C169.611 28.5403 169.205 28.6323 168.753 28.6323C168.075 28.6323 167.487 28.4024 167.08 27.9886C166.628 27.5748 166.447 26.8851 166.447 25.9656C166.447 25.3219 166.583 24.6782 166.854 24.0805C167.125 23.5288 167.532 22.977 168.075 22.5173C168.662 22.0575 169.34 21.6897 170.154 21.4138C170.967 21.1379 171.872 21 172.956 21C175.036 21 176.663 21.5517 177.838 22.6552C179.013 23.7127 179.601 25.2759 179.601 27.2529V29.7817H181.5C181.952 29.7817 182.268 29.9656 182.449 30.2415C182.675 30.5173 182.765 30.8852 182.765 31.4369C182.765 31.6668 182.72 31.9426 182.675 32.2645C182.63 32.5863 182.539 32.8162 182.449 33.0001H179.601V48.4486C179.42 48.4486 179.149 48.5405 178.787 48.5865C178.426 48.6325 178.064 48.6785 177.703 48.6785Z" fill="#0D3AA9"/>
</svg>
