<svg width="192" height="70" viewBox="0 0 192 70" fill="none" xmlns="http://www.w3.org/2000/svg">
<rect width="192" height="70" fill="white"/>
<path d="M192 0H0V70H192V0Z" fill="white"/>
<path d="M59.1385 29.1035C60.5868 29.1035 61.311 29.8277 61.311 31.2414V41.8277H70.4489V29.3449C70.7592 29.2759 71.1041 29.207 71.4834 29.1725C71.8282 29.138 72.2075 29.1035 72.5523 29.1035C73.9661 29.1035 74.6903 29.8277 74.6903 31.2414V43.138C74.6903 44.5518 73.9661 45.2414 72.4834 45.2414H59.2075C57.7937 45.2414 57.0696 44.5518 57.0696 43.138V29.3449C57.3799 29.2759 57.7248 29.207 58.0696 29.1725C58.4489 29.138 58.7937 29.1035 59.1385 29.1035Z" fill="#0D3AA9"/>
<path d="M94.172 29.2427C94.4133 29.8289 94.5168 30.3462 94.5168 30.8634C94.5168 31.4152 94.3789 31.8289 94.0685 32.1048C93.7582 32.4152 93.2754 32.5531 92.5858 32.5531H91.2409V45.1393C90.6202 45.3117 89.9651 45.3807 89.2754 45.3807C87.8271 45.3807 87.103 44.691 87.103 43.2772V32.5186H82.8616V45.1393C82.5513 45.2427 82.2064 45.3117 81.8616 45.3462C81.5513 45.3807 81.2064 45.3807 80.8961 45.3807C79.4478 45.3807 78.6892 44.691 78.6892 43.2772V31.76C78.6892 30.8289 78.9306 30.2083 79.3444 29.8289C79.7927 29.4496 80.3444 29.2427 80.9996 29.2427H94.172Z" fill="#0D3AA9"/>
<path d="M105.035 28.9334C106.483 28.9334 107.759 29.1403 108.932 29.5541C110.104 29.9679 111.104 30.5196 111.932 31.2783C112.759 32.0369 113.38 32.9334 113.863 34.0024C114.311 35.0369 114.518 36.2093 114.518 37.4852C114.518 38.3472 114.449 39.1748 114.242 39.9679C114.035 40.7955 113.759 41.4507 113.449 41.9334H119.656C118.725 41.0714 117.966 40.0369 117.38 38.8989C116.828 37.7265 116.518 36.4852 116.518 35.1058C116.518 34.2438 116.69 33.4507 116.966 32.7265C117.276 32.0024 117.69 31.3817 118.207 30.8645C118.759 30.3472 119.414 29.9334 120.173 29.6231C120.932 29.3127 121.794 29.1403 122.725 29.1058C122.414 28.5541 122.276 27.9679 122.276 27.2438C122.276 26.3472 122.449 25.5541 122.828 24.7955C123.173 24.0714 123.69 23.4162 124.345 22.8989C125.001 22.3817 125.794 21.9679 126.725 21.6921C127.656 21.4162 128.69 21.2783 129.828 21.2783C131.138 21.2783 132.276 21.4852 133.345 21.8645C134.414 22.2783 135.311 22.83 136.035 23.5541C136.794 24.2783 137.345 25.1748 137.759 26.2093C138.138 27.2093 138.345 28.3817 138.345 29.6576V45.1403C138.035 45.2438 137.725 45.3127 137.38 45.3472C137.035 45.3817 136.725 45.3817 136.414 45.3817C134.932 45.3817 134.173 44.6921 134.173 43.2438V29.7955C134.173 28.1403 133.794 26.8989 133.035 26.0024C132.276 25.1403 131.207 24.6921 129.759 24.6921C128.69 24.6921 127.828 24.9679 127.173 25.5541C126.552 26.1748 126.207 26.9334 126.207 27.8989C126.207 28.4162 126.276 28.83 126.414 29.2093C126.552 29.5886 126.759 29.9679 127.001 30.3127C127.759 30.7955 128.311 31.4852 128.725 32.3472C129.138 33.2093 129.345 34.1403 129.345 35.1748C129.345 36.3817 129.276 37.5541 129.104 38.6921C128.966 39.83 128.794 40.9334 128.621 41.9334H132.001C132.207 42.5196 132.345 43.0714 132.345 43.5886C132.345 44.1058 132.207 44.5541 131.897 44.83C131.621 45.1058 131.138 45.2438 130.414 45.2438H128.104L126.932 51.761C126.449 51.9679 125.897 52.0714 125.242 52.0714C124.587 52.0714 124.069 51.9334 123.69 51.6576C123.311 51.3817 123.138 50.8989 123.138 50.2438C123.138 50.0714 123.138 49.8645 123.173 49.6921C123.207 49.4852 123.242 49.2438 123.311 48.9679L124.104 45.2438H112.138C111.276 45.2438 110.587 45.0024 110.069 44.4852C109.552 43.9679 109.242 43.2783 109.138 42.3817C109.518 41.7955 109.794 41.1403 110.001 40.3817C110.207 39.6576 110.311 38.83 110.311 37.9334C110.311 36.2093 109.828 34.83 108.863 33.83C107.897 32.8645 106.552 32.3472 104.863 32.3472C103.276 32.3472 102.001 32.761 101.035 33.5541C100.069 34.3472 99.518 35.4162 99.414 36.7955C99.759 36.3817 100.207 36.0369 100.759 35.7955C101.276 35.5196 101.863 35.3817 102.552 35.3817C103.276 35.3817 103.966 35.5196 104.587 35.761C105.207 36.0024 105.725 36.3127 106.173 36.761C106.587 37.2093 106.932 37.7265 107.173 38.3472C107.414 38.9334 107.518 39.6231 107.518 40.3472C107.518 41.1058 107.38 41.7955 107.138 42.4507C106.863 43.0714 106.483 43.6231 106.001 44.0714C105.483 44.5541 104.897 44.8989 104.207 45.1403C103.552 45.4162 102.794 45.5196 101.966 45.5196C101.001 45.5196 100.138 45.3472 99.345 45.0024C98.587 44.6231 97.932 44.1403 97.38 43.4852C96.828 42.83 96.414 42.0024 96.104 41.0714C95.8281 40.1403 95.6902 39.1058 95.6902 37.9334C95.6902 36.5541 95.8971 35.3127 96.345 34.2093C96.759 33.1058 97.38 32.1748 98.207 31.3817C99.001 30.5886 100.001 30.0024 101.138 29.5886C102.311 29.1403 103.621 28.9334 105.035 28.9334ZM125.173 35.4507C125.173 34.4507 125.001 33.6921 124.587 33.1748C124.207 32.6231 123.656 32.3817 122.932 32.3817C122.276 32.3817 121.725 32.6576 121.345 33.1748C120.932 33.6921 120.759 34.4507 120.759 35.3817C120.759 36.8645 121.069 38.1748 121.759 39.2438C122.449 40.3127 123.345 41.2783 124.483 42.1403C124.69 41.1058 124.863 40.0369 125.001 38.9679C125.104 37.8645 125.173 36.6921 125.173 35.4507ZM101.794 38.3817C101.242 38.3817 100.759 38.5541 100.414 38.9334C100.035 39.2783 99.863 39.761 99.863 40.3472C99.863 40.9334 100.035 41.4162 100.38 41.7955C100.759 42.1748 101.207 42.3472 101.794 42.3472C102.38 42.3472 102.863 42.1748 103.207 41.7955C103.552 41.4162 103.725 40.9334 103.725 40.3472C103.725 39.761 103.552 39.2783 103.207 38.9334C102.863 38.5541 102.38 38.3817 101.794 38.3817Z" fill="#0D3AA9"/>
<path d="M152.483 28.931C154.104 28.931 155.552 29.1379 156.828 29.5862C158.138 30 159.207 30.4828 160.138 31.0345C161 30.4828 162 30.0345 163.138 29.7241C164.276 29.4138 165.448 29.2414 166.621 29.2414H168.759C168.552 28.8276 168.379 28.4138 168.276 27.931C168.138 27.4828 168.069 26.9655 168.069 26.4138C168.069 25.6207 168.241 24.8966 168.552 24.2414C168.897 23.5517 169.345 23 169.931 22.5172C170.517 22.0345 171.241 21.6897 172.069 21.4138C172.931 21.1379 173.862 21 174.897 21C176.035 21 177.069 21.2069 178.035 21.5517C179 21.8966 179.828 22.4138 180.517 23.1034C181.207 23.7586 181.759 24.5517 182.138 25.5172C182.517 26.4483 182.724 27.5172 182.724 28.6897V45.1379C182.414 45.2414 182.069 45.3103 181.724 45.3448C181.414 45.3793 181.069 45.3793 180.759 45.3793C179.276 45.3793 178.552 44.6552 178.552 43.2414V28.8276C178.552 27.3793 178.241 26.3103 177.621 25.5517C177 24.8276 176.138 24.4483 175.035 24.4483C174.172 24.4483 173.483 24.6897 172.966 25.1379C172.448 25.6207 172.207 26.2414 172.207 27.0345C172.207 27.8966 172.414 28.6207 172.862 29.2414H176.379C176.517 29.5172 176.621 29.7931 176.655 30.069C176.69 30.3448 176.724 30.5862 176.724 30.8621C176.724 31.4138 176.586 31.8276 176.276 32.1034C176 32.4138 175.483 32.5517 174.759 32.5517H173.172V45.1379C172.552 45.3103 171.897 45.3793 171.207 45.3793C169.759 45.3793 169.035 44.6897 169.035 43.2414V32.5172H166.104C165.552 32.5172 165.069 32.5517 164.621 32.6207C164.207 32.6897 163.793 32.7586 163.483 32.8966C164.345 33.5172 165.069 34.4138 165.655 35.5172C166.241 36.6207 166.517 37.8965 166.517 39.2759C166.517 41.2069 166 42.7241 164.966 43.8621C163.966 44.9655 162.517 45.5172 160.655 45.5172C158.759 45.5172 157.31 44.9655 156.276 43.8621C155.276 42.7241 154.759 41.2069 154.759 39.2759C154.759 38 155 36.8276 155.483 35.7931C155.966 34.7241 156.552 33.8621 157.276 33.2069C156.655 32.931 155.931 32.7241 155.172 32.5862C154.379 32.4138 153.517 32.3448 152.552 32.3448C150.552 32.3448 148.931 32.7241 147.69 33.4483C146.448 34.1724 145.655 35.2069 145.31 36.5172C145.655 36.1724 146.069 35.8966 146.552 35.6897C147.035 35.4828 147.586 35.3793 148.207 35.3793C148.931 35.3793 149.621 35.5172 150.241 35.7586C150.862 36 151.379 36.3103 151.828 36.7586C152.241 37.2069 152.586 37.7241 152.828 38.3448C153.069 38.931 153.172 39.6207 153.172 40.3448C153.172 41.1034 153.069 41.7931 152.793 42.4483C152.517 43.069 152.138 43.6207 151.655 44.069C151.138 44.5517 150.552 44.8965 149.897 45.1379C149.207 45.4138 148.448 45.5172 147.621 45.5172C146.655 45.5172 145.793 45.3793 145.035 45.0345C144.241 44.6897 143.586 44.2414 143.069 43.5862C142.517 42.9655 142.104 42.2069 141.828 41.3448C141.552 40.4483 141.379 39.4483 141.379 38.3448C141.379 36.8966 141.655 35.6207 142.172 34.4483C142.69 33.3103 143.448 32.3103 144.414 31.4828C145.379 30.6897 146.552 30.0345 147.897 29.5862C149.276 29.1379 150.793 28.931 152.483 28.931ZM158.793 39.2069C158.793 40.2069 158.966 40.9655 159.276 41.5172C159.586 42.0345 160.035 42.3103 160.655 42.3103C161.207 42.3103 161.621 42.069 161.966 41.5172C162.276 41 162.448 40.2414 162.448 39.2069C162.448 38.1034 162.276 37.1034 161.931 36.2759C161.621 35.4828 161.172 34.8276 160.621 34.4138C160.069 34.8276 159.621 35.4828 159.31 36.2759C158.966 37.1034 158.793 38.1034 158.793 39.2069ZM147.448 38.3793C146.862 38.3793 146.414 38.5517 146.035 38.931C145.69 39.2759 145.517 39.7586 145.517 40.3448C145.517 40.931 145.69 41.4138 146.035 41.7931C146.414 42.1724 146.862 42.3448 147.448 42.3448C148.035 42.3448 148.517 42.1724 148.862 41.7931C149.207 41.4138 149.379 40.9655 149.379 40.3793C149.379 39.7586 149.207 39.2759 148.862 38.931C148.517 38.5517 148.035 38.3793 147.448 38.3793Z" fill="#0D3AA9"/>
</svg>
