<svg width="192" height="70" viewBox="0 0 192 70" fill="none" xmlns="http://www.w3.org/2000/svg">
<rect width="192" height="70" fill="white"/>
<path d="M192 0H0V70H192V0Z" fill="white"/>
<path d="M171.347 40.7473C171.347 40.08 171.465 39.4912 171.7 38.9416C171.936 38.392 172.25 37.8817 172.682 37.4892C173.074 37.0966 173.585 36.7826 174.173 36.547C174.801 36.3508 175.469 36.233 176.175 36.233C176.725 36.233 177.235 36.3115 177.667 36.4685C178.099 36.6255 178.531 36.8218 178.884 37.1359V37.0181C178.884 35.1339 178.609 33.7207 177.981 32.7785C177.392 31.7972 176.529 31.3261 175.469 31.3261C174.723 31.3261 174.056 31.5224 173.506 31.9542C172.956 32.386 172.642 33.1711 172.642 34.231V34.702C172.211 35.0161 171.622 35.1731 170.837 35.1731C170.052 35.1731 169.463 35.0161 169.031 34.702V33.7599C169.031 33.0141 168.835 32.4645 168.364 31.9934C167.932 31.5616 167.304 31.3654 166.479 31.3654C165.655 31.3654 165.027 31.5616 164.634 31.9149C164.203 32.3075 163.967 32.7785 163.967 33.3281C163.967 33.8384 164.124 34.2702 164.477 34.6235C164.831 35.0161 165.341 35.2124 166.048 35.2516H167.225C167.343 35.4479 167.421 35.6442 167.5 35.8797C167.578 36.1152 167.657 36.4293 167.657 36.7433C167.657 37.0574 167.578 37.3321 167.5 37.5677C167.421 37.8425 167.343 38.0387 167.225 38.1957H165.969C165.184 38.1957 164.595 38.392 164.242 38.7453C163.849 39.0986 163.653 39.5697 163.653 40.1585C163.653 40.7473 163.888 41.1791 164.281 41.5324C164.674 41.8465 165.223 42.0035 165.812 42.0035C166.362 42.0035 166.793 41.925 167.147 41.768C167.5 41.6109 167.814 41.4539 168.05 41.2576C168.285 41.4147 168.481 41.6502 168.678 41.925C168.874 42.1998 168.992 42.5531 168.992 42.9064C168.992 43.5737 168.678 44.1233 168.05 44.5551C167.382 44.9869 166.479 45.2224 165.223 45.2224C164.438 45.2224 163.692 45.1047 163.025 44.8691C162.358 44.6336 161.808 44.3195 161.337 43.927C160.866 43.4952 160.473 42.9849 160.238 42.396C159.963 41.8465 159.845 41.1791 159.845 40.4333C159.845 39.6089 160.041 38.8631 160.473 38.1957C160.866 37.5677 161.494 37.0574 162.279 36.6648C161.572 36.2722 161.023 35.7619 160.67 35.1339C160.277 34.545 160.12 33.8384 160.12 33.0926C160.12 31.6401 160.63 30.4625 161.69 29.5596C162.711 28.6568 164.203 28.225 166.126 28.225C167.186 28.225 168.128 28.4212 168.952 28.8138C169.777 29.2063 170.444 29.7559 170.915 30.5017C171.425 29.7559 172.054 29.2063 172.878 28.8138C173.663 28.4212 174.566 28.225 175.587 28.225H175.979C176.411 28.0679 176.764 27.8324 177.078 27.5184C177.392 27.2043 177.628 26.7725 177.785 26.1837C177.196 26.5762 176.45 26.7725 175.587 26.7725C175.037 26.7725 174.527 26.694 174.056 26.537C173.585 26.38 173.153 26.1444 172.799 25.8304C172.446 25.5556 172.171 25.1631 171.936 24.692C171.74 24.2209 171.622 23.6714 171.622 23.0825C171.622 22.4937 171.7 21.9834 171.936 21.4731C172.132 21.002 172.407 20.5702 172.799 20.1777C173.192 19.8244 173.663 19.5496 174.173 19.314C174.723 19.1178 175.351 19 176.058 19C176.803 19 177.471 19.1178 178.099 19.3926C178.688 19.6673 179.237 20.0206 179.669 20.5309C180.062 21.002 180.415 21.5908 180.65 22.2582C180.886 22.9648 181.043 23.7106 181.043 24.5742C181.043 25.6341 180.847 26.537 180.533 27.2828C180.219 28.0287 179.787 28.6568 179.198 29.1278C180.297 29.7559 181.121 30.7373 181.75 32.0327C182.378 33.3281 182.692 34.9768 182.692 37.0181C182.692 39.6874 182.221 41.7287 181.279 43.1419C180.297 44.5551 178.805 45.3009 176.803 45.3402H176.646C175.822 45.3402 175.076 45.2224 174.448 44.9869C173.781 44.7514 173.192 44.4373 172.76 44.0055C172.289 43.613 171.936 43.1026 171.7 42.5531C171.465 42.0035 171.347 41.3754 171.347 40.7473ZM176.686 42.3568C177.157 42.3568 177.549 42.1998 177.903 41.8857C178.217 41.5717 178.374 41.1791 178.374 40.6296C178.374 40.08 178.217 39.6874 177.903 39.3734C177.589 39.0986 177.157 38.9416 176.646 38.9416C176.175 38.9416 175.783 39.0986 175.429 39.3734C175.076 39.6874 174.919 40.1193 174.919 40.6296C174.919 41.2184 175.115 41.6502 175.469 41.925C175.822 42.1998 176.215 42.3568 176.686 42.3568ZM176.215 24.4172C176.646 24.4172 177 24.2994 177.274 24.0247C177.51 23.7891 177.667 23.4358 177.667 23.004C177.667 22.5722 177.51 22.2189 177.235 21.9441C176.96 21.6693 176.607 21.5516 176.215 21.5516C175.783 21.5516 175.429 21.6693 175.155 21.9441C174.88 22.2189 174.762 22.533 174.762 22.9648C174.762 23.3966 174.88 23.7499 175.155 24.0247C175.429 24.2994 175.783 24.4172 176.215 24.4172Z" fill="#0D3AA9"/>
<path d="M140.218 26.7725C139.668 26.7725 139.197 26.694 138.687 26.537C138.216 26.38 137.823 26.1444 137.43 25.8304C137.077 25.5556 136.802 25.1631 136.567 24.692C136.371 24.2209 136.253 23.6714 136.253 23.0825C136.253 22.4937 136.371 21.9834 136.567 21.4731C136.763 21.002 137.077 20.5702 137.43 20.1777C137.823 19.8244 138.294 19.5496 138.844 19.314C139.354 19.1178 139.982 19 140.689 19H140.806C141.552 19.0393 142.22 19.157 142.808 19.4318C143.397 19.7066 143.908 20.0991 144.339 20.5702C144.732 21.0413 145.085 21.6301 145.321 22.2974C145.556 22.9648 145.674 23.7499 145.674 24.5742C145.674 25.5949 145.517 26.4977 145.242 27.2828C144.967 28.0679 144.575 28.7353 144.065 29.2848C143.554 29.7952 142.965 30.1877 142.259 30.4625C141.552 30.7373 140.767 30.8943 139.904 30.8943C138.883 30.8943 138.098 30.698 137.509 30.3447C136.959 29.9914 136.685 29.5596 136.685 29.0101C136.685 28.7353 136.724 28.4997 136.881 28.2642C136.999 28.0287 137.156 27.8324 137.391 27.6754C137.627 27.8324 137.941 27.9894 138.333 28.1072C138.726 28.2642 139.158 28.3427 139.668 28.3427C140.335 28.3427 140.885 28.1857 141.395 27.8324C141.866 27.5184 142.22 26.9688 142.455 26.1837C141.827 26.5762 141.12 26.7725 140.218 26.7725ZM140.846 24.4172C141.277 24.4172 141.631 24.2994 141.906 24.0247C142.18 23.7891 142.298 23.4358 142.298 23.004C142.298 22.5722 142.141 22.2189 141.866 21.9441C141.592 21.6693 141.238 21.5516 140.846 21.5516C140.414 21.5516 140.061 21.6693 139.786 21.9441C139.511 22.2189 139.393 22.533 139.393 22.9648C139.393 23.3966 139.511 23.7499 139.786 24.0247C140.061 24.2994 140.414 24.4172 140.846 24.4172ZM156.234 37.9995C156.234 38.6668 156.194 39.2556 156.116 39.8052C155.998 40.3548 155.88 40.8651 155.723 41.3362C155.841 42.082 156.155 42.5923 156.705 42.9064C157.215 43.2204 157.922 43.3774 158.785 43.3774C158.903 43.7307 158.942 44.084 158.942 44.4766C158.942 45.6935 158.314 46.3216 157.019 46.3216C156.665 46.3216 156.351 46.2823 156.037 46.2038C155.723 46.1253 155.409 46.0075 155.095 45.8112C154.821 45.6542 154.506 45.3794 154.271 45.1047C153.996 44.7906 153.761 44.4373 153.604 44.0055C152.504 44.8691 151.131 45.3402 149.482 45.3402C148.422 45.3402 147.519 45.1439 146.773 44.7906C146.027 44.3981 145.399 43.927 144.928 43.3774C144.457 43.927 143.868 44.3981 143.122 44.7906C142.377 45.1439 141.513 45.3402 140.492 45.3402C139.629 45.3402 138.844 45.1832 138.176 44.9084C137.47 44.6336 136.881 44.2803 136.41 43.8092C135.9 43.3382 135.546 42.7886 135.271 42.1605C134.997 41.4932 134.879 40.7866 134.879 40.0407C134.879 39.2949 134.997 38.5883 135.271 37.921C135.546 37.2929 135.9 36.7041 136.41 36.233C136.92 35.7619 137.548 35.3694 138.255 35.1339C138.961 34.8591 139.747 34.702 140.649 34.702C142.337 34.702 143.633 35.1339 144.575 35.9975C145.517 36.8611 146.145 37.9995 146.42 39.3734C146.616 40.2763 146.93 40.9436 147.441 41.4147C147.951 41.8857 148.579 42.1213 149.286 42.1213C150.149 42.1213 150.895 41.768 151.445 41.1399C152.033 40.4725 152.308 39.4519 152.308 37.9995C152.308 36.9396 152.19 35.9975 151.916 35.2124C151.641 34.388 151.288 33.6814 150.816 33.1318C150.306 32.543 149.757 32.072 149.089 31.7187C148.461 31.3654 147.715 31.1691 146.93 31.0513C146.93 30.9336 146.891 30.7765 146.891 30.6195C146.852 30.4625 146.852 30.3055 146.852 30.227C146.852 29.5989 147.048 29.1278 147.401 28.7745C147.794 28.4212 148.304 28.225 149.011 28.225C149.757 28.225 150.581 28.4605 151.405 28.8923C152.269 29.2848 153.054 29.9129 153.761 30.7373C154.467 31.5616 155.095 32.5823 155.527 33.7992C155.998 35.0161 156.234 36.4293 156.234 37.9995ZM138.49 40.0407C138.49 40.7473 138.687 41.2969 139.079 41.6502C139.472 42.0428 139.982 42.239 140.649 42.239C141.317 42.239 141.827 42.0428 142.22 41.6502C142.651 41.2969 142.848 40.7473 142.848 40.0407C142.848 39.3341 142.651 38.7846 142.22 38.3528C141.827 37.9602 141.317 37.7639 140.649 37.7639C139.982 37.7639 139.472 37.9602 139.079 38.3528C138.687 38.7846 138.49 39.3341 138.49 40.0407Z" fill="#0D3AA9"/>
<path d="M118.51 31.1677C119.177 31.9136 119.727 32.8165 120.198 33.8763C120.63 34.9755 120.865 36.2709 120.865 37.8411C120.865 39.058 120.708 40.1179 120.394 41.0208C120.08 41.9629 119.609 42.748 119.02 43.3761C118.471 44.0434 117.764 44.5145 116.94 44.8285C116.115 45.1426 115.212 45.3388 114.231 45.3388C113.21 45.3388 112.307 45.1426 111.522 44.7893C110.776 44.436 110.148 43.9649 109.638 43.3368C109.167 43.9649 108.5 44.436 107.715 44.7893C106.929 45.1426 105.987 45.3388 104.967 45.3388C104.064 45.3388 103.279 45.1818 102.533 44.9463C101.787 44.7107 101.159 44.3575 100.649 43.9256C100.099 43.4546 99.7066 42.9443 99.4318 42.3554C99.1178 41.7274 99 41.06 99 40.3534C99 39.3328 99.2355 38.4692 99.7851 37.7233C100.295 37.0167 101.041 36.3887 102.062 35.8391L103.946 34.8577C105.202 34.2296 105.83 33.4838 105.83 32.5809C105.83 32.1491 105.673 31.7958 105.399 31.521C105.124 31.2462 104.771 31.0892 104.26 31.0892C103.75 31.0892 103.318 31.2462 103.082 31.5603C102.808 31.8743 102.69 32.2276 102.69 32.6594C102.69 32.895 102.729 33.0912 102.769 33.3268C102.808 33.523 102.886 33.6801 103.004 33.8371C102.847 34.0334 102.612 34.2296 102.258 34.3867C101.944 34.5044 101.591 34.5829 101.238 34.5829C100.61 34.5829 100.06 34.3867 99.6673 33.9548C99.2355 33.5623 99.0393 32.9735 99.0393 32.1884C99.0393 31.5603 99.1963 30.9715 99.4711 30.5004C99.7458 29.9901 100.099 29.5975 100.57 29.2442C101.041 28.9302 101.591 28.6554 102.219 28.4984C102.847 28.3414 103.475 28.2236 104.182 28.2236C104.888 28.2236 105.556 28.3414 106.184 28.5376C106.812 28.7732 107.361 29.048 107.832 29.4013C108.343 29.7938 108.696 30.2649 108.971 30.8144C109.246 31.364 109.403 31.9528 109.403 32.6202C109.403 33.6801 109.128 34.5437 108.618 35.2895C108.107 36.0354 107.401 36.6242 106.498 37.1345L104.653 38.1159C104.064 38.4299 103.632 38.744 103.357 39.058C103.043 39.3721 102.925 39.7646 102.925 40.2357C102.925 40.8245 103.122 41.2563 103.554 41.6096C103.985 41.9629 104.574 42.1199 105.281 42.1199C106.027 42.1199 106.616 41.9236 107.087 41.5311C107.558 41.1385 107.793 40.589 107.793 39.9216V38.6262C108.029 38.4692 108.264 38.3514 108.578 38.2337C108.892 38.1551 109.246 38.1159 109.638 38.1159C110.07 38.1159 110.423 38.1551 110.737 38.2337C111.051 38.3514 111.326 38.4692 111.522 38.6262V39.8039C111.522 40.5105 111.758 41.06 112.229 41.4918C112.661 41.8844 113.25 42.1199 113.956 42.1199C114.859 42.1199 115.605 41.7274 116.115 40.9815C116.625 40.2749 116.9 39.215 116.9 37.8018C116.9 36.742 116.783 35.7998 116.468 34.9755C116.194 34.1511 115.84 33.4838 115.369 32.895C114.938 32.3061 114.388 31.8351 113.838 31.521C113.25 31.1677 112.661 30.9322 112.072 30.8537C112.033 30.7359 112.033 30.6574 112.033 30.5397C112.033 30.4611 112.033 30.3434 112.033 30.2649C112.033 29.676 112.19 29.1657 112.543 28.8124C112.857 28.4199 113.407 28.2236 114.113 28.2236H125.497C126.714 28.2236 127.813 28.4199 128.755 28.8124C129.697 29.205 130.522 29.7153 131.15 30.3826C131.817 31.0892 132.288 31.8743 132.642 32.7772C132.995 33.7193 133.152 34.7007 133.152 35.7606C133.152 36.6635 133.034 37.4486 132.759 38.1551C132.524 38.8225 132.171 39.3721 131.7 39.8431C131.268 40.3142 130.718 40.6675 130.129 40.903C129.501 41.0993 128.834 41.217 128.088 41.217C127.381 41.217 126.753 41.1385 126.165 40.9423C125.576 40.7067 125.065 40.4319 124.634 40.0394C124.202 39.6468 123.848 39.1758 123.613 38.6262C123.377 38.0766 123.26 37.4878 123.26 36.8205C123.26 36.1924 123.377 35.6428 123.574 35.1325C123.77 34.6614 124.045 34.2296 124.398 33.8763C124.751 33.523 125.183 33.2483 125.693 33.052C126.165 32.8557 126.714 32.7379 127.264 32.7379C127.735 32.7379 128.167 32.8165 128.559 32.9735C128.912 33.0912 129.226 33.2875 129.501 33.4838C128.834 31.9136 127.499 31.1677 125.379 31.1677H118.51ZM126.596 36.742C126.596 37.2915 126.753 37.6841 127.067 37.9589C127.381 38.2337 127.735 38.3514 128.127 38.3514C128.559 38.3514 128.912 38.2337 129.226 37.9589C129.54 37.6841 129.697 37.2915 129.697 36.742C129.697 36.2316 129.54 35.8391 129.226 35.5643C128.912 35.3288 128.559 35.1718 128.127 35.1718C127.735 35.1718 127.381 35.3288 127.067 35.5643C126.753 35.8391 126.596 36.2316 126.596 36.742ZM109.638 50.5598C109.049 50.5598 108.578 50.3635 108.225 50.0102C107.872 49.6569 107.675 49.1858 107.675 48.597C107.675 48.0474 107.832 47.4979 108.068 46.9483C108.343 46.3987 108.657 45.9277 109.049 45.5351C109.167 45.4173 109.246 45.3388 109.363 45.2996C109.481 45.2211 109.56 45.2211 109.638 45.2211C109.756 45.2211 109.874 45.2211 109.952 45.2996C110.07 45.3388 110.148 45.4173 110.227 45.5351C110.659 45.9277 110.973 46.3987 111.248 46.9483C111.522 47.4979 111.64 48.0474 111.64 48.597C111.64 49.1858 111.444 49.6569 111.091 50.0102C110.737 50.3635 110.266 50.5598 109.638 50.5598Z" fill="#0D3AA9"/>
</svg>
