<?xml version="1.0" encoding="UTF-8"?><svg id="Layer_1" xmlns="http://www.w3.org/2000/svg" viewBox="0 0 289.29 258.43"><defs><style>.cls-1{fill:#e2aa03;}.cls-1,.cls-2,.cls-3,.cls-4,.cls-5,.cls-6,.cls-7,.cls-8,.cls-9,.cls-10,.cls-11,.cls-12,.cls-13,.cls-14,.cls-15,.cls-16,.cls-17,.cls-18,.cls-19,.cls-20,.cls-21,.cls-22,.cls-23,.cls-24,.cls-25,.cls-26{fill-rule:evenodd;}.cls-2{fill:#182d35;}.cls-3{fill:#ee776b;}.cls-27,.cls-19{fill:#6164ab;}.cls-4{fill:#fff;}.cls-5{fill:#f4a4a1;}.cls-28,.cls-23{fill:#ffd131;}.cls-6,.cls-29{fill:#ececec;}.cls-7{fill:#c8c8c8;}.cls-8{fill:#ddc27e;}.cls-9{fill:#d4d8d8;}.cls-10{fill:#eecd81;}.cls-11{fill:#a6a7a6;}.cls-12{fill:#e5e6e6;}.cls-13,.cls-30{fill:#2a434d;}.cls-14{fill:#a35750;}.cls-15{fill:#e9482b;}.cls-16{fill:#c46358;}.cls-17{fill:#f7b500;}.cls-18{fill:#f29182;}.cls-20{fill:#dddddc;}.cls-21{fill:#f197bb;}.cls-31,.cls-24{fill:#fdc21d;}.cls-32{fill:#292e88;font-family:ArialRoundedMTBold, 'Arial Rounded MT Bold';font-size:16.14px;stroke:#292e88;stroke-miterlimit:5;stroke-width:.32px;}.cls-22{fill:#ffe092;}.cls-25{fill:#13282e;}.cls-26{fill:#365a65;}</style></defs><path class="cls-6" d="M22.99,133.51c1.12-2.08,3.71-2.86,5.79-1.75,2.08,1.12,2.86,3.71,1.75,5.79-1.12,2.08-3.71,2.86-5.79,1.75-2.08-1.12-2.87-3.71-1.75-5.79h0Zm-1.31,8.24c.4-.25,.9-.23,1.3,0,.11,.07,.22,.13,.33,.19,.11,.06,.23,.12,.35,.17,.42,.2,.71,.61,.73,1.08l.05,1.6,5.22-.16-.05-1.6c-.01-.47,.24-.9,.66-1.13,.23-.12,.45-.26,.66-.41,.38-.27,.88-.3,1.3-.08l1.41,.76,2.47-4.6-1.41-.76c-.41-.22-.66-.66-.65-1.13,0-.26,0-.52-.03-.78-.04-.47,.18-.92,.57-1.17l1.36-.85-2.75-4.44-1.37,.85c-.4,.25-.9,.23-1.3,0-.11-.07-.22-.13-.33-.19-.11-.06-.23-.12-.34-.17-.43-.2-.71-.61-.73-1.08l-.05-1.6-5.22,.16,.05,1.6c.02,.47-.24,.9-.65,1.13-.23,.12-.45,.26-.66,.41-.38,.27-.88,.31-1.3,.08l-1.41-.76-2.47,4.6,1.41,.76c.41,.22,.66,.66,.65,1.13,0,.26,0,.52,.02,.78,.04,.47-.18,.92-.58,1.17l-1.36,.84,2.75,4.44,1.36-.84Z"/><path class="cls-6" d="M218.77,63.03c0-1.65,1.34-3,3-3s2.99,1.34,2.99,3-1.34,2.99-2.99,2.99-3-1.34-3-2.99h0Zm1.92,5.52c.16-.29,.48-.44,.81-.43,.09,0,.18,0,.27,0s.18,0,.27,0c.33-.02,.64,.14,.8,.42l.56,.97,3.17-1.83-.56-.97c-.16-.29-.15-.64,.03-.91,.1-.15,.19-.31,.27-.47,.15-.29,.44-.48,.77-.48h1.12v-3.66h-1.12c-.33,0-.62-.19-.77-.48-.08-.16-.17-.32-.27-.47-.18-.28-.2-.63-.03-.91l.56-.97-3.17-1.83-.56,.98c-.16,.28-.48,.44-.8,.42-.09,0-.18,0-.27,0s-.18,0-.27,0c-.33,.02-.64-.14-.81-.43l-.56-.97-3.17,1.83,.56,.97c.16,.29,.15,.64-.03,.91-.1,.15-.19,.31-.27,.47-.15,.29-.44,.48-.77,.48h-1.12v3.66h1.12c.33,0,.62,.19,.77,.48,.08,.16,.17,.32,.27,.47,.18,.28,.2,.63,.03,.91l-.56,.97,3.17,1.83,.56-.97Z"/><path class="cls-6" d="M41.89,155.03c1.65,0,3,1.34,3,3s-1.34,2.99-3,2.99-2.99-1.34-2.99-2.99,1.34-3,2.99-3h0Zm-5.52,1.92c.29,.16,.44,.48,.43,.81,0,.09,0,.18,0,.27s0,.18,0,.27c.02,.33-.14,.64-.42,.8l-.97,.56,1.83,3.17,.97-.56c.29-.17,.64-.15,.91,.03,.15,.1,.31,.19,.47,.27,.29,.15,.48,.44,.48,.77v1.12h3.66v-1.12c0-.33,.19-.62,.48-.77,.16-.08,.32-.17,.47-.27,.28-.18,.63-.2,.91-.03l.97,.56,1.83-3.17-.98-.56c-.28-.16-.44-.48-.42-.8,0-.09,0-.18,0-.27s0-.18,0-.27c-.02-.33,.14-.64,.43-.81l.97-.56-1.83-3.17-.97,.56c-.29,.16-.64,.15-.91-.03-.15-.1-.31-.19-.47-.27-.29-.15-.48-.44-.48-.77v-1.12h-3.66v1.12c0,.33-.19,.62-.48,.77-.16,.08-.32,.17-.47,.27-.28,.18-.63,.2-.91,.03l-.97-.56-1.83,3.17,.97,.56Z"/><path class="cls-6" d="M191.93,191.21c0,5.44-4.41,9.85-9.85,9.85s-9.85-4.41-9.85-9.85,4.41-9.85,9.85-9.85,9.85,4.41,9.85,9.85Z"/><path class="cls-6" d="M130.31,70.41c0,5.44-4.41,9.85-9.85,9.85s-9.85-4.41-9.85-9.85,4.41-9.85,9.85-9.85,9.85,4.41,9.85,9.85Z"/><path class="cls-6" d="M85.73,130.2c0,2.32-1.88,4.2-4.2,4.2s-4.2-1.88-4.2-4.2,1.88-4.2,4.2-4.2,4.2,1.88,4.2,4.2Z"/><path class="cls-6" d="M251.51,130.8c0,2.32-1.88,4.2-4.2,4.2s-4.2-1.88-4.2-4.2,1.88-4.2,4.2-4.2,4.2,1.88,4.2,4.2Z"/><rect class="cls-29" x="106.68" y="108.11" width=".8" height="46.46" transform="translate(-26.7 235.35) rotate(-88.67)"/><rect class="cls-29" x="164.01" y="127.02" width=".8" height="69.05" transform="translate(-59.51 106.88) rotate(-30.78)"/><rect class="cls-29" x="133.57" y="70.53" width=".8" height="52.42" transform="translate(-28.55 66.83) rotate(-25.41)"/><rect class="cls-29" x="157.8" y="130.4" width="89.51" height=".8"/><path class="cls-6" d="M91.36,53.52c0,1.55-1.26,2.8-2.8,2.8s-2.8-1.25-2.8-2.8,1.25-2.8,2.8-2.8,2.8,1.25,2.8,2.8Z"/><path class="cls-6" d="M81.24,59.73c0,1.55-1.25,2.8-2.8,2.8s-2.8-1.25-2.8-2.8,1.25-2.8,2.8-2.8,2.8,1.25,2.8,2.8Z"/><path class="cls-6" d="M91.36,65.95c0,1.55-1.26,2.8-2.8,2.8s-2.8-1.25-2.8-2.8,1.25-2.8,2.8-2.8,2.8,1.25,2.8,2.8Z"/><polygon class="cls-6" points="88.34 66.6 77.68 59.72 88.35 53.17 88.77 53.86 79.19 59.74 88.78 65.93 88.34 66.6"/><rect class="cls-31" x="99.51" y="85.93" width="1.61" height="49.07" transform="translate(-38.77 164.51) rotate(-68.99)"/><rect class="cls-31" x="99.31" y="149.39" width="29.06" height="1.61" transform="translate(-61.11 80.12) rotate(-31.01)"/><rect class="cls-31" x="181.01" y="137.93" width="1.61" height="31.08" transform="translate(-35.08 251.27) rotate(-64.44)"/><rect class="cls-31" x="169.6" y="105.91" width="48.88" height="1.61" transform="translate(-25.07 74.59) rotate(-20.47)"/><rect class="cls-31" x="152.15" y="91.02" width="28.56" height="1.61" transform="translate(.13 183.87) rotate(-57.85)"/><ellipse class="cls-28" cx="146.75" cy="129.64" rx="45.14" ry="32.47"/><circle class="cls-27" cx="47.38" cy="89.27" r="28.36"/><path class="cls-24" d="M47.38,58.04c-17.22,0-31.23,14.01-31.23,31.23s14.01,31.23,31.23,31.23,31.23-14.01,31.23-31.23-14.01-31.23-31.23-31.23h0Zm0,64.07c-18.11,0-32.84-14.73-32.84-32.84s14.73-32.84,32.84-32.84,32.84,14.73,32.84,32.84-14.73,32.84-32.84,32.84Z"/><path class="cls-24" d="M246.12,54.18c-17.22,0-31.23,14.01-31.23,31.23s14.01,31.23,31.23,31.23,31.23-14.01,31.23-31.23-14.01-31.23-31.23-31.23h0Zm0,64.07c-18.11,0-32.84-14.73-32.84-32.84s14.73-32.84,32.84-32.84,32.84,14.73,32.84,32.84-14.73,32.84-32.84,32.84Z"/><path class="cls-24" d="M223.05,145.66c-17.22,0-31.23,14.01-31.23,31.23s14.01,31.23,31.23,31.23,31.23-14.01,31.23-31.23-14.01-31.23-31.23-31.23h0Zm0,64.07c-18.11,0-32.84-14.73-32.84-32.84s14.73-32.84,32.84-32.84,32.84,14.73,32.84,32.84-14.73,32.84-32.84,32.84Z"/><path class="cls-24" d="M73.93,142.95c-17.22,0-31.23,14.01-31.23,31.23s14.01,31.23,31.23,31.23,31.23-14.01,31.23-31.23-14.01-31.23-31.23-31.23h0Zm0,64.07c-18.11,0-32.84-14.73-32.84-32.84s14.73-32.84,32.84-32.84,32.84,14.73,32.84,32.84-14.73,32.84-32.84,32.84Z"/><path class="cls-19" d="M251.41,176.89c0,15.66-12.7,28.36-28.36,28.36s-28.36-12.7-28.36-28.36,12.7-28.36,28.36-28.36,28.36,12.7,28.36,28.36Z"/><path class="cls-24" d="M274.48,85.41c0,15.66-12.7,28.36-28.36,28.36s-28.36-12.7-28.36-28.36,12.7-28.36,28.36-28.36,28.36,12.7,28.36,28.36Z"/><path class="cls-22" d="M246.12,113.77c-9.48,0-17.88-4.66-23.03-11.81,2.86-.05,5.88-.3,9.38-1.31,.95-.28,2.02-1.73,3.11-3.82l1.49,1.81h0s3.41-9.42,5.5-16.92c.47-1.68,.86-3.25,1.14-4.61,.09-.42,.16-.82,.22-1.19,.15-.88,.24-1.68,.28-2.4,0-.09,0-.17,.01-.25h0c.01-.3,.01-.59,0-.86-.06-1.98-.64-3.09-1.75-3.09-.07,0-.14,0-.22,.01,1.12-.59,2.12-1.47,2.87-2.55,.75-1.09,1.04-3.59,.97-6.2h0c-.03-1.2-.14-2.43-.31-3.54,.11,0,.22,0,.33,0,15.66,0,28.36,12.7,28.36,28.36s-12.7,28.36-28.36,28.36h0Zm-19.66-24.52c.1,0,.18,0,.25,0,.31-.01,.81-.55,1.44-1.42l-.93-1.13s3.01-4.71,8.54-11.61c.06-.08,.13-.16,.2-.24h0c.21-.26,.42-.52,.64-.79,1.71-2.1,3.12-3.45,4.26-4.15-.58,.16-1.17,.25-1.75,.25-1.42,0-2.82-.5-3.99-1.62-1.45-1.39-2.28-4.73-2.54-8.04-8.82,4.81-14.8,14.16-14.8,24.92,0,1.17,.07,2.32,.21,3.44,.91,.04,1.83,.09,2.72,.13,2.56,.13,4.85,.27,5.78,.27Z"/><path class="cls-24" d="M102.29,174.19c0,15.66-12.7,28.36-28.36,28.36s-28.36-12.7-28.36-28.36,12.7-28.36,28.36-28.36,28.36,12.7,28.36,28.36Z"/><path class="cls-22" d="M73.93,202.55c-15.66,0-28.36-12.7-28.36-28.36s12.7-28.36,28.36-28.36,28.36,12.7,28.36,28.36c0,.41,0,.82-.03,1.23-2.37,.86-4.75,1.68-5.31,1.68-.03,0-.06,0-.07,0-.75-.2-12.46-7.39-17.19-10.33-1.26-.78-2.41-1.14-3.36-1.14-.81,0-1.46,.27-1.88,.76h0c-.2,.24-.35,.53-.44,.87-.31,1.22,.18,3.08,1.86,5.37,1.94,2.64,11.25,14.2,17.28,17.57,.97,.54,2.17,.84,3.52,.96-5.17,6.93-13.43,11.42-22.74,11.42Z"/><path class="cls-24" d="M193.49,70.94c0,7.54-6.11,13.65-13.65,13.65s-13.65-6.11-13.65-13.65,6.11-13.65,13.65-13.65,13.65,6.11,13.65,13.65Z"/><path class="cls-17" d="M179.84,84.59c-2.47,0-4.78-.66-6.78-1.8-.47-.27-.92-.56-1.35-.88-3.35-2.49-5.52-6.47-5.52-10.96,0-7.54,6.11-13.65,13.65-13.65s13.65,6.11,13.65,13.65-6.11,13.65-13.65,13.65Z"/><rect class="cls-31" x="145.94" y="155.98" width="1.61" height="32.27"/><path class="cls-24" d="M160.39,197.84c0,7.54-6.11,13.65-13.65,13.65s-13.65-6.11-13.65-13.65,6.11-13.65,13.65-13.65,13.65,6.11,13.65,13.65Z"/><path class="cls-17" d="M146.75,211.49c-7.54,0-13.65-6.11-13.65-13.65s6.11-13.65,13.65-13.65,13.65,6.11,13.65,13.65-6.11,13.65-13.65,13.65Z"/><path class="cls-4" d="M171.13,72.7c0,1.18,.92,2.15,2.08,2.24h12.72c1.46,0,2.64-1.18,2.64-2.63,0-1.37-1.05-2.5-2.39-2.63-.08-2.39-2.04-4.3-4.44-4.3-1.92,0-3.55,1.21-4.17,2.91-.36-.18-.76-.28-1.18-.28-1.4,0-2.55,1.09-2.63,2.48-.12-.02-.24-.03-.37-.03-1.24,0-2.25,1.01-2.25,2.25Z"/><path class="cls-4" d="M150.97,198.44c-.5,0-.91-.41-.91-.91s.41-.91,.91-.91,.91,.41,.91,.91-.41,.91-.91,.91h0Zm-4.07,0c-.51,0-.91-.41-.91-.91s.4-.91,.91-.91,.91,.41,.91,.91-.41,.91-.91,.91h0Zm-4.07,0c-.5,0-.91-.41-.91-.91s.41-.91,.91-.91,.91,.41,.91,.91-.4,.91-.91,.91h0Zm4.07-7.39c-4.85,0-8.78,2.9-8.78,6.48,0,1.02,.31,1.97,.87,2.83l-1.18,2.63,3.02-.77c1.58,1.11,3.7,1.8,6.05,1.8,4.85,0,8.77-2.9,8.77-6.48s-3.93-6.48-8.77-6.48Z"/><path class="cls-2" d="M230.33,170.54c0,.12-.08,.25-.2,.27-.29,.02-.64,.04-1.04,.07-.93-2.42-1.93-4.33-1.67-3.59,.38,1.08,.66,2.64,.65,3.65-.46,.03-1.51,.08-2.04,.1-.81-4.25-1.84-7.41-1.78-6.43,.26,3.93,.03,5.19-.24,6.54-4.93,.23-11.41,.47-16.09,.53-.54-2.35-1.02-4.9-1.1-4.72-.64,1.33-.81,3.26-.82,4.74-1.49,.01-2.68,0-3.41-.05,0,0-.35-1.98-.4-2.63-.14-1.66,.05-3.35,.52-4.95,.49-1.65,1.35-3.1,2.16-4.6l.02-.03h0c.56-1.05,.97-2.03,1.24-3.08v-.02c.2-.74,.33-1.51,.39-2.36,.22-2.9,1.85-5.42,4.58-6.19,5.15-4.86,10.32-2.82,11.88,.9,.15,.36,.3,.78,.44,1.23h0c.53,1.69,1,3.87,1.44,5.55h0v.03h0c.21,.81,.42,1.49,.61,1.95,1.3,3.03,4.28,4.75,4.83,13.09Z"/><path class="cls-2" d="M209.93,148.59c-1.79,.94-2.89,2.3-3.17,4.42-.16,1.24-.24,2.44-.72,3.61-.49,1.2-1.26,2.19-2.06,3.18-1.27,1.57-2.15,3.13-2.34,5.21-.2,2.11-.1,4.61,.62,6.58h.02c-.58-2-.6-4.77-.24-6.86,.39-2.3,1.69-3.75,3.02-5.5,1.06-1.39,1.73-2.93,1.96-4.7,.13-1.05,.12-2.14,.54-3.13,.5-1.18,1.51-1.93,2.5-2.6,.14-.09,0-.29-.13-.21Z"/><path class="cls-2" d="M228.5,160.7c-1.26-1.64-2.58-3.05-3.32-5.09-.68-1.86-1.06-3.83-1.75-5.68h-.05c1.06,3.31,1.27,6.64,3.4,9.42,1.16,1.51,2.32,2.9,3.08,4.71,.8,1.9,1.15,3.88,1.2,5.97,0,.07,.1,.07,.1,0,.32-3.38-.68-6.74-2.67-9.32Z"/><path class="cls-24" d="M194.89,204.39c.01-.08,.03-.16,.04-.24-.02,.1-.04,.2-.05,.3v-.06Z"/><path class="cls-24" d="M208.29,206.76s-.09,.05-.14,.07l-.02-.03h0s.1-.02,.14-.04h.02Z"/><path class="cls-18" d="M213.83,171.11c-8.38,8.5-18.92,26.36-16.96,29.99,2.19,4.03,13.86-7.87,13.81-8.57-.03-.53,4.07-11.38,7.19-19.27,3.11-7.89-1.97-4.24-4.04-2.14Z"/><path class="cls-23" d="M210.76,192.54c.36-1.16,5.94-15.47,7.54-20,1.6-4.53,.12-5.93-4.44-1.78-4.56,4.15-14.56,18-16.84,25.35-2.2,7.08,1.45,7.08,6.26,3.82,3.94-2.67,7.48-7.38,7.48-7.38Z"/><path class="cls-4" d="M202.47,197.84c-.16,0-.29,.13-.29,.29s.13,.29,.29,.29,.29-.13,.29-.29-.13-.29-.29-.29h0Zm-4.62,0c-.16,0-.29,.13-.29,.29s.13,.29,.29,.29,.29-.13,.29-.29-.13-.29-.29-.29h0Zm2.31,2.96c-.16,0-.29,.13-.29,.29s.13,.29,.29,.29,.29-.13,.29-.29-.13-.29-.29-.29h0Zm6.93-9.14c-.16,0-.29,.13-.29,.29s.13,.29,.29,.29,.29-.13,.29-.29-.13-.29-.29-.29h0Zm-4.62,0c-.16,0-.29,.13-.29,.29s.13,.29,.29,.29,.29-.13,.29-.29-.13-.29-.29-.29h0Zm2.31,2.96c-.16,0-.29,.13-.29,.29s.13,.29,.29,.29,.29-.13,.29-.29-.13-.29-.29-.29h0Zm-4.62,0c-.16,0-.29,.13-.29,.29s.13,.29,.29,.29,.29-.13,.29-.29-.13-.29-.29-.29h0Zm11.55-9.14c-.16,0-.29,.13-.29,.29s.13,.29,.29,.29,.29-.13,.29-.29-.13-.29-.29-.29h0Zm-4.62,0c-.16,0-.29,.13-.29,.29s.13,.29,.29,.29,.29-.13,.29-.29-.13-.29-.29-.29h0Zm-4.62,0c-.16,0-.29,.13-.29,.29s.13,.29,.29,.29,.29-.13,.29-.29-.13-.29-.29-.29h0Zm6.93,2.96c-.16,0-.29,.13-.29,.29s.13,.29,.29,.29,.29-.13,.29-.29-.13-.29-.29-.29h0Zm-4.62,0c-.16,0-.29,.13-.29,.29s.13,.29,.29,.29,.29-.13,.29-.29-.13-.29-.29-.29h0Zm6.93-9.14c-.16,0-.29,.13-.29,.29s.13,.29,.29,.29,.29-.13,.29-.29-.13-.29-.29-.29h0Zm-4.62,0c-.16,0-.29,.13-.29,.29s.13,.29,.29,.29,.29-.13,.29-.29-.13-.29-.29-.29h0Zm6.93,2.96c-.16,0-.29,.13-.29,.29s.13,.29,.29,.29,.29-.13,.29-.29-.13-.29-.29-.29h0Zm-4.62,0c-.16,0-.29,.13-.29,.29s.13,.29,.29,.29,.29-.13,.29-.29-.13-.29-.29-.29h0Zm-4.62,0c-.16,0-.29,.13-.29,.29s.13,.29,.29,.29,.29-.13,.29-.29-.13-.29-.29-.29h0Zm11.55-9.14c-.16,0-.29,.13-.29,.29s.13,.29,.29,.29,.29-.13,.29-.29-.13-.29-.29-.29h0Zm-4.62,0c-.16,0-.29,.13-.29,.29s.13,.29,.29,.29,.29-.13,.29-.29-.13-.29-.29-.29h0Zm2.31,2.96c-.16,0-.29,.13-.29,.29s.13,.29,.29,.29,.29-.13,.29-.29-.13-.29-.29-.29h0Zm-4.62,0c-.16,0-.29,.13-.29,.29s.13,.29,.29,.29,.29-.13,.29-.29-.13-.29-.29-.29h0Zm9.51-5.99c0,.08-.02,.17-.03,.26-.05,.08-.14,.13-.24,.13-.16,0-.29-.13-.29-.29s.13-.29,.29-.29c.13,0,.23,.08,.27,.19Z"/><path class="cls-15" d="M237.75,201.15c-4.29,2.6-9.32,4.1-14.7,4.1-5.75,0-11.09-1.71-15.55-4.64l.06-.37,1.21-8.91s-2.83-4.95-1.18-8.49c.83-1.8,8.11-12.98,11.17-15.2,2.87-2.09,7.04,.15,8.6,1.78,5.49,5.78,8.32,16.79,10.4,31.73Z"/><path class="cls-2" d="M207.56,200.24c.15-1.49,.31-2.98,.49-4.47,.18-1.49,.34-2.98,.54-4.46l.03,.13c-.86-1.23-1.39-2.63-1.64-4.09-.12-.73-.14-1.47-.09-2.22,.06-.75,.29-1.47,.55-2.16,.53-1.37,1.28-2.64,2.07-3.86,.79-1.22,1.67-2.39,2.61-3.5-.86,1.17-1.65,2.39-2.41,3.62-.75,1.24-1.42,2.52-1.94,3.86-.24,.67-.45,1.36-.5,2.06-.04,.71,0,1.42,.11,2.12,.22,1.4,.73,2.79,1.53,3.94l.04,.06v.07c-.21,1.48-.45,2.96-.67,4.44-.22,1.48-.47,2.96-.72,4.44Z"/><path class="cls-2" d="M209.68,179.13c0-.2,.05-.4,.1-.59,.05-.19,.13-.38,.2-.56,.08-.18,.17-.36,.27-.53,.1-.17,.2-.34,.33-.5-.11,.39-.26,.75-.41,1.11-.16,.36-.32,.71-.49,1.07Z"/><path class="cls-2" d="M213.72,190.17c1.62,.02,3.23,.36,4.78,.8,1.56,.44,5.01,1.81,5.88,2.15v.03c-1.58-.39-1.8-.48-3.33-1-1.53-.52-3.08-.99-4.64-1.4-.88-.23-1.79-.37-2.69-.48-.06,0-.06-.1,0-.09Z"/><path class="cls-2" d="M210.87,190.99c1.68-.16,3.39,.03,5.03,.45v.04c-.84-.1-1.67-.2-2.5-.27-.84-.07-1.68-.11-2.52-.17v-.05Z"/><path class="cls-18" d="M196.87,201.09c1.89,2.7,7.02,3.21,19.83,5.72,1.77,.35,7.59-11.5,5.71-11.97-2.36-.59-11.65-2.37-12.34-2.41-5.87-.37-14.48,6.83-13.2,8.66Z"/><path class="cls-18" d="M219.85,194.26s5.43,.82,8.14,2.13c3.64,1.76,6.06,4.77,6.99,6.1,1.96,2.77,4.77,10.81,2.6,12.02-1.97,1.1-4.43-7.26-4.43-7.26,0,0,3.92,8.11,1.3,9-2.61,.89-4.92-8.98-4.92-8.98,0,0,3.84,8.43,1,8.92-2.15,.37-4.74-8.45-4.74-8.45,0,0,3.25,7.26,1.06,7.74-2.42,.53-5.32-7.47-5.32-7.47-5.77,.27-8.63-1.96-10.48-3.79-.45-.44,8.8-9.96,8.8-9.96Z"/><path class="cls-2" d="M231.98,204.36c.5,.94,1,1.88,1.41,2.86,.41,.98,.79,1.97,1.1,2.98,.78,2.48,.88,4.15,.86,4.05-.41-2.43-1.82-5.95-2.23-6.93-.41-.97-.77-1.97-1.18-2.95h.04Z"/><path class="cls-2" d="M228.42,205.78c.58,1.22,1.2,2.42,1.73,3.66,.52,1.24,.91,2.47,1.35,3.74,.03,.1-.03,.08-.07-.01-.49-1.26-1.03-2.38-1.54-3.63-.5-1.25-.96-2.52-1.5-3.75h.03Z"/><path class="cls-2" d="M225.15,206.44c.98,1.82,1.63,3.83,2.21,5.81,.03,.1-.05,.07-.09-.03-.7-1.94-1.23-3.47-2.19-5.74-.01-.04,.04-.07,.06-.03Z"/><path class="cls-23" d="M220.98,194.26l-11.22,12.5s-11.35-2.61-13.02-5.52c-1.1-1.92,7.44-9.67,13.89-8.77l10.35,1.79Z"/><path class="cls-4" d="M211.71,204.02c-.16,0-.29,.13-.29,.29s.13,.29,.29,.29l.28-.32h0c-.01-.14-.14-.26-.28-.26h0Zm-4.62,0c-.16,0-.29,.13-.29,.29s.13,.29,.29,.29,.29-.13,.29-.29-.13-.29-.29-.29h0Zm-4.62,0c-.16,0-.29,.13-.29,.29s.13,.29,.29,.29,.29-.13,.29-.29-.13-.29-.29-.29h0Zm13.86-6.18c-.16,0-.29,.13-.29,.29s.13,.29,.29,.29,.29-.13,.29-.29-.13-.29-.29-.29h0Zm-4.62,0c-.16,0-.29,.13-.29,.29s.13,.29,.29,.29,.29-.13,.29-.29-.13-.29-.29-.29h0Zm-4.62,0c-.16,0-.29,.13-.29,.29s.13,.29,.29,.29,.29-.13,.29-.29-.13-.29-.29-.29h0Zm-4.62,0c-.16,0-.29,.13-.29,.29s.13,.29,.29,.29,.29-.13,.29-.29-.13-.29-.29-.29h0Zm11.55,2.96c-.16,0-.29,.13-.29,.29s.13,.29,.29,.29,.29-.13,.29-.29-.13-.29-.29-.29h0Zm-4.62,0c-.16,0-.29,.13-.29,.29s.13,.29,.29,.29,.29-.13,.29-.29-.13-.29-.29-.29h0Zm-4.62,0c-.16,0-.29,.13-.29,.29s.13,.29,.29,.29,.29-.13,.29-.29-.13-.29-.29-.29h0Zm-4.62,0c-.16,0-.29,.13-.29,.29s.13,.29,.29,.29,.29-.13,.29-.29-.13-.29-.29-.29h0Zm18.48-6.18c-.16,0-.29,.13-.29,.29s.13,.29,.29,.29,.29-.13,.29-.29-.13-.29-.29-.29h0Zm-4.62,0c-.16,0-.29,.13-.29,.29s.13,.29,.29,.29,.29-.13,.29-.29-.13-.29-.29-.29h0Zm-4.62,0c-.16,0-.29,.13-.29,.29s.13,.29,.29,.29,.29-.13,.29-.29-.13-.29-.29-.29h0Zm-4.33,.29c0,.16-.13,.29-.29,.29s-.29-.13-.29-.29,.13-.29,.29-.29,.29,.13,.29,.29Z"/><path class="cls-2" d="M202.94,194.5c1.04-.75,3.97-2.51,7.7-2.04v.06c-2.82-.08-6.62,1.39-7.68,2.03l-.02-.05Z"/><path class="cls-2" d="M206.69,204.67c1.16-1.44,2.4-2.82,3.64-4.19,1.24-1.37,2.48-2.75,3.75-4.09,.72-.76,1.44-1.52,2.18-2.26l.04,.03c-1.16,1.44-2.39,2.82-3.62,4.2-1.23,1.38-2.48,2.75-3.74,4.11-.71,.77-1.44,1.52-2.18,2.26-.04,.04-.11-.02-.07-.06Z"/><path class="cls-2" d="M221,194.1c-.69-.23-1.39-.35-2.1-.48-.71-.13-1.42-.25-2.13-.37-1.41-.23-4.39-.87-7-.86l.15,.14c1.24-.07,10.16,1.71,10.89,1.76-.03,.05-.06,.1-.08,.15-.02,.04,.02,.08,.06,.06,.09-.06,.16-.14,.24-.21,.07-.06,.06-.16-.03-.19Z"/><path class="cls-23" d="M229.38,170.2c10.72,9.36,19.16,20.91,18.61,23.8-1.02,5.38-8.1,5.71-9.18,4.55-4.34-4.7-8.92-13.82-13.89-23.99-4.44-9.09,.92-7.44,4.45-4.36Z"/><path class="cls-4" d="M243.31,197.55c-.16,0-.29,.13-.29,.29s.13,.29,.29,.29,.29-.13,.29-.29-.13-.29-.29-.29h0Zm-4.62,0c-.16,0-.29,.13-.29,.29s.13,.29,.29,.29,.29-.13,.29-.29-.13-.29-.29-.29h0Zm4.62-6.18c-.16,0-.29,.13-.29,.29s.13,.29,.29,.29,.29-.13,.29-.29-.13-.29-.29-.29h0Zm-4.62,0c-.16,0-.29,.13-.29,.29s.13,.29,.29,.29,.29-.13,.29-.29-.13-.29-.29-.29h0Zm-4.62,0c-.16,0-.29,.13-.29,.29s.13,.29,.29,.29,.29-.13,.29-.29-.13-.29-.29-.29h0Zm11.55,2.96c-.16,0-.29,.13-.29,.29s.13,.29,.29,.29,.29-.13,.29-.29-.13-.29-.29-.29h0Zm-4.62,0c-.16,0-.29,.13-.29,.29s.13,.29,.29,.29,.29-.13,.29-.29-.13-.29-.29-.29h0Zm-4.62,0c-.16,0-.29,.13-.29,.29s.13,.29,.29,.29,.29-.13,.29-.29-.13-.29-.29-.29h0Zm7.21-8.91h0c-.05-.08-.09-.13-.14-.19-.04-.03-.09-.04-.14-.04-.16,0-.29,.13-.29,.29s.13,.29,.29,.29,.29-.13,.29-.29v-.06h0Zm-4.9-.23c-.16,0-.29,.13-.29,.29s.13,.29,.29,.29,.29-.13,.29-.29-.13-.29-.29-.29h0Zm-4.62,0c-.16,0-.29,.13-.29,.29s.13,.29,.29,.29,.29-.13,.29-.29-.13-.29-.29-.29h0Zm11.44,2.98h0c-.1,.04-.17,.14-.17,.26,0,.16,.13,.29,.29,.29,.08,0,.14-.03,.19-.08-.1-.16-.2-.32-.3-.48h0Zm-4.51-.02c-.16,0-.29,.13-.29,.29s.13,.29,.29,.29,.29-.13,.29-.29-.13-.29-.29-.29h0Zm-4.62,0c-.16,0-.29,.13-.29,.29s.13,.29,.29,.29,.29-.13,.29-.29-.13-.29-.29-.29h0Zm-4.51,.02c.06,.11,.11,.21,.17,.31v-.05c0-.12-.07-.22-.17-.26h0Zm6.58-9.02s-.04,.1-.04,.15c0,.16,.13,.29,.29,.29,.04,0,.08,0,.12-.02-.12-.14-.24-.27-.36-.41h0Zm-4.38-.14c-.16,0-.29,.13-.29,.29s.13,.29,.29,.29,.29-.13,.29-.29-.13-.29-.29-.29h0Zm-4.62,0c-.16,0-.29,.13-.29,.29s.13,.29,.29,.29,.29-.13,.29-.29-.13-.29-.29-.29h0Zm11.45,2.97c-.11,.04-.19,.15-.19,.27,0,.16,.13,.29,.29,.29,.1,0,.19-.05,.24-.14-.12-.14-.23-.28-.35-.42h0Zm-4.52-.02c-.16,0-.29,.13-.29,.29s.13,.29,.29,.29,.29-.13,.29-.29-.13-.29-.29-.29h0Zm-4.62,0c-.16,0-.29,.13-.29,.29s.13,.29,.29,.29,.29-.13,.29-.29-.13-.29-.29-.29h0Zm-2.31-9.14c-.16,0-.29,.13-.29,.29s.13,.29,.29,.29,.29-.13,.29-.29-.13-.29-.29-.29h0Zm-4.62,0c-.16,0-.29,.13-.29,.29s.13,.29,.29,.29,.29-.13,.29-.29-.13-.29-.29-.29h0Zm6.93,2.96c-.16,0-.29,.13-.29,.29s.13,.29,.29,.29,.29-.13,.29-.29-.13-.29-.29-.29h0Zm-4.62,0c-.16,0-.29,.13-.29,.29s.13,.29,.29,.29,.29-.13,.29-.29-.13-.29-.29-.29h0Zm.29-5.89c0,.16-.13,.29-.29,.29s-.29-.13-.29-.29,.13-.29,.29-.29,.29,.13,.29,.29Z"/><path class="cls-2" d="M237.05,196.45c-.79-1.22-1.53-2.48-2.28-3.72-.75-1.24-1.5-2.5-2.23-3.75-1.44-2.49-2.79-5.03-4.08-7.59-.73-1.45-1.48-2.9-2.17-4.37-.02-.05-.1-.01-.08,.04,.67,1.71,1.4,3.39,2.17,5.05l-.04-.06c-.17-.23-.35-.47-.52-.71-.34-.47-.65-.95-.95-1.43-.03-.04-.08,0-.06,.04,.35,.66,.74,1.31,1.18,1.92,.21,.29,.43,.59,.67,.85l.02,.02c.35,.74,.72,1.47,1.1,2.2,1.35,2.57,2.77,5.11,4.38,7.54,.45,.68,.9,1.36,1.37,2.03,.47,.67,.98,1.32,1.46,1.98l.06-.03Z"/><path class="cls-18" d="M240.59,197.5c-2.03-2.92-1-8.72,1.23-22.63,.31-1.92,14.92-2.08,14.7,0-.28,2.61-2.88,12.93-3.56,14.45-3.32,7.43-10.99,10.17-12.37,8.19Z"/><path class="cls-18" d="M256.99,169.1c-.56-4.43-1.39-5.48,.12-9.46,.99-2.62-.26-4.37-2.43-2.44-3.56,3.16-4.03,9.02-3.61,11.1l5.92,.8Z"/><path class="cls-2" d="M242.86,152.84l-5.3,17.82c-.21,.52,.03,.96,.55,.98l9.29,.39c.52,.02,1.12-.38,1.33-.9l5.3-17.82c.22-.52-.03-.96-.55-.98l-9.29-.39c-.52-.02-1.12,.38-1.33,.9Z"/><path class="cls-26" d="M243.96,152.87l-5.3,17.82c-.22,.52,.03,.96,.55,.98l9.29,.39c.52,.02,1.12-.38,1.33-.9l5.3-17.82c.22-.52-.03-.96-.55-.98l-9.29-.39c-.52-.02-1.12,.38-1.33,.9Z"/><path class="cls-2" d="M246.48,153.81c-.03,.44-.4,.77-.84,.74-.44-.03-.77-.4-.74-.84,.03-.44,.4-.77,.84-.74s.77,.4,.74,.84Z"/><path class="cls-18" d="M254.7,181.6s2.65-5.75,2.51-10.52c-.09-3.3-1.1-10.47-9.73-15.24-2.05-1.13-5.77-1.29-3.09,1.77,1.9,2.18,3.76,2.98,4.63,4.45,0,0-4.76,.36-5.81,2.45-.47,.94-1.7,3.52-2.36,5.67,0,0,.43,.27,1.02,.54,0,0-.8,2.05,.38,5.18l12.45,5.7Z"/><path class="cls-18" d="M256.62,167.94c-1.17-1.27-3.71-3.93-6.54-5.38-3.14-1.61-9.63-3.87-10.8-1.53-.85,1.71,1.55,2.79,1.55,2.79,0,0-2.88-.37-3.31,1.35-.4,1.56,1.51,2.28,1.51,2.28,0,0-1.78,.08-1.88,1.66-.11,1.9,3.65,1.42,5.2,3.44,.35,.45,14.27-4.61,14.27-4.61Z"/><path class="cls-2" d="M248.93,166.17c-1.3-1.01-4.85-2.56-8.04-2.39-.07,0-.11,.06-.04,.07,3.55,.56,6.74,1.76,8.07,2.35l.02-.03Z"/><path class="cls-2" d="M247.22,169.3c-1.21-.76-4.94-2.19-8.17-1.91-.07,0-.1,.07-.04,.07,3.74,.43,6.84,1.35,8.19,1.86v-.03Z"/><path class="cls-23" d="M256.75,179.59l-16.95,4.81s-3.38,11.11-1.23,13.9c2.3,2.98,12.97-1.64,15.09-8.13l3.09-10.57Z"/><path class="cls-4" d="M243.31,197.55c-.16,0-.29,.13-.29,.29s.13,.29,.29,.29,.29-.13,.29-.29-.13-.29-.29-.29h0Zm-4.62,0c-.16,0-.29,.13-.29,.29s.13,.29,.29,.29,.29-.13,.29-.29-.13-.29-.29-.29h0Zm13.86-6.18c-.16,0-.29,.13-.29,.29s.13,.29,.29,.29,.29-.13,.29-.29-.13-.29-.29-.29h0Zm-4.62,0c-.16,0-.29,.13-.29,.29s.13,.29,.29,.29,.29-.13,.29-.29-.13-.29-.29-.29h0Zm-4.62,0c-.16,0-.29,.13-.29,.29s.13,.29,.29,.29,.29-.13,.29-.29-.13-.29-.29-.29h0Zm-4.62,0c-.16,0-.29,.13-.29,.29s.13,.29,.29,.29,.29-.13,.29-.29-.13-.29-.29-.29h0Zm11.55,2.96c-.16,0-.29,.13-.29,.29s.13,.29,.29,.29,.29-.13,.29-.29-.13-.29-.29-.29h0Zm-4.62,0c-.16,0-.29,.13-.29,.29s.13,.29,.29,.29,.29-.13,.29-.29-.13-.29-.29-.29h0Zm-4.62,0c-.16,0-.29,.13-.29,.29s.13,.29,.29,.29,.29-.13,.29-.29-.13-.29-.29-.29h0Zm11.55-9.14c-.16,0-.29,.13-.29,.29s.13,.29,.29,.29,.29-.13,.29-.29-.13-.29-.29-.29h0Zm-4.62,0c-.16,0-.29,.13-.29,.29s.13,.29,.29,.29,.29-.13,.29-.29-.13-.29-.29-.29h0Zm-4.62,0c-.16,0-.29,.13-.29,.29s.13,.29,.29,.29,.29-.13,.29-.29-.13-.29-.29-.29h0Zm6.93,2.96c-.16,0-.29,.13-.29,.29s.13,.29,.29,.29,.29-.13,.29-.29-.13-.29-.29-.29h0Zm-4.62,0c-.16,0-.29,.13-.29,.29s.13,.29,.29,.29,.29-.13,.29-.29-.13-.29-.29-.29h0Zm-4.62,0c-.16,0-.29,.13-.29,.29s.13,.29,.29,.29,.29-.13,.29-.29-.13-.29-.29-.29h0Zm13.86-6.18c-.16,0-.29,.13-.29,.29s.13,.29,.29,.29,.29-.13,.29-.29-.13-.29-.29-.29h0Zm-4.33,.29c0,.16-.13,.29-.29,.29s-.29-.13-.29-.29,.13-.29,.29-.29,.29,.13,.29,.29Z"/><path class="cls-2" d="M240.36,188.25c1.89-.43,3.76-.96,5.62-1.49,1.87-.53,3.73-1.07,5.59-1.65,1.05-.33,2.1-.65,3.13-1.02v-.05c-1.9,.43-3.77,.95-5.64,1.47-1.87,.52-3.74,1.06-5.6,1.62-1.05,.32-2.1,.65-3.13,1.02-.05,.02-.03,.11,.02,.1Z"/><path class="cls-2" d="M240.41,184.21c-.26,.03-.53,.08-.79,.13-.04,0-.07,.05-.08,.09-.29,.98-.5,2-.7,3.01-.2,.99-.38,1.99-.55,2.99-.09,.54-.17,1.08-.23,1.62-.32,.66-.53,1.36-.59,2.09,0,.04,.06,.04,.06,0,.08-.64,.25-1.28,.5-1.88-.14,1.32-.16,2.65,.11,3.97h.01c-.33-1.96,.16-4,.48-5.93,.16-.97,.34-1.93,.53-2.89,.19-.96,.41-1.91,.59-2.87,.22-.08,.45-.17,.67-.27l-.02-.06Z"/><path class="cls-18" d="M223.13,167c-.09,.56-2.45,4.32-4.98,4.39-.82,.02-1.13-4.46-1.13-4.46l-.1-.33-1.37-4.56,5.18-3.89,.75-.52s.29,1.27,.64,2.86c.02,.07,.03,.15,.05,.23,.02,.09,.04,.17,.06,.26,.06,.24,.11,.48,.16,.72,.04,.18,.08,.36,.11,.56,.04,.19,.07,.38,.11,.58,.34,1.92,.54,3.93,.5,4.17Z"/><path class="cls-2" d="M223.08,166.15c-3.5,.63-5.53-.2-6.58-.94l-.95-3.16,5.19-3.89,.75-.52s.29,1.27,.64,2.86c.02,.07,.03,.15,.05,.23,.02,.09,.05,.17,.06,.26,.05,.24,.11,.48,.16,.72,.04,.18,.08,.36,.11,.56,.04,.19,.08,.38,.11,.58,.22,1.23,.38,2.5,.45,3.32Z"/><path class="cls-18" d="M225.63,154.57c1.58,8.2-3.16,10.07-4.93,10.41-1.61,.31-7.11,1.15-9.53-6.85-2.42-8,.9-11.32,4.54-12.22,3.64-.9,8.34,.45,9.92,8.65Z"/><path class="cls-2" d="M224.08,153c-.2,0-.38-.03-.58-.04-.22-.02-.4,0-.58-.15-.1-.08-.12-.26-.05-.36,.15-.24,.43-.28,.7-.27,.29,.01,.51,.1,.73,.29,.21,.19,.04,.53-.22,.54Z"/><path class="cls-2" d="M218.21,153.49c.19-.05,.36-.12,.55-.19,.21-.07,.38-.11,.52-.3,.07-.1,.05-.28-.04-.36-.21-.19-.49-.16-.74-.08-.28,.09-.47,.22-.63,.46-.16,.23,.09,.52,.35,.46Z"/><path class="cls-2" d="M219.98,155.79l-.04,.06c.1,.56,.12,1.22-.36,1.48v.03c.62-.18,.58-1.05,.4-1.57Z"/><path class="cls-2" d="M219.4,155.27c-.92,.06-.72,1.89,.12,1.83,.83-.06,.64-1.88-.12-1.83Z"/><path class="cls-2" d="M219.05,155.4c-.15,.12-.29,.32-.48,.36-.22,.05-.41-.13-.57-.3l-.03,.02c.03,.35,.2,.7,.58,.71,.35,.01,.56-.32,.61-.68,0-.07-.06-.16-.12-.11Z"/><path class="cls-2" d="M223.27,155.22l.05,.05c.05,.57,.2,1.21,.73,1.34v.03c-.63-.02-.82-.87-.78-1.41Z"/><path class="cls-2" d="M223.71,154.57c.9-.17,1.18,1.64,.34,1.8-.82,.16-1.1-1.66-.34-1.8Z"/><path class="cls-2" d="M224.11,154.63c.16,.07,.33,.23,.5,.21,.2-.02,.32-.24,.42-.44l.03,.02c.06,.35,0,.72-.32,.84-.29,.11-.56-.16-.7-.49-.03-.06,0-.17,.07-.14Z"/><path class="cls-2" d="M220.64,160.18c.14,.12,.29,.3,.5,.31,.2,0,.43-.1,.6-.18l.03,.03c-.13,.23-.44,.38-.7,.35-.26-.03-.4-.24-.48-.48l.05-.03Z"/><path class="cls-2" d="M222.76,157.87s.21,.83,.26,1.23c0,.04-.09,.07-.22,.09h-.02c-.69,.19-1.43,.03-1.92-.49-.03-.04,.01-.08,.05-.06,.57,.32,1.16,.36,1.79,.29,.01-.11-.42-1.41-.35-1.42,.22-.04,.66,.05,.93,.1-.4-1.74-1.07-3.41-1.44-5.15-.01-.06,.08-.09,.1-.04,.83,1.69,1.33,3.69,1.79,5.48,.06,.22-.8,.02-.96-.03Z"/><path class="cls-2" d="M211.51,158.21c2.06-.24,2.16-6.63,2.16-7.41,.02,.49,.16,3.11,.37,3.2,.05,.02,.28-.05,.64-.17h0c-.02-.3-.02-.62,0-.94,0-.15,.08,.31,.2,.87,.11-.04,.24-.09,.37-.14-.06-.56-.08-1.26,.04-2,.04-.25,.19,.85,.51,1.81,1.39-.5,3.41-1.17,5.33-1.38,.51-.06,.96-.09,1.35-.1-.06-.77-.21-1.59-.14-1.41,.21,.49,.35,.99,.44,1.41,.21,0,.41,0,.59,0-.03-1.09-.69-2.79-.49-2.54,.75,.98,1.11,2.04,1.26,2.6,.76,.08,.97,.21,.98,.02,0-.35-.66-3.37-3.21-5.41-2.77-2.22-7.97-2.43-10.57,1.55,0,0-2.27,1.75-2.44,4.29-.18,2.54,1.43,5.91,2.62,5.78Z"/><path class="cls-4" d="M218.89,154.13c-.18,0-.37,.03-.55,.09-1.18,.34-1.86,1.58-1.52,2.76,.34,1.18,1.58,1.87,2.76,1.52,1.18-.34,1.86-1.58,1.52-2.76-.29-1-1.22-1.64-2.21-1.61h0Zm.15,4.8c-1.15,.04-2.22-.71-2.55-1.86-.39-1.36,.4-2.79,1.76-3.18,1.36-.39,2.79,.4,3.18,1.76h0c.39,1.36-.4,2.79-1.76,3.18-.21,.06-.42,.09-.63,.1Z"/><path class="cls-4" d="M224.47,153.25s-.09,0-.13,.01c-.4,.06-.76,.34-.99,.79-.24,.47-.33,1.05-.24,1.65,.18,1.22,1.02,2.1,1.88,1.97,.86-.13,1.41-1.22,1.23-2.44-.09-.6-.34-1.13-.71-1.51-.32-.32-.68-.49-1.04-.47h0Zm.41,4.77c-.98,.03-1.91-.95-2.11-2.28-.1-.67,0-1.33,.27-1.86,.28-.55,.73-.89,1.24-.97,.52-.08,1.04,.12,1.47,.56,.42,.43,.7,1.03,.8,1.7,.21,1.4-.47,2.67-1.51,2.83-.06,0-.11,.01-.17,.01Z"/><path class="cls-4" d="M221.39,155.95l-.26-.23c.34-.38,1.17-.95,1.89-.38l-.21,.27c-.64-.51-1.38,.3-1.41,.34Z"/><path class="cls-4" d="M210.67,158.32l-.33-.11c.05-.15,.53-1.49,1.27-1.73,.69-.22,4.8-.49,5-.5l.02,.34c-1.33,.07-4.38,.31-4.91,.49-.49,.16-.92,1.14-1.05,1.51Z"/><path class="cls-18" d="M212.86,158.31s-2.08-2.4-3.19-1.64c-1.11,.77,.64,4.39,2.08,4.76,1.43,.37,1.8-.95,1.8-.95l-.69-2.17Z"/><path class="cls-2" d="M210.19,157.7v.04c1.01,.29,1.61,1.14,2.06,2.03-.32-.33-.74-.48-1.18-.09l.03,.05c.39-.13,.68-.09,.98,.2,.21,.2,.37,.48,.54,.72,.05,.08,.21,.02,.16-.08v-.02c-.11-1.24-1.25-2.87-2.59-2.85Z"/><path class="cls-2" d="M211.13,147.44c-.03,.61-2.94,2.08-5.02,.52-2.05-1.54-1.21-4.66,1.63-4.35,1.8,.19,3.46,2.54,3.39,3.84Z"/><path class="cls-2" d="M205.06,145.19c.31-.77,.9-1.39,1.58-1.76,.69-.38,1.51-.39,2.16,0,.68,.37,1.2,1.01,1.6,1.7,.2,.35,.36,.72,.5,1.11,.14,.38,.24,.78,.23,1.2,.11-.41,.05-.84-.01-1.26-.08-.42-.21-.82-.4-1.21-.36-.77-.91-1.5-1.69-1.94-.39-.21-.85-.35-1.3-.32-.46,.02-.9,.17-1.26,.42-.74,.48-1.26,1.24-1.4,2.07Z"/><path class="cls-18" d="M208.27,206.76s-.09,.02-.14,.04h0s.1-.02,.14-.04Z"/><path class="cls-24" d="M194.94,204.15c-.02,.1-.04,.2-.05,.3v-.06c.02-.08,.04-.16,.05-.24Z"/><path class="cls-24" d="M194.94,204.15c-.02,.1-.04,.2-.05,.3v-.06c.02-.08,.04-.16,.05-.24Z"/><path class="cls-24" d="M208.9,208.21h0c-.15,.04-.29,.07-.44,.11,.14-.04,.29-.07,.44-.11Z"/><path class="cls-20" d="M194.94,204.15c-.02,.1-.04,.2-.05,.3v-.06c.02-.08,.04-.16,.05-.24Z"/><path class="cls-5" d="M75.08,170.71c2.34,3.47,14.6,20.07,21.21,19.82,8.01-.3,17.79-3.5,21.86-6.26,2.28-1.55-5.62-12.62-7.84-11.49-3.51,1.79-11.66,4.36-13.07,4.67-1.41,.31-11.63-7.32-17.77-10.67-5.53-3.02-6.04,1.49-4.39,3.93Z"/><path class="cls-5" d="M117.76,184.39c1.51-.63,9.49-4.54,11.13-5.94,1.64-1.39,6.06-5.74,5.12-7.1-.94-1.36-2.34-.19-2.34-.19,0,0,1.58-2.13,.51-3.42-1.07-1.29-3.18,.6-3.18,.6,0,0,1.46-2.31,.3-3.51s-2.97,1.05-2.97,1.05c0,0,1.43-2.05,.06-2.64-1.65-.71-3.87,3.36-5.79,4.76-.44,.32-9.31,5.82-9.31,5.82l6.46,10.57Z"/><path class="cls-2" d="M126.5,165.69c-1.64,2.99-2.87,4.02-5.81,5.65-.06,.03-.02,.12,.04,.1,3.02-1.33,4.75-2.4,5.91-5.67,.06-.16-.07-.21-.15-.07Z"/><path class="cls-2" d="M129.13,168.11c-1.97,2.96-3.3,4.08-6.25,6.01-.04,.03,0,.1,.04,.08,3.05-1.65,4.76-2.75,6.34-5.97,.07-.15-.04-.26-.13-.12Z"/><path class="cls-2" d="M131.53,171.25c-2.12,2.73-3.52,4.02-6.62,5.53-.07,.04-.03,.15,.05,.12,3.31-1.23,5.08-2.83,6.65-5.57,.11-.19,.06-.24-.08-.07Z"/><path class="cls-5" d="M108.07,174.88s1.52-3.99,2.58-5.6c1.06-1.61,7.2-6.14,8.25-4.87,1.36,1.64-1.67,4.96-3.36,6.39,0,0,3.15,3.79,1.5,6.64s-8.96-2.56-8.96-2.56Z"/><path class="cls-2" d="M119.13,164.98c.16,2.39-2.18,4.13-3.73,5.64-.12,.11-.07,.25,.04,.32,1.22,1.68,2.44,4.4,1.72,6.46-.02,.06,.06,.1,.09,.04,1.07-2.11,.09-4.88-1.36-6.63,1.6-1.52,3.88-3.37,3.26-5.83h-.02Z"/><path class="cls-15" d="M107.59,173.4l7.06,14.14s-15.47,5.99-21.5,2.62c-6.02-3.37-15.34-14.93-17.28-17.57-4.24-5.77-.91-8.8,3.82-5.86,4.73,2.95,16.44,10.13,17.19,10.33,.75,.2,10.71-3.68,10.71-3.68Z"/><path class="cls-10" d="M74.02,167.24c.09-.34,.24-.63,.44-.87-.2,.24-.35,.53-.44,.87h0Zm.44-.87h0Z"/><path class="cls-17" d="M91.82,189.33c-5.98-4.13-14.14-14.28-15.94-16.73-1.68-2.29-2.17-4.14-1.86-5.37,.09-.34,.24-.63,.44-.87h0c.42-.49,1.07-.76,1.87-.76,.62,0,1.33,.15,2.09,.48l13.39,23.24Z"/><path class="cls-26" d="M110.84,187.93c-.9-1.56-1.71-3.16-2.52-4.77-.81-1.61-1.63-3.21-2.4-4.84-.44-.92-.88-1.84-1.28-2.77l.04-.02c.9,1.55,1.72,3.16,2.54,4.75,.82,1.6,1.63,3.21,2.42,4.83,.45,.91,.88,1.84,1.28,2.77,.02,.05-.05,.09-.08,.05Z"/><path class="cls-15" d="M89.07,198.17c-4.38,2.77-9.58,4.38-15.15,4.38-6.63,0-12.72-2.27-17.55-6.08,1.55-8.06,5.36-21.82,13.25-30.88,2.2-2.53,8.21-1.79,8.91-.78,4.71,6.84,8.89,24.69,10.54,33.36Z"/><polygon class="cls-11" points="82.65 204.03 99.98 208.1 109.01 184.34 91.68 180.27 82.65 204.03"/><polygon class="cls-7" points="83.5 204.23 100.83 208.3 109.86 184.54 92.53 180.47 83.5 204.23"/><path class="cls-4" d="M99.21,193.85c-.3,.91-1.3,1.47-2.23,1.26-.93-.22-1.44-1.13-1.14-2.05,.3-.91,1.3-1.47,2.23-1.26,.93,.22,1.44,1.13,1.14,2.05Z"/><path class="cls-5" d="M66.5,168.83c-5.01,6.98-15.8,22.92-12.61,26.6,5.23,6.05,18,11.36,22,12.55,1.73,.52,7.91-12.03,6.28-13.06-1.95-1.24-14.46-6.15-14.52-6.76-.07-.67,2.27-9.25,3.04-16.02,.95-8.41-2.09-6.22-4.18-3.31Z"/><path class="cls-5" d="M75.88,194.05s5.26-1.54,8.75-2.39c1.95-.47,5.35-.98,6.94-.68,2.38,.46,12.02,3.9,11.24,6.25-.71,2.13-8.62-1.87-8.62-1.87,0,0,8.34,3.33,7.01,5.75-1.33,2.41-9.66-3.3-9.66-3.3,0,0,8.49,3.62,6.73,5.89-1.33,1.72-9.17-3.03-9.17-3.03,0,0,7.28,3.16,5.99,4.98-1.43,2.01-8.94-1.91-8.94-1.91-4.06,4.08-7.59,4.63-10.26,4.26-.62-.09-.01-13.94-.01-13.94Z"/><path class="cls-2" d="M91.77,194.19c6.33,1.99,8.83,4.9,8.74,4.84-1.94-1.51-5.34-3.15-6.3-3.6-.96-.44-1.5-.76-2.46-1.21l.02-.04Z"/><path class="cls-2" d="M89.71,197.45c3.06,.75,6.25,2.58,7.24,3.38,.08,.06,.03,.08-.06,.04-1.2-.6-5.97-2.85-7.2-3.39v-.03Z"/><path class="cls-2" d="M87.76,200.14c2.68,.87,3.8,1.53,5.53,2.78,.08,.06,.01,.09-.08,.04-1.82-.96-3.24-1.73-5.47-2.76-.03-.02-.02-.08,.02-.07Z"/><path class="cls-15" d="M78.32,192.99l-7.04,15.02s-16.79-9.05-18.06-13.3c-1.27-4.25,10.15-22.95,13.62-26.76,3.47-3.81,4.59-2.25,4.5,2.1-.1,4.35-3.52,17.92-3.44,18.17,.08,.25,10.42,4.77,10.42,4.77Z"/><path class="cls-2" d="M69.15,181.8c.23-1.02,.45-2.04,.67-3.05,.11-.53,.22-1.06,.34-1.59,.06-.24,.11-.49,.16-.73,.03-.12,.07-.24,.09-.36,.07-.45,0-.05,.12-.48h.05c-.03,.29,.03,.18-.03,.39-.04,.16-.06,.32-.08,.48-.04,.25-.08,.49-.12,.74-.08,.5-.17,1.01-.27,1.51-.01,.07-.03,.13-.04,.2l.02-.05c.19-.55,.38-1.09,.57-1.63h.04c-.13,.57-.28,1.13-.46,1.67-.1,.32-.23,.63-.35,.93-.13,.67-.26,1.34-.4,2.01-.44,2.07-.89,4.15-1.49,6.18,.88,.4,1.78,.76,2.65,1.17,.88,.41,1.76,.82,2.63,1.24,.88,.42,1.75,.83,2.62,1.26,.41,.21,.82,.42,1.24,.63,.45,.23,.87,.51,1.32,.73,.05,.02,0,.09-.04,.07-.47-.22-.97-.37-1.45-.58-.42-.18-.84-.36-1.25-.55-.89-.4-1.77-.81-2.64-1.22-.88-.41-1.76-.82-2.63-1.24-.87-.42-1.72-.88-2.59-1.3l-.05-.06s-.06-.06-.05-.12c.43-2.08,.96-4.15,1.43-6.22Z"/><path class="cls-2" d="M71.32,198.91c.52-1.09,2.65-5.43,3.26-6.46h.03c-.39,1.12-2.36,5.46-2.89,6.55-1.04,2.17-2.05,4.38-3.32,6.43-.02,.04-.09,.01-.07-.03,.85-2.23,1.95-4.35,2.99-6.49Z"/><path class="cls-2" d="M59.19,200.58c.38,.22,.75,.49,1.11,.75,.38,.26,.76,.52,1.14,.79,.74,.52,1.49,1.05,2.28,1.5,.04,.03,0,.09-.04,.07-.8-.46-1.62-.89-2.4-1.39-.74-.48-1.52-1.01-2.14-1.65l.04-.05Z"/><path class="cls-5" d="M77.78,170.26c-1.85,.67-5.44-1.87-7-4.08-.11-.15-.05-1.88-.08-3.98-.03-1.28-.08-2.7-.23-3.99l8.33,1.05s-.49,2.8-.22,5.05c.02,.19,.06,.36,.12,.52l.02,.09c.28,.99,.85,4.69-.94,5.34Z"/><path class="cls-2" d="M78.58,164.31c.02,.17,.05,.31,.1,.46-4.08-.23-6.59-2.14-8.01-3.78-.03-.92-.09-1.88-.19-2.77l8.33,1.05s-.49,2.8-.22,5.05Z"/><path class="cls-5" d="M67.66,149.3c-.36,3,2.6,10.97,4.96,12.44,3.41,2.14,8.26,1.54,9.9-2.39,1.58-3.81-2.47-14.12-5.03-15.39-3.77-1.86-9.29,.9-9.83,5.34Z"/><path class="cls-2" d="M76.1,152.64l-.02,.06c.21,.53,.37,1.18-.05,1.53l.02,.03c.56-.3,.35-1.15,.06-1.62Z"/><path class="cls-2" d="M75.41,152.25c-.89,.25-.32,2.01,.5,1.78,.81-.23,.24-1.99-.5-1.78Z"/><path class="cls-2" d="M79.38,151.47l.06,.03c.16,.55,.43,1.15,.98,1.18v.03c-.62,.11-.98-.69-1.04-1.24Z"/><path class="cls-2" d="M79.68,150.74c.85-.35,1.49,1.38,.7,1.71-.78,.32-1.42-1.42-.7-1.71Z"/><path class="cls-2" d="M74.46,151.67c.22-.14,.4-.3,.6-.46,.23-.18,.43-.3,.53-.59,.05-.15-.06-.37-.2-.43-.34-.15-.67,0-.96,.21-.31,.22-.49,.47-.59,.84-.1,.36,.34,.61,.63,.43Z"/><path class="cls-2" d="M80.07,149.64c-.26,.04-.5,.03-.76,.04-.29,.01-.52,.06-.78-.1-.14-.08-.19-.32-.13-.46,.16-.33,.51-.44,.86-.47,.38-.03,.68,.04,.99,.25,.31,.21,.15,.69-.19,.74Z"/><path class="cls-2" d="M77.37,157.73c.17,.09,.36,.22,.56,.17,.19-.05,.39-.2,.54-.33l.03,.02c-.07,.26-.33,.48-.6,.52-.26,.04-.45-.14-.58-.34l.05-.04Z"/><path class="cls-2" d="M77.41,155.91c.46,.37,.99,.49,1.5,.42,.23-.03,.46-.09,.68-.19,.04-.01,.09-.03,.12-.06,.04-.02,.07-.03,.11-.06,.06-.03,.08-.09,.07-.16h0l-.02-.06h0l-.02-.05c-.12-.42-.37-1.05-.37-1.05,.18,.03,1.07,.13,.99-.09-.69-1.78-1.47-3.76-2.53-5.38-.03-.06-.12-.01-.1,.05,.6,1.74,1.5,3.35,2.13,5.09-.28-.01-.74-.06-.96,.02-.05,.04,.5,1.2,.54,1.39v.02c-.67,.32-1.27,.28-2.11,.03-.05-.02-.08,.03-.03,.07Z"/><path class="cls-2" d="M79.29,156.09s-.24,.61-.7,.94c-.17,.12-.37,.2-.6,.21-.47,0-.59-.4-.61-.76-.01-.3,.05-.58,.05-.58,0,0,.81,.43,1.86,.21Z"/><path class="cls-21" d="M78.58,157.03c-.17,.12-.37,.2-.6,.21-.47,0-.59-.4-.61-.76,.49-.08,1.04,.11,1.21,.56Z"/><path class="cls-2" d="M70.47,155.56c1.38-.49,.25-3.88,.25-3.88,0,0,2.03-1,2.23-4.24,0,0,3.25,.93,5.44-.15,3.43-1.7,1.97-6.38,.34-6.95-2.31-.8-5.16,2.16-5.16,2.16,0,0-5.59,.05-6.12,4,0,0-2.28,.77-1.7,3.36,.58,2.6,3.69,6.06,4.72,5.7Z"/><path class="cls-2" d="M70.34,152.22c.97-.5,1.81-1.26,2.28-2.26,.48-1.03,.53-2.42-.09-3.41-.03-.05,.06-.1,.09-.05,.6,1.12,.89,2.37,.42,3.6-.43,1.13-1.44,2.04-2.65,2.21-.06,0-.1-.07-.04-.1Z"/><path class="cls-2" d="M65.13,148.42c.45-1.11,1.5-1.57,2.59-1.84,.06-.02,.09,.09,.02,.1-1.09,.18-1.96,1.2-2.26,2.23-.29,1.01,.14,2.04,.63,2.92,.94,1.68,2.47,3,4.3,3.61l-.02,.05c-2.05-.6-3.82-2.02-4.79-3.93-.47-.93-.89-2.1-.47-3.13Z"/><path class="cls-2" d="M73.48,142.71c.28-.88,.77-1.61,1.55-2.1,.89-.56,2.05-.76,3.09-.56,.88,.17,1.54,.83,1.84,1.67,.35,.96,.16,2.02-.18,2.95h-.04c.24-.87,.34-1.79,.04-2.65-.3-.85-.97-1.45-1.86-1.57-1.68-.23-3.82,.51-4.35,2.3-.02,.06-.11,.03-.09-.03Z"/><path class="cls-5" d="M70.61,155.69s-2.38-2.28-3.45-1.38c-1.07,.9,1.09,4.47,2.6,4.71,1.52,.25,1.77-1.15,1.77-1.15l-.92-2.17Z"/><path class="cls-2" d="M67.81,155.32v.04c1.07,.2,1.77,1.02,2.33,1.9-.37-.31-.81-.43-1.23,.02l.04,.05c.39-.17,.7-.16,1.03,.12,.24,.19,.43,.46,.62,.69,.06,.08,.21,0,.16-.1v-.02c-.24-1.27-1.57-2.84-2.95-2.7Z"/><path class="cls-4" d="M78.7,164.74l-1.77,4.9-6.2-5.85-1.62,2.02s6.21,9.44,6.23,9l1.82-4.22,2.97,2.77-.51-7.23-.92-1.4Z"/><path class="cls-2" d="M80.07,169.78c-.12-1.19-.21-2.39-.39-3.58,0-.04-.07-.06-.08,0-.2,1.16,.3,5.71,.34,6.8h-.01c-.12-.13-2.75-2.45-2.77-2.41-.4,.67-1.74,3.75-1.83,4.02-.98-1.5-4.73-6.94-5.88-8.35-.03-.04-.1,0-.07,.04,.88,1.59,5.85,8.92,5.92,8.9,.05,.04,1.72-3.75,1.9-4.46,.45,.51,3.11,3.13,3.11,2.95,.01-1.2-.1-2.73-.23-3.92Z"/><path class="cls-16" d="M243.22,76.1c-1.37,3.96-7,23.45-10.75,24.55-4.73,1.37-8.59,1.35-12.35,1.32-1.11,0-2.21-.02-3.32,.01-2.76,.07-7.03-13.17-4.54-13.25,2.04-.06,5.42,.1,8.42,.25,2.83,.15,5.32,.29,6.02,.26,1.44-.07,6.81-11.17,11.88-15.99,4.56-4.35,5.6,.06,4.64,2.85Z"/><path class="cls-16" d="M218.38,101.62c-.22,.09-3.41,1.3-5.33,1.65-1.44,.26-5.6,.9-6.04-.65-.3-1.06,2.1-1.72,3.78-2.23,.89-.27,2.03-1.05,1.84-1.63-.34-1-2.63-.27-4.16,.42-2.96,1.33-6.97,3.87-8.53,2.28-.59-.6,.26-1.5,1.45-2.34-1.89,.93-3.88,1.65-4.56,1.01-.39-.37-.37-.81-.08-1.29-.57,.12-1.05,.04-1.35-.35-.51-.66-.14-1.53,.58-2.38-.2-.04-.37-.16-.49-.4-1.03-1.99,5.64-6.71,7.81-6.99,6.38-.84,12.91,.11,12.91,.11,2.24,2.21,2.18,12.8,2.17,12.8Z"/><path class="cls-2" d="M209.82,94.95c-1.49,.08-2.99,.48-4.32,1.17-1.69,.88-2.86,1.99-4.31,3.08-.04,.03,0,.09,.04,.06,.69-.52,3.53-2.44,4.26-2.87,1.33-.79,2.78-1.29,4.33-1.41v-.03Z"/><path class="cls-2" d="M208.93,92.19c-1.68,.28-3.41,.56-5,1.18-1.75,.68-3.19,1.92-4.61,3.12-.85,.72-1.68,1.46-2.5,2.21-.03,.03,0,.09,.04,.06,1.44-1.24,2.91-2.44,4.43-3.59,1.42-1.08,2.96-1.86,4.69-2.32,.97-.26,1.96-.45,2.95-.63v-.03Z"/><path class="cls-2" d="M207.42,89.7c-1.62,.16-3.04,.3-4.53,1.01-1.98,.94-3.97,2.65-4.67,3.26-.77,.67-1.52,1.37-2.26,2.08l.05,.05c1.68-1.54,3.47-2.99,5.34-4.3,.89-.63,1.85-1.16,2.89-1.48,1.03-.32,2.12-.46,3.19-.6h0Z"/><path class="cls-15" d="M227.21,86.7l9.86,11.94s5.71-15.75,6.86-22.72c1.21-7.27-1.2-9.43-7.35-1.87-6.06,7.46-9.37,12.64-9.37,12.64Z"/><path class="cls-4" d="M228.62,87.57c-.11,.09-.2,.13-.31,.16-.08,.02-.16,.02-.24,0l.23,.28,.09-.03c.15-.06,.27-.17,.36-.29,.08-.12,.16-.23,.22-.35-.12,.08-.23,.16-.35,.23h0Zm11.32,1.12c-.24-.23-.63-.3-.92-.16-.15,.06-.27,.19-.34,.3-.07,.12-.16,.23-.23,.35,.12-.08,.23-.16,.35-.23,.11-.09,.2-.14,.31-.17,.22-.06,.45,0,.6,.15,.15,.17,.38,.25,.6,.25l.1-.3c-.18,0-.34-.06-.46-.19h0Zm-.75-9.59c-.11,.08-.2,.13-.32,.16-.22,.04-.44-.02-.59-.18-.24-.23-.63-.3-.92-.16-.15,.06-.27,.19-.34,.3-.08,.12-.17,.23-.23,.35,.12-.08,.23-.16,.35-.23,.11-.09,.2-.14,.31-.16,.22-.06,.45,0,.6,.15,.22,.24,.61,.32,.9,.19,.15-.06,.27-.17,.36-.29,.08-.12,.16-.23,.23-.35-.12,.08-.23,.16-.35,.23h0Zm-4.07,4.68c-.02-.14-.04-.27-.08-.41-.03,.13-.05,.27-.08,.41-.02,.14-.04,.24-.1,.34-.12,.19-.33,.31-.53,.31-.33,0-.67,.21-.78,.51-.06,.14-.07,.32-.04,.45,.02,.14,.04,.27,.08,.41,.04-.14,.06-.27,.08-.41,.02-.13,.05-.23,.12-.33,.12-.19,.33-.3,.55-.29,.33,0,.66-.23,.76-.54,.06-.14,.05-.33,.02-.45h0Zm8.36-9.99c-.07,.14-.08,.32-.05,.45,.03,.13,.05,.27,.08,.41,.04-.14,.06-.27,.08-.41,.02-.14,.05-.24,.11-.34,.12-.17,.3-.29,.5-.29,.01-.12,.02-.23,.02-.34-.32,0-.64,.21-.75,.51h0Zm-9.26,20.24c-.13-.02-.23-.05-.33-.11-.19-.12-.3-.33-.29-.55,0-.34-.23-.66-.54-.76-.15-.07-.33-.06-.45-.03-.14,.03-.27,.05-.41,.08,.14,.04,.27,.06,.41,.08,.14,.02,.24,.04,.34,.1,.19,.12,.31,.32,.31,.53,0,.33,.21,.66,.51,.78,.14,.06,.32,.06,.45,.04,.14-.02,.27-.04,.41-.08-.14-.04-.27-.05-.41-.08h0Zm2.32-18.73c-.13-.02-.23-.05-.33-.12-.12-.08-.21-.2-.26-.33-.08,.09-.15,.19-.22,.28,.09,.13,.22,.24,.36,.29,.14,.06,.32,.07,.45,.05,.14-.03,.27-.05,.41-.08-.13-.04-.27-.06-.41-.08Z"/><path class="cls-2" d="M237.37,95.09c-.22-.33-.48-.62-.72-.93-.25-.31-.5-.63-.75-.94-.51-.64-1.03-1.26-1.55-1.89-1.04-1.25-2.08-2.5-3.15-3.73-.29-.34-.59-.68-.89-1.01-.32-.35-.66-.67-.97-1.02l-.03,.03c.25,.32,.47,.66,.72,.97,.25,.33,.51,.65,.77,.97,.52,.63,1.04,1.26,1.56,1.88,1.04,1.22,2.07,2.45,3.13,3.65,.3,.33,.6,.67,.89,1,.31,.35,.61,.73,.95,1.05l.03-.03Z"/><path class="cls-10" d="M237.07,98.64h0c.02-.06,3.42-9.45,5.5-16.92-2.08,7.5-5.5,16.92-5.5,16.92h0Zm6.64-21.53c.09-.42,.16-.82,.22-1.19,.14-.87,.24-1.67,.28-2.38v-.02c-.04,.72-.13,1.52-.28,2.4-.06,.37-.14,.77-.22,1.19h0Zm.51-3.84c.01-.3,.01-.59,0-.86,0,.27,0,.56,0,.86h0Z"/><path class="cls-17" d="M237.07,98.64l-6.2-7.51,1.14-2.12c.12,.14,.24,.28,.35,.42,1.04,1.22,2.07,2.45,3.13,3.65,.3,.33,.6,.67,.89,1,.31,.35,.61,.73,.95,1.05l.03-.03c-.22-.33-.48-.62-.72-.93-.25-.31-.5-.63-.75-.94-.51-.64-1.03-1.26-1.55-1.89-.73-.87-1.45-1.74-2.18-2.61l2.13-3.96h.04c.33,0,.66-.23,.76-.54,.06-.14,.05-.33,.02-.45-.02-.14-.04-.27-.08-.4l2.22-4.13c.06-.04,.13-.06,.2-.08,.06-.02,.11-.02,.17-.02,.16,0,.32,.06,.43,.17,.15,.16,.38,.25,.6,.25,.11,0,.21-.02,.31-.06,.15-.06,.27-.17,.36-.29,.08-.12,.16-.23,.23-.35-.12,.08-.23,.16-.35,.23-.11,.08-.2,.13-.32,.16-.05,0-.09,.01-.14,.01-.17,0-.33-.07-.45-.2-.16-.15-.37-.23-.59-.23-.09,0-.17,.01-.25,.04l5.13-9.55c1.05,.06,1.6,1.17,1.65,3.09,0,.27,0,.56,0,.86-.32,0-.64,.21-.75,.51-.07,.14-.08,.32-.05,.45,.03,.13,.05,.27,.08,.41,.04-.14,.06-.27,.08-.41,.02-.14,.05-.24,.11-.34,.12-.17,.3-.29,.5-.29,0-.02,0-.05,0-.07-.04,.72-.13,1.51-.28,2.38-.06,.37-.14,.77-.22,1.19-.28,1.36-.68,2.93-1.14,4.61-2.08,7.47-5.47,16.86-5.5,16.92h0Zm-4.29-6.08c-.07,0-.13,0-.19,.02-.14,.03-.27,.05-.41,.08,.14,.04,.27,.06,.41,.08,.14,.02,.24,.04,.34,.1,.19,.12,.31,.32,.31,.53,0,.33,.21,.66,.51,.78,.09,.04,.19,.06,.28,.06,.06,0,.12,0,.17-.01,.14-.02,.27-.04,.41-.08-.14-.04-.27-.05-.41-.08-.13-.02-.23-.05-.33-.11-.19-.12-.3-.33-.29-.55,0-.34-.23-.66-.54-.76-.08-.04-.18-.05-.26-.05h0Zm6.49-3.8c.16,0,.32,.06,.43,.17,.15,.17,.38,.25,.6,.25l.1-.3h-.02c-.17,0-.33-.06-.45-.19-.16-.15-.37-.23-.59-.23-.12,0-.23,.02-.33,.07-.15,.06-.27,.19-.34,.3-.07,.12-.16,.23-.23,.35,.12-.08,.23-.16,.35-.23,.11-.09,.2-.14,.31-.17,.06-.02,.11-.02,.17-.02h0Zm-4.79-4.35c.15-.04,.28-.15,.37-.29,.06-.1,.08-.2,.1-.34,.03-.13,.05-.26,.08-.39l-.55,1.01Z"/><path class="cls-12" d="M234.05,94.21c-.1,0-.2-.02-.28-.06-.31-.12-.51-.45-.51-.78,0-.21-.12-.41-.31-.53-.1-.06-.2-.08-.34-.1-.14-.02-.27-.04-.41-.08,.14-.03,.27-.05,.41-.08,.05-.01,.12-.02,.19-.02,.09,0,.18,.01,.26,.05,.31,.11,.53,.42,.54,.76,0,.22,.1,.42,.29,.55,.1,.06,.2,.09,.33,.11,.14,.03,.27,.05,.41,.08-.14,.04-.27,.06-.41,.08-.05,0-.11,.01-.17,.01h0Zm6.26-5.03c-.22,0-.45-.09-.6-.25-.11-.11-.27-.17-.43-.17-.06,0-.11,0-.17,.02-.11,.02-.21,.07-.31,.17-.12,.07-.22,.16-.35,.23,.07-.12,.16-.23,.23-.35,.08-.11,.19-.24,.34-.3,.1-.05,.22-.07,.33-.07,.21,0,.43,.08,.59,.23,.12,.13,.28,.19,.45,.19h.02l-.1,.3h0Zm-5.98-4.42h-.04l.19-.36c.15-.04,.28-.15,.37-.29,.06-.1,.08-.2,.1-.34,.03-.13,.05-.26,.08-.39h0c.04,.12,.06,.25,.08,.39,.02,.12,.03,.31-.02,.45-.11,.31-.43,.53-.76,.54h0Zm4.32-5.2c-.22,0-.44-.09-.6-.25-.11-.11-.27-.17-.43-.17-.06,0-.11,0-.17,.02-.07,.02-.14,.04-.2,.08l.2-.36c.08-.03,.16-.04,.25-.04,.21,0,.43,.08,.59,.23,.12,.13,.28,.2,.45,.2,.05,0,.09,0,.14-.01,.12-.02,.21-.07,.32-.16,.12-.07,.23-.16,.35-.23-.07,.12-.15,.23-.23,.35-.08,.12-.21,.23-.36,.29-.1,.04-.2,.06-.31,.06h0Zm4.86-4.92c-.03-.14-.05-.27-.08-.41-.02-.13-.02-.31,.05-.45,.11-.3,.43-.51,.75-.51h0c0,.08,0,.17-.01,.25v.02s0,.05,0,.07c-.2,0-.39,.12-.5,.29-.06,.1-.1,.2-.11,.34-.03,.13-.04,.27-.08,.41Z"/><path class="cls-25" d="M237.33,95.12c-.34-.32-.64-.69-.95-1.05-.3-.33-.6-.67-.89-1-1.06-1.2-2.09-2.43-3.13-3.65-.12-.14-.24-.28-.35-.42l.15-.28c.73,.87,1.46,1.74,2.18,2.61,.52,.63,1.04,1.25,1.55,1.89,.25,.31,.5,.63,.75,.94,.24,.3,.51,.6,.72,.93l-.03,.03Z"/><path class="cls-15" d="M263.3,107.97c-4.77,3.64-10.72,5.8-17.18,5.8-5.97,0-11.51-1.84-16.07-5,2.06-10.64,7.12-33.49,9.85-37.05,.75-.98,3.23-1.25,5.34-.99,.59,.07,1.14,.19,1.63,.33h.05c.49,.17,.91,.37,1.19,.6,4.39,3.5,11.84,25.37,15.19,36.31Z"/><path class="cls-4" d="M245.37,83.97c-.13-.02-.23-.05-.33-.12-.19-.12-.3-.33-.29-.55,0-.33-.23-.66-.54-.76-.15-.06-.33-.05-.45-.02-.14,.02-.27,.04-.41,.08,.14,.03,.27,.05,.41,.08,.14,.02,.24,.05,.34,.1,.19,.12,.31,.33,.31,.53,0,.32,.21,.66,.51,.77,.14,.06,.32,.07,.45,.05,.14-.03,.27-.05,.41-.08-.13-.04-.27-.06-.41-.08h0Zm6.02,26.23c-.14-.02-.24-.05-.34-.12-.19-.12-.3-.33-.29-.55,0-.34-.23-.66-.54-.76-.14-.06-.32-.05-.45-.02-.13,.02-.27,.04-.41,.08,.13,.04,.27,.06,.41,.08,.14,.02,.24,.05,.34,.11,.19,.12,.31,.32,.31,.53,0,.33,.2,.66,.51,.77,.14,.07,.32,.08,.46,.05,.13-.03,.27-.05,.41-.08-.14-.04-.27-.06-.41-.08h0Zm-10.04-4.24c-.14-.02-.24-.06-.34-.12-.18-.12-.3-.33-.29-.55,0-.34-.23-.66-.54-.76-.14-.06-.33-.06-.45-.04-.14,.04-.27,.05-.41,.08,.13,.04,.27,.06,.41,.08,.14,.02,.24,.04,.34,.1,.19,.12,.31,.32,.31,.53,0,.32,.2,.66,.51,.77,.14,.06,.33,.06,.46,.04,.13-.02,.27-.04,.41-.08-.14-.03-.27-.05-.41-.07h0Zm6.73-11.09c-.13-.02-.23-.05-.33-.11-.19-.12-.3-.33-.29-.55,0-.34-.23-.66-.54-.76-.14-.07-.33-.06-.45-.03-.14,.03-.27,.05-.41,.08,.14,.04,.27,.06,.41,.08,.14,.02,.24,.04,.34,.1,.19,.12,.31,.32,.31,.53,0,.33,.21,.66,.52,.78,.14,.06,.32,.06,.45,.04,.14-.02,.27-.04,.41-.08-.14-.03-.27-.05-.41-.08h0Zm-13.88-.83c-.13-.02-.23-.05-.33-.11-.19-.12-.3-.33-.29-.55,0-.17-.06-.33-.15-.47-.06,.23-.11,.45-.16,.68,.07,.25,.25,.47,.49,.56,.14,.06,.32,.06,.45,.04,.14-.02,.27-.04,.41-.08-.14-.04-.27-.05-.41-.08h0Zm25.17,7.9c-.13-.02-.24-.05-.33-.12-.19-.12-.3-.33-.29-.55,0-.34-.23-.66-.54-.76-.15-.06-.33-.05-.46-.02-.13,.02-.27,.04-.41,.08,.14,.04,.27,.06,.41,.08,.15,.02,.25,.05,.35,.11,.19,.12,.31,.32,.31,.53,0,.33,.21,.66,.51,.77,.15,.07,.33,.08,.46,.05,.14-.03,.27-.05,.41-.08-.13-.04-.27-.06-.41-.08h0Zm-1.68-8.56c-.12,.09-.21,.14-.32,.18-.22,.05-.45,0-.6-.16-.22-.23-.61-.32-.9-.19-.15,.06-.28,.17-.35,.29-.08,.12-.16,.22-.23,.35,.12-.08,.23-.16,.35-.23,.1-.08,.2-.13,.31-.16,.23-.04,.44,.02,.6,.18,.24,.23,.62,.3,.92,.16,.14-.06,.27-.19,.34-.3,.07-.12,.16-.23,.22-.35-.12,.07-.22,.16-.34,.23h0Zm-12.66-20.74c-.02-.14-.04-.28-.08-.41-.04,.13-.06,.27-.08,.41-.02,.14-.05,.24-.11,.34-.12,.19-.33,.32-.53,.31-.33,0-.66,.2-.77,.51-.07,.14-.08,.32-.05,.45,.03,.13,.05,.27,.08,.41,.04-.14,.06-.27,.08-.41,.02-.14,.05-.24,.11-.34,.12-.19,.33-.3,.55-.29,.34,0,.66-.23,.76-.54,.06-.14,.05-.32,.02-.45h0Zm-4.42,23.92c-.02-.14-.04-.27-.08-.41-.04,.13-.05,.27-.08,.41-.02,.14-.04,.24-.1,.34-.12,.19-.32,.31-.53,.31-.32,0-.66,.21-.78,.51-.06,.14-.07,.31-.04,.45,.02,.14,.04,.27,.08,.42,.04-.14,.06-.28,.08-.42,.02-.13,.05-.23,.12-.33,.12-.19,.32-.3,.55-.29,.33-.01,.66-.23,.76-.54,.06-.14,.05-.32,.02-.45h0Zm12.15-10.1c-.03-.13-.05-.27-.08-.41-.04,.14-.06,.27-.08,.41-.02,.15-.05,.25-.11,.35-.12,.19-.31,.31-.53,.31-.33-.01-.66,.21-.77,.51-.07,.14-.08,.31-.04,.45,.02,.14,.04,.27,.07,.41,.04-.13,.06-.27,.08-.41,.02-.13,.06-.23,.12-.33,.12-.19,.32-.3,.55-.29,.34,0,.66-.23,.76-.54,.06-.15,.05-.33,.03-.46h0Zm-17.44,24.23c-.03-.14-.05-.27-.08-.41-.04,.13-.06,.27-.08,.41-.02,.14-.04,.24-.11,.34-.1,.17-.28,.29-.47,.3,.14,.06,.28,.13,.42,.18,.13-.1,.23-.23,.29-.38,.06-.14,.06-.33,.03-.45h0Zm16.52-31.94c-.11,.08-.2,.13-.31,.16-.23,.04-.44-.02-.59-.18-.24-.23-.63-.3-.92-.16-.15,.06-.27,.19-.34,.3-.07,.12-.16,.23-.23,.35,.12-.08,.23-.16,.35-.23,.11-.09,.2-.14,.32-.17,.21-.06,.45,0,.6,.15,.22,.24,.61,.32,.91,.19,.15-.06,.27-.17,.36-.29,.08-.12,.16-.23,.23-.35-.12,.08-.23,.16-.35,.23h0Zm-12.66,.36c-.11,.08-.2,.13-.32,.16-.22,.04-.44-.02-.59-.18-.24-.23-.63-.3-.92-.16-.15,.06-.27,.19-.34,.3-.03,.04-.06,.09-.09,.13-.02,.05-.03,.1-.04,.15,.09-.06,.17-.11,.25-.17,.11-.09,.2-.14,.31-.16,.22-.06,.45,0,.6,.15,.22,.24,.61,.32,.9,.19,.15-.06,.27-.17,.36-.29,.08-.12,.16-.23,.23-.35-.12,.08-.23,.16-.35,.23h0Zm1.65,9.61c-.11,.09-.2,.13-.32,.16-.22,.04-.44-.02-.59-.18-.24-.23-.63-.3-.92-.16-.15,.06-.27,.19-.34,.3-.07,.12-.16,.23-.23,.35,.12-.08,.23-.16,.35-.23,.11-.09,.2-.14,.31-.17,.22-.06,.45,0,.6,.15,.23,.24,.61,.32,.91,.19,.15-.06,.27-.17,.36-.29,.07-.12,.16-.23,.23-.35-.12,.08-.23,.16-.35,.23h0Zm-7.46,14.69c-.11,.09-.21,.14-.32,.16-.22,.05-.44-.02-.6-.17-.24-.24-.62-.31-.91-.17-.15,.07-.27,.2-.34,.3-.06,.08-.12,.16-.17,.24l-.02,.07c.1-.06,.2-.13,.3-.2,.11-.09,.2-.14,.31-.17,.22-.05,.45,0,.59,.16,.23,.23,.62,.32,.91,.19,.15-.06,.27-.18,.35-.29,.07-.12,.17-.23,.23-.35-.12,.07-.23,.15-.35,.23h0Zm16.4-1.08c-.11,.08-.21,.13-.33,.16-.22,.04-.44-.02-.59-.18-.24-.24-.63-.31-.92-.16-.14,.06-.27,.19-.34,.3-.08,.11-.16,.21-.23,.34,.12-.06,.23-.15,.35-.23,.12-.08,.21-.13,.31-.17,.22-.05,.45,0,.6,.16,.22,.23,.62,.32,.91,.19,.15-.06,.28-.18,.36-.29,.07-.12,.16-.23,.22-.35-.12,.07-.22,.15-.34,.23h0Zm-6.16,9.95c-.11,.08-.21,.13-.33,.16-.22,.04-.44-.02-.59-.18-.24-.24-.63-.31-.92-.16-.14,.06-.27,.19-.34,.3-.08,.11-.16,.21-.23,.34,.12-.06,.23-.15,.35-.23,.12-.08,.2-.13,.31-.17,.22-.05,.45,0,.6,.16,.22,.23,.62,.32,.9,.19,.15-.06,.28-.18,.36-.29,.07-.12,.16-.23,.22-.35-.12,.07-.22,.15-.34,.23h0Zm17.36-4.3c-.11,.08-.21,.13-.31,.16-.23,.04-.44-.02-.6-.18-.24-.23-.62-.3-.91-.16-.15,.06-.27,.19-.34,.3-.08,.12-.16,.23-.23,.35,.12-.08,.23-.16,.35-.23,.11-.09,.2-.14,.32-.17,.21-.05,.45,0,.59,.16,.23,.23,.62,.32,.91,.19,.15-.06,.27-.18,.35-.29,.08-.12,.16-.22,.23-.35-.12,.08-.23,.16-.35,.23Z"/><path class="cls-16" d="M253.21,76.15c7.75,12.58,14.81,26.56,12.23,30.12-2.08,2.88-20.98,10.59-27.28,11.08-2,.15-6.96-14.58-3.65-15.77,.94-.34,16.3-3.27,16.39-3.63,.3-1.14-1.77-8.82-3.67-17.57-2.45-11.26,2.69-9.55,5.97-4.23Z"/><path class="cls-16" d="M227.03,104.18c.94-.34,1.49-1.08-.19-1.64-1.7-.57-8.81-1.34-8.32-3.8,.48-2.47,10.37-.75,13.25-.07,4.83,1.15,6.99,4.95,6.99,4.95-4.59,.27-8.11,.49-11.72,.56Z"/><path class="cls-2" d="M221.7,97.45c.95-.09,1.91-.09,2.86-.06,.95,.03,1.91,.12,2.85,.24,1.89,.25,3.77,.67,5.54,1.4-.47-.09-.93-.22-1.4-.3-.46-.1-.93-.19-1.39-.27-.93-.15-1.87-.31-2.81-.43-.94-.13-1.88-.23-2.82-.33-.47-.05-.94-.09-1.42-.13-.47-.05-.95-.08-1.42-.12Z"/><rect class="cls-30" x="222.62" y="86.53" width="1.47" height="32.71" transform="translate(119.88 325.96) rotate(-89.85)"/><polygon class="cls-2" points="207 102.11 207 103.57 229.23 103.63 228.12 102.16 207 102.11"/><polygon class="cls-13" points="226.7 103.62 194.82 103.55 192.22 81.88 224.1 81.96 226.7 103.62"/><path class="cls-4" d="M211.4,92.76c.02,1.07-.84,1.94-1.91,1.94-1.07,0-1.95-.87-1.97-1.95-.02-1.07,.84-1.94,1.91-1.94,1.07,0,1.95,.87,1.97,1.95Z"/><path class="cls-16" d="M238.13,117.35c-5.62,.32-13.7-.51-18.95-4.14-1.03-.71-1.27-1.64-1.27-1.64-2.38-1.59-2.35-3.19-2.35-3.19-1.77-2.16-1.51-3.79-1.51-3.79,0,0-2.78-1.89-1.91-3.76,.96-2.1,4.67,.97,7.75,1.41,7.04,1.01,17.47,1.49,19.52,1.58l-1.29,13.53Z"/><path class="cls-2" d="M226.52,108.47c-2.07-.34-4.1-.62-6.11-1.23-2.2-.68-4.21-1.69-6.28-2.68-.06-.03-.11,.06-.06,.1,3.47,2.38,8.24,3.8,12.44,3.91,.1,0,.12-.08,.01-.09Z"/><path class="cls-2" d="M226.53,112.8c-1.99-.44-5.49-1.24-10.94-4.49l-.02,.03c3.26,2.59,6.85,4.01,10.94,4.56,.13,.02,.15-.07,.02-.09Z"/><path class="cls-2" d="M226.49,115.14c-3.36-.88-5.36-1.85-8.57-3.59l-.02,.03c3.43,2.35,4.95,2.81,8.58,3.67,.12,.03,.15-.09,.01-.12Z"/><path class="cls-15" d="M249.62,94.39l15.48,.41s-8.13-14.65-12.62-20.1c-4.69-5.68-7.9-5.29-6.24,4.32,1.64,9.47,3.38,15.37,3.38,15.37Z"/><path class="cls-4" d="M251.85,78.74c-.11,.08-.2,.13-.31,.16-.23,.04-.44-.02-.59-.18-.24-.23-.63-.3-.92-.16-.15,.06-.27,.19-.34,.3-.07,.12-.16,.23-.23,.35,.12-.08,.23-.16,.35-.23,.11-.09,.2-.14,.32-.17,.21-.06,.45,0,.6,.15,.22,.24,.61,.32,.91,.19,.15-.06,.27-.17,.36-.29,.08-.12,.16-.23,.23-.35-.12,.08-.23,.16-.35,.23h0Zm.92,7.71c-.03-.13-.05-.27-.08-.41-.04,.14-.06,.27-.08,.41-.02,.15-.05,.25-.11,.35-.12,.19-.31,.31-.53,.31-.33-.01-.66,.21-.77,.51-.07,.14-.08,.31-.04,.45,.02,.14,.04,.27,.07,.41,.04-.13,.06-.27,.08-.41,.02-.13,.06-.23,.12-.33,.12-.19,.32-.3,.55-.29,.34,0,.66-.23,.76-.54,.06-.15,.05-.33,.03-.46h0Zm3.98-5.68c-.07,.07-.13,.16-.16,.25-.06,.14-.06,.32-.04,.45,.02,.14,.04,.27,.08,.41,.04-.14,.06-.27,.08-.41,.02-.13,.05-.23,.12-.33,.03-.04,.06-.08,.09-.11-.06-.08-.11-.17-.17-.26h0Zm.96,12.6c-.12,.09-.21,.14-.32,.18-.22,.05-.45,0-.6-.16-.22-.23-.61-.32-.9-.19-.15,.06-.28,.17-.35,.29-.08,.12-.16,.22-.23,.35,.12-.08,.23-.16,.35-.23,.1-.08,.2-.13,.31-.16,.23-.04,.44,.02,.6,.18,.24,.23,.62,.3,.92,.16,.14-.06,.27-.19,.34-.3,.07-.12,.16-.23,.22-.35-.12,.07-.22,.16-.34,.23h0Zm3.45-5.42c-.07-.01-.14-.02-.21-.04-.14-.02-.24-.06-.34-.11-.18-.12-.3-.33-.29-.55,0-.34-.23-.66-.54-.76-.14-.06-.33-.06-.45-.03-.14,.03-.27,.05-.41,.08,.13,.04,.27,.06,.41,.08,.14,.02,.24,.04,.34,.11,.19,.12,.32,.32,.32,.53,0,.33,.2,.66,.51,.77,.14,.07,.32,.07,.45,.04,.08-.02,.17-.03,.25-.05,.05,0,.1-.02,.16-.04-.07-.02-.14-.03-.2-.04Z"/><path class="cls-2" d="M262.62,92.25c-.39-.05-.79-.05-1.18-.06-.4-.02-.8-.03-1.2-.05-.81-.04-1.63-.06-2.44-.07-1.63-.03-3.25-.07-4.88-.08-.45,0-.89,0-1.34,0-.47,.01-.94,.06-1.41,.06v.04c.41,.02,.81,.07,1.21,.1,.41,.02,.83,.04,1.24,.05,.81,.02,1.63,.04,2.44,.05,1.6,.02,3.21,.05,4.81,.04,.45,0,.89-.01,1.34-.01,.47,0,.95,.02,1.41-.03v-.04Z"/><path class="cls-2" d="M259.96,86.48c-.55-.94-1.08-1.89-1.62-2.83-.61-1.07-1.19-2.16-1.79-3.24l.05-.03c.71,1.14,3.09,4.92,3.48,5.56,1.13,1.88,2.26,3.76,3.37,5.65,.62,1.06,1.32,2.29,1.93,3.35,.04,.08-1.21-.01-1.87-.08-.04,0-.08-.11-.04-.11,.62,.02,1.45-.05,1.53-.05-1.14-1.78-2.25-3.57-3.34-5.38-.58-.95-1.15-1.9-1.71-2.85Z"/><path class="cls-2" d="M247.71,87.16c-.31-.51-.55-1.08-.65-1.67h.02c.16,.51,.35,1.01,.59,1.49-.04-.22-.09-.43-.13-.65-.15-.78-.31-1.55-.43-2.34h.02c.36,1.33,.66,2.68,.99,4.03,.33,1.36,.66,2.73,.98,4.09,.18,.74,.36,1.49,.52,2.24,.25,.03,.45,.02,.67,.05,.06,0,.06,.11,0,.11-.28,.01-.83,0-.84-.03-.72-2.4-1.25-4.86-1.74-7.31Z"/><path class="cls-16" d="M241.05,77.19c1.94,.31,5-2.85,6.11-5.31,.08-.17-.3-1.86-.66-3.93-.21-1.26-.42-2.67-.52-3.96l-7.99,2.59s1,2.66,1.16,4.92c.01,.19,0,.37-.02,.54v.09c-.09,1.02,.04,4.77,1.91,5.07Z"/><path class="cls-2" d="M245.42,64.17c-.11,1.74-.81,7.48-5.45,7.93-.3,.03-.58,.04-.84,.02v-.09c.03-.17,.03-.35,.02-.54-.16-2.26-1.16-4.92-1.16-4.92l7.43-2.4Z"/><path class="cls-16" d="M244.72,53.4c1.53,2.61,1.98,11.1,.41,13.39-2.28,3.32-6.97,4.7-10.03,1.75-2.97-2.87-3.36-13.94-1.52-16.12,2.72-3.21,8.88-2.87,11.14,.98Z"/><path class="cls-2" d="M238.18,60.36l.05,.05c.01,.57,.13,1.22,.66,1.38v.03c-.64-.05-.78-.92-.7-1.47Z"/><path class="cls-2" d="M238.66,59.74c.91-.12,1.09,1.72,.25,1.83-.83,.11-1.01-1.73-.25-1.83Z"/><path class="cls-2" d="M234.79,60.58l-.04,.05c.07,.57,.06,1.23-.43,1.47v.03c.63-.15,.63-1.03,.47-1.56Z"/><path class="cls-2" d="M234.22,60.03c-.92,.02-.82,1.86,.04,1.85,.84-.02,.73-1.86-.04-1.85Z"/><path class="cls-2" d="M239.3,58.83c-.26-.04-.49-.12-.74-.18-.28-.07-.51-.1-.72-.33-.11-.12-.09-.36,.02-.48,.25-.27,.62-.27,.96-.19,.37,.08,.64,.24,.88,.53,.23,.29-.06,.7-.4,.65Z"/><path class="cls-2" d="M233.42,59.17c.25-.07,.47-.17,.71-.26,.27-.1,.5-.16,.68-.4,.1-.13,.05-.37-.07-.47-.28-.24-.64-.2-.98-.09-.36,.12-.61,.31-.81,.63-.2,.31,.14,.69,.47,.6Z"/><path class="cls-2" d="M239.13,65.52c-.12,.15-.24,.34-.45,.38-.2,.04-.44-.03-.63-.08l-.02,.03c.17,.2,.49,.31,.75,.24,.25-.07,.36-.31,.4-.55l-.06-.02Z"/><path class="cls-2" d="M238.36,63.87c-.27,.53-.71,.84-1.21,.99-.22,.07-.46,.1-.7,.1-.05,0-.09,0-.13,0-.04,0-.08,0-.13,0-.07,0-.11-.05-.13-.12h0v-.06h0v-.05c-.06-.44-.08-1.11-.08-1.11-.15,.1-.93,.54-.94,.31-.07-1.91-.15-4.03,.18-5.94,0-.06,.1-.06,.11,0,.14,1.83-.04,3.67,.07,5.52,.25-.12,.66-.35,.89-.37,.06,.01,.02,1.3,.06,1.49v.02c.75,.02,1.29-.25,1.95-.82,.04-.04,.09,0,.06,.05Z"/><path class="cls-2" d="M234.88,54.51c.79,.79,1.92,1.14,3.01,.88,1.06-.25,2.07-1.07,2.38-2.14h.05c-.33,1.16-1.17,2.14-2.37,2.39-1.13,.24-2.39-.2-3.13-1.08-.03-.04,.02-.09,.06-.06Z"/><path class="cls-2" d="M237.44,47.36c1.3-.48,2.82,.03,3.71,1.06,.54,.62,.84,1.36,1.01,2.15h-.05c-.34-1.23-1.24-2.43-2.47-2.89-1.17-.45-2.45-.22-3.3,.74-.44,.5-.71,1.15-.74,1.82,0,.07-.11,.07-.12,0-.03-1.25,.77-2.43,1.95-2.87Z"/><path class="cls-2" d="M227.69,51.34c.22-.89,.77-1.67,1.5-2.21,1.03-.75,2.26-.73,3.48-.7v.05c-1.04-.03-2.1,0-3.01,.56-.74,.45-1.35,1.16-1.63,1.98-.6,1.71,.23,3.73,1.87,4.51,.93,.44,2.05,.48,3,.09,.04-.02,.07,.04,.03,.06-1.74,.76-3.9,.09-4.84-1.58-.46-.83-.63-1.84-.41-2.76Z"/><path class="cls-2" d="M245.11,53.81s-.38-2.57-1.12-3.3c-.74-.73-2.24-.78-2.24-.78,0,0-1.06-2.11-3.16-2.07-1.89,.04-3.01,1.8-3.01,1.8,0,0-2.82-2.34-5.66-.62-2.69,1.64-1.95,5.89,.9,7.02,2,.79,4.49-1.12,4.49-1.12,.25,.02,2.95,1.37,4.72-1.08,0,0,1.88,1.21,2.8,.16,0,0,1.41,.52,2.28-.02Z"/><path class="cls-9" d="M245.79,57.05c-.17-1.1-.41-2.09-.7-2.86h0c.29,.76,.53,1.76,.7,2.86h0Z"/><path class="cls-1" d="M245.09,54.2c-.04-.11-.08-.21-.12-.31h0c.04,.1,.08,.2,.13,.31h0Z"/><path class="cls-8" d="M246.11,60.59h0c-.03-1.2-.14-2.43-.31-3.54h0c.17,1.12,.28,2.34,.31,3.54Z"/><path class="cls-14" d="M246.1,60.59c-.53-.32-1.66-2.4-2.17-3.27-.29-.49-.53-1.94-.7-3.38,.23,.05,.54,.11,.87,.11,.29,0,.6-.04,.87-.17,.04,.1,.08,.2,.12,.31,.29,.76,.53,1.76,.7,2.86h0c.17,1.12,.28,2.34,.31,3.54Z"/><path class="cls-2" d="M244.1,54.06c-.32,0-.63-.05-.87-.11-.11-.89-.19-1.78-.24-2.41,.7,.48,1.29,1.11,1.74,1.87,.08,.14,.17,.31,.24,.48h0c-.27,.13-.57,.17-.87,.17Z"/><path class="cls-16" d="M244.57,60.44s1.27-3.04,2.61-2.64c1.34,.4,.78,4.53-.51,5.36-1.29,.83-2.08-.35-2.08-.35l-.02-2.36Z"/><path class="cls-2" d="M246.99,58.98l.02,.04c-.9,.61-1.22,1.64-1.38,2.67,.21-.43,.57-.72,1.14-.47l-.02,.06c-.42,0-.7,.13-.9,.52-.14,.27-.21,.59-.29,.88-.03,.1-.2,.09-.19-.02v-.02c-.29-1.25,.3-3.23,1.62-3.65Z"/><path class="cls-13" d="M239.13,71.94l2.66,4.49,5-6.91,1.97,1.68s-4.34,10.43-4.44,10l-2.58-3.8-2.4,3.28-.85-7.19,.64-1.54Z"/><path class="cls-2" d="M238.71,77.15c-.1-1.19-.24-2.39-.28-3.59,0-.04,.06-.07,.08-.02,.41,1.1,.77,5.67,.94,6.75h.01c.1-.16,2.24-2.92,2.27-2.89,.52,.59,2.41,3.35,2.55,3.61,.68-1.66,3.35-7.7,4.22-9.3,.03-.05,.09-.02,.08,.03-.57,1.72-4.08,9.86-4.15,9.85-.04,.04-2.39-3.36-2.7-4.02-.35,.58-2.47,3.66-2.5,3.48-.24-1.18-.41-2.7-.51-3.9Z"/><path class="cls-2" d="M42.04,93.05c2.84,3.07,7.49,4.01,11.5,4,4.09-.02,8.64-.72,12.2-2.86,1.56-.94,2.96-2.25,3.79-3.88,.9-1.75,.89-3.53-.3-5.03-.96-1.21-2.94-1.99-3.03-3.15-.08-1.19,.8-2.15,.98-3.29,.31-1.95-.82-3.31-2.23-4.46-3.35-2.73-2.77-6.68-4.95-10.22-1.24-2.01-4.62-5.64-10.06-3.5-2.07,.81-3.38,2.85-4.1,4.92-.85,2.43,.09,5.49-.99,7.85-.92,2.01-2.45,2.43-3.32,4.53-.38,.91-.52,1.95,.56,3.97,.39,.73,.83,1.85,.58,2.77-.34,1.27-1.76,1.94-2.15,3.27-.54,1.83,.27,3.73,1.52,5.09Z"/><path class="cls-2" d="M68.33,90.88c1.89-.45,2.52-3.16,1.21-4.43-.83-.81-2.01-1.12-2.83-1.93-1.36-1.32-.33-2.67,.26-4.1,1.27-3.1-.9-4.99-3.16-6.69-1.72-1.29-2.16-2.88-2.42-4.95h.06c.26,1.51,.58,2.99,1.72,4.11,.93,.91,2.12,1.49,3.02,2.44,1.51,1.59,1.81,3.41,.97,5.41-.24,.57-.73,1.24-.81,1.85-.17,1.44,.95,2.11,2.01,2.74,.81,.48,1.71,1.02,2.07,1.95,.54,1.41-.6,3.45-2.06,3.72-.07,.01-.11-.1-.03-.11Z"/><path class="cls-2" d="M67.4,92.41c1.12-.8,2.34-1.54,2.94-2.84,.89-1.92-.49-3.23-1.77-4.45-.55-.53-1.02-1.06-1.05-1.85-.05-1.19,.74-2.25,.79-3.44,.13-2.84-2.74-4.34-4.28-6.3-1.57-2-2.21-4.43-2.9-6.83-.01-.05,.06-.07,.08-.02,.9,3.06,2.03,5.92,4.38,8.15,1.64,1.56,3.39,3.26,2.87,5.73-.13,.61-.44,1.17-.55,1.78-.23,1.2,.14,1.94,.97,2.73,.8,.76,1.72,1.52,1.95,2.67,.44,2.22-1.66,3.86-3.33,4.85-.11,.07-.21-.09-.11-.17Z"/><path class="cls-2" d="M39.96,87.3c.84-1.43,2.29-2.23,1.74-4.14-.38-1.31-1.19-2.32-1.04-3.76,.12-1.19,.79-2.16,1.61-3,1.03-1.07,2.2-1.96,2.91-3.3,.77-1.47,1.04-3.13,1.31-4.74h.06c-.25,2.19-.6,4.43-2.07,6.16-.77,.9-1.74,1.62-2.49,2.53-1.37,1.64-1.21,3.31-.41,5.15,.37,.85,.71,1.7,.39,2.62-.32,.92-1.11,1.54-1.63,2.33-2.22,3.36,1.94,7.04,5.15,7.35,.14,.01,.15,.24,0,.23-2.39-.16-5.07-2.11-5.8-4.41-.32-1.01-.25-2.11,.29-3.03Z"/><path class="cls-2" d="M40.21,88.97c-.1-1.41,.71-2.27,1.29-3.44,.91-1.83-.34-3.46-.63-5.28-.2-1.27,.22-2.4,.92-3.41,.95-1.35,2.22-2.37,2.96-3.89,.78-1.6,1.05-3.43,.81-5.23h.05c.4,2.5-.16,4.93-1.67,6.88-.96,1.23-2.31,2.29-2.76,3.88-.48,1.68,.46,3.1,.82,4.7,.23,1.04,.07,1.9-.44,2.79-.37,.64-.85,1.24-1.02,1.99-.23,1.02,.08,2.1,.56,3,1.53,2.86,4.8,4.45,7.79,4.67,.1,0,.11,.18,0,.17-2.67-.17-5.3-1.38-7.12-3.48-.8-.92-1.47-2.1-1.56-3.35Z"/><path class="cls-3" d="M51.76,86.82c2.23,9.07,7.64,23.17,12.41,23.1,4.36-.07,14.09-7.8,18.16-10.33,4.1-2.55-5.06-12.52-7.4-10.9-3.62,2.5-9.04,6.97-9.95,6.68-1.14-.37-2.59-3.17-9.1-11.44-2.66-3.38-5.07-.96-4.12,2.9Z"/><path class="cls-3" d="M79.31,84.84c1.92-.68,4.07-1.61,6.2-1.57,2.13,.04,3.91,2.86,3.91,3.66s-.81,5.84-2.94,5.84-.85-3.86-.93-4.31c-.08-.44-.16-1.01-.56-.97-.4,.04-7.45,3.38-7.45,3.38l1.77-6.04Z"/><path class="cls-3" d="M79.45,85.13c.12,0,5.84-2.25,7.97-2.21,2.13,.04,3.91,2.86,3.91,3.66,0,.81-.81,5.84-2.94,5.84s-.85-3.87-.93-4.31c-.08-.44-.16-1.01-.56-.97-.4,.04-7.45,3.38-7.45,3.38v-5.4Z"/><path class="cls-2" d="M87.66,92.15c-.26-.34-.31-.84-.35-1.26-.05-.45-.01-.92,.08-1.36,.08-.39,.25-.77,.26-1.17,.01-.37-.12-.81-.3-1.13-.17-.3-.48-.2-.75-.1-.4,.14-.78,.34-1.16,.52-.41,.2-.81,.41-1.22,.62-.42,.21-.85,.41-1.24,.68l.03,.06c.37-.13,.73-.32,1.08-.49,.41-.19,.81-.38,1.22-.56,.38-.17,.76-.36,1.14-.52,.14-.06,.41-.2,.56-.17,.16,.04,.24,.44,.28,.57,.11,.41,.04,.76-.07,1.15-.11,.38-.19,.77-.22,1.17-.03,.37-.02,.76,.09,1.11,.1,.34,.33,.62,.51,.92,.03,.04,.09,0,.06-.04Z"/><path class="cls-3" d="M72.68,90.73s5.91-5.39,7.15-6.46c2.47-2.15,12.87-6.4,14.32-6.55,1.45-.15,1.97,2.82-5.09,5.91-3.72,1.63-4.38,3.76-4.31,4.94,.07,1.18,1.2,3.38,3.18,3.33,1.99-.05,3.27-2.95,5.1-3.27,1.83-.32,.62,3.02-.67,4.96-1.29,1.93-3.63,3.53-5.34,4.17-1.72,.64-7.04,2.94-7.04,2.94l-7.3-9.95Z"/><path class="cls-2" d="M90.39,90.5c-.75,.58-1.6,1.33-2.58,1.37-1.02,.04-1.68-.62-2.15-1.45-.48-.84-.75-1.79-.52-2.75,.21-.86,.72-1.62,1.36-2.23,.79-.75,1.73-1.3,2.69-1.79,.04-.02,0-.08-.04-.06-.91,.41-3.76,1.57-4.33,4.08-.23,1.03,.08,1.94,.55,2.8,.44,.79,1.08,1.55,2.04,1.63,1.17,.1,2.18-.86,3.03-1.57,.04-.03-.02-.06-.06-.03Z"/><path class="cls-23" d="M72.68,89.98l8.85,13.73s-14.04,7.86-18.01,6.6c-3.97-1.27-9.97-12.65-12.44-22.64-2.47-9.99,3.66-6.16,6.04-3.08,2.38,3.09,7.54,10.22,7.83,10.13,.28-.09,7.73-4.74,7.73-4.74Z"/><path class="cls-6" d="M77.49,105.82c-.87,.44-1.83,.9-2.83,1.37l-7.67-13.69c.81-.49,1.76-1.08,2.64-1.63,2.42,4.28,5.35,9.48,7.86,13.95Z"/><path class="cls-6" d="M73.57,107.69c-.3,.14-.62,.27-.93,.4l-7.55-13.44c.17-.1,.46-.27,.84-.5,2.38,4.2,5.21,9.22,7.63,13.54Z"/><path class="cls-2" d="M71.63,108.51c-3.2,1.3-6.34,2.25-7.97,1.84-.05-.01-.1-.03-.14-.04-3.97-1.27-9.97-12.65-12.44-22.64-.44-1.78-.6-3.12-.57-4.11,0-.05,0-.1,0-.15,0-.08,.01-.16,.02-.24v-.1c.02-.07,.03-.15,.04-.21l21.06,25.64Z"/><path class="cls-2" d="M76.58,102.36c-.28-.49-.56-.97-.85-1.46-.57-.97-4-6.72-5.35-8.47-.04-.05-.11,0-.08,.06,.94,2.01,4.5,7.66,5.09,8.59,.3,.48,.61,.95,.91,1.42,.31,.48,.67,.91,.98,1.39,.03,.05,.11,.01,.08-.04-.28-.48-.5-1-.78-1.49Z"/><path class="cls-23" d="M61.16,103.06l1.47,10.12c-4.41,2.82-9.64,4.45-15.26,4.45-5.25,0-10.17-1.43-14.4-3.92,1.49-7.73,5.07-22.68,11.66-30.28,1.1-1.26,4.82-4.69,9.52-.78,2.29,1.91,7.79,9.99,8.48,13.34,.69,3.36-1.48,7.06-1.48,7.06Z"/><path class="cls-2" d="M56.8,102.28c-1.62,.02-3.23,.36-4.78,.8-1.56,.44-5.01,1.81-5.88,2.15v.03c1.58-.39,1.8-.48,3.33-1,1.53-.52,3.08-.99,4.64-1.4,.88-.23,1.79-.37,2.69-.49,.06,0,.06-.1,0-.09Z"/><path class="cls-2" d="M59.65,103.11c-1.68-.16-3.39,.03-5.03,.45v.04c.84-.1,1.67-.2,2.5-.27,.84-.07,1.68-.11,2.52-.17v-.05Z"/><path class="cls-2" d="M61.38,92.56c-.22-.83-.53-1.62-.93-2.38h-.02c.31,.68,.56,1.38,.78,2.08-.57-1.03-1.24-2-1.93-2.96h-.02c1.97,3.28,3.93,7.06,2.99,10.99-.12,.49-.27,.97-.47,1.43-.2,.46-.43,.99-.74,1.39l.13,.13c.3-.34,.52-.73,.75-1.12,.24-.4,.43-.82,.58-1.26,.3-.88,.42-1.84,.41-2.78-.02-1.94-.65-3.82-1.54-5.52Z"/><path class="cls-3" d="M43.38,91.1c1.58,9.25,9.34,26.55,14.4,28.18,5.86,1.89,26.19-4.61,30.18-7.54,1.59-1.16-6.88-11.41-8.85-10.68-8.28,3.05-15.62,4.61-16.69,3.88-1.64-1.11-8.32-10.68-12.66-16.62-5.46-7.46-7.09-1.38-6.39,2.77Z"/><path class="cls-3" d="M87.44,112.03c.9-.32,7.13-4.84,8.97-6.97,1.17-1.35,3.19-3.7,4.79-7.42,1.85-4.3,2.72-7.45,2.27-8.86-.52-1.64-.66-1.91-4.97,5.24-2.44,4.04-4.76,4.5-6.77,4.46-8.26-.16-14.31,3.2-14.31,3.2,0,0,6.54,11.6,10.02,10.36Z"/><path class="cls-13" d="M106.56,83.43l-10.76,13.57c-.3,.37-.88,.56-1.3,.42l-7.5-2.49c-.42-.14-.52-.56-.22-.93l10.76-13.57c.3-.38,.88-.56,1.3-.42l7.5,2.49c.42,.14,.52,.55,.22,.93Z"/><path class="cls-2" d="M94.98,96.2c-.28,.36-.82,.55-1.19,.42l-6.71-2.23c-.38-.13-.45-.52-.17-.87l10.02-12.64c.58-.73,.91-.66,1.29-.54l1.34,.45c.08,.03,.08,.13,0,.22l-.03,.04c-.18,.23-.04,.27,.13,.33l3.11,1.03c.18,.06,.31,.1,.49-.12l.03-.04c.08-.1,.2-.15,.28-.13l1.34,.45c.38,.13,.6,.32,.07,.99l-10.02,12.64h0Zm10.68-13.93l-7.5-2.49c-.42-.14-1,.05-1.3,.43l-10.76,13.57c-.3,.38-.2,.79,.22,.93l7.5,2.49c.42,.14,1-.05,1.3-.43l10.75-13.57c.3-.38,.2-.79-.22-.93Z"/><polygon class="cls-4" points="101.87 81.76 101.02 81.48 101 81.41 101.09 81.38 101.94 81.66 101.95 81.73 101.87 81.76"/><path class="cls-4" d="M105,83.56l-10.01,12.64c-.28,.36-.82,.55-1.19,.42l-6.71-2.23c-.38-.13-.45-.52-.17-.87l10.02-12.64c.58-.73,.91-.66,1.29-.54l1.34,.45c.08,.03,.08,.13,0,.22l-.03,.04c-.18,.23-.04,.27,.13,.33l3.11,1.03c.18,.06,.32,.1,.49-.12l.03-.04c.08-.1,.2-.15,.28-.13l1.34,.45c.38,.13,.6,.32,.07,.99Z"/><path class="cls-24" d="M105,83.56l-.75,.94-8.07-2.68,.75-.94c.58-.73,.91-.66,1.29-.54l1.34,.45c.08,.03,.08,.13,0,.22l-.03,.04c-.18,.23-.04,.27,.13,.33l3.11,1.03c.17,.06,.32,.1,.5-.12l.03-.04c.08-.1,.2-.15,.28-.13l1.34,.45c.38,.13,.6,.32,.07,.99Z"/><polygon class="cls-4" points="97.36 81.63 97.28 81.35 97.67 81.24 97.68 81.28 97.36 81.38 97.43 81.61 97.36 81.63"/><polygon class="cls-4" points="104.26 83.57 104.18 83.6 104.16 83.54 104.24 83.52 104.26 83.57"/><polygon class="cls-4" points="104.14 83.72 104.06 83.75 104.05 83.69 104.13 83.66 104.14 83.72"/><polygon class="cls-4" points="104.03 83.87 103.95 83.89 103.93 83.84 104.01 83.81 104.03 83.87"/><path class="cls-4" d="M99.1,80.99h-.03s-.04-.06-.09-.08c-.05-.02-.1-.01-.16,0h0v-.02h.02l.06-.02h.11l.02,.02,.04,.03,.02,.02,.02,.03v.02h0Z"/><path class="cls-4" d="M98.83,80.97v-.02s.07-.02,.11,0c.05,.01,.08,.04,.1,.08h-.03l-.06-.05s-.07,0-.11,0Z"/><path class="cls-4" d="M98.96,81.04h-.03l-.03-.02h-.06v-.02s.11,0,.12,.04Z"/><polygon class="cls-4" points="98.89 81.06 98.86 81.07 98.85 81.04 98.88 81.03 98.89 81.06"/><polygon class="cls-4" points="97.81 80.61 97.9 80.58 97.91 80.64 97.82 80.67 97.81 80.61"/><polygon class="cls-4" points="97.98 80.66 98.07 80.63 98.08 80.7 97.99 80.73 97.98 80.66"/><polygon class="cls-4" points="98.14 80.72 98.24 80.69 98.25 80.75 98.16 80.78 98.14 80.72"/><polygon class="cls-4" points="98.31 80.77 98.4 80.75 98.42 80.81 98.33 80.84 98.31 80.77"/><polygon class="cls-4" points="98.48 80.83 98.57 80.8 98.59 80.87 98.5 80.9 98.48 80.83"/><polygon class="cls-4" points="104.7 83.12 104.08 82.92 104.34 82.59 104.95 82.8 104.7 83.12"/><polygon class="cls-4" points="104.66 82.83 104.38 82.74 104.29 82.85 104.57 82.95 104.66 82.83"/><polygon class="cls-4" points="104.74 82.99 104.7 82.98 104.77 82.88 104.81 82.89 104.74 82.99"/><polygon class="cls-6" points="88.24 93.79 88.18 93.77 87.98 94.02 87.87 93.98 87.97 93.86 87.77 93.79 87.66 93.92 87.55 93.88 87.75 93.63 87.68 93.61 88.16 93.45 88.24 93.79"/><polygon class="cls-6" points="94.55 95.68 93.88 95.46 93.94 95.37 94.61 95.6 94.55 95.68"/><polygon class="cls-6" points="94.38 95.89 93.71 95.67 93.78 95.58 94.45 95.8 94.38 95.89"/><polygon class="cls-6" points="94.22 96.1 93.55 95.87 93.61 95.79 94.28 96.01 94.22 96.1"/><polygon class="cls-6" points="91.27 94.76 90.94 94.87 90.89 94.63 90.94 94.61 90.98 94.81 91.26 94.72 91.27 94.76"/><path class="cls-6" d="M91.12,94.66c-.1,0-.2,.05-.25,.11l-.03,.06c.13,.05,.29,0,.36-.09l.03-.06-.11-.02h0Zm-.18,.6c-.07,0-.13,0-.19-.03-.14-.05-.25-.15-.29-.28-.04-.14,0-.29,.1-.42,.18-.22,.51-.33,.77-.24,.14,.05,.25,.15,.29,.28,.04,.14,0,.29-.1,.42-.14,.17-.36,.27-.57,.27Z"/><path class="cls-4" d="M99.95,82.33c.08-.1,.25-.15,.37-.11,.05,.02,.09,.05,.11,.09l-.03,.04h-.05s-.04-.06-.07-.07c-.04-.01-.09-.01-.14,0-.05,.01-.09,.04-.12,.08l-.03,.11s.04,.06,.08,.07c.04,.01,.08,.01,.12,0l.04,.02-.04,.04c-.06,.01-.12,.01-.17,0-.12-.04-.15-.16-.07-.26Z"/><polygon class="cls-4" points="100.3 82.64 100.55 82.34 100.6 82.32 100.61 82.36 100.51 82.48 100.67 82.54 100.77 82.41 100.82 82.39 100.83 82.43 100.59 82.74 100.53 82.76 100.52 82.72 100.62 82.59 100.47 82.54 100.37 82.67 100.31 82.68 100.3 82.64"/><path class="cls-4" d="M100.96,82.72l.04-.13-.14,.1,.1,.03h0Zm-.02,.06l-.14-.05-.08,.06h-.06v-.04l.38-.26h.05l.02,.02-.11,.35-.05,.03h-.01l-.02-.03,.02-.08Z"/><polygon class="cls-4" points="101.49 82.69 101.39 82.65 101.17 82.93 101.11 82.95 101.11 82.91 101.33 82.63 101.23 82.6 101.22 82.56 101.28 82.54 101.53 82.63 101.54 82.67 101.49 82.69"/><polygon class="cls-26" points="92.88 87.39 98.65 89.31 99.92 87.71 94.14 85.8 92.88 87.39"/><polygon class="cls-26" points="99.19 89.49 98.65 89.31 99.04 88.82 99.19 89.49"/><polygon class="cls-4" points="99.34 87.91 94.23 86.21 94.26 86.18 99.37 87.88 99.34 87.91"/><polygon class="cls-4" points="98.15 87.72 94.1 86.37 94.13 86.34 98.18 87.69 98.15 87.72"/><polygon class="cls-4" points="98.54 88.26 93.84 86.7 93.87 86.67 98.56 88.23 98.54 88.26"/><polygon class="cls-4" points="98.83 88.56 93.72 86.86 93.74 86.83 98.85 88.53 98.83 88.56"/><polygon class="cls-4" points="98.7 88.73 93.59 87.03 93.61 87 98.72 88.7 98.7 88.73"/><polygon class="cls-4" points="97.15 88.42 93.46 87.19 93.48 87.16 97.18 88.39 97.15 88.42"/><polygon class="cls-26" points="89.9 91.15 95.67 93.07 96.94 91.48 91.16 89.56 89.9 91.15"/><polygon class="cls-26" points="96.21 93.25 95.67 93.07 96.06 92.58 96.21 93.25"/><polygon class="cls-4" points="96.36 91.67 91.25 89.97 91.28 89.94 96.39 91.64 96.36 91.67"/><polygon class="cls-4" points="95.17 91.48 91.12 90.14 91.15 90.11 95.2 91.45 95.17 91.48"/><polygon class="cls-4" points="95.55 92.02 90.86 90.46 90.89 90.43 95.58 91.99 95.55 92.02"/><polygon class="cls-4" points="95.84 92.33 90.73 90.63 90.76 90.6 95.87 92.3 95.84 92.33"/><polygon class="cls-4" points="95.72 92.49 90.6 90.79 90.63 90.76 95.74 92.46 95.72 92.49"/><polygon class="cls-4" points="94.17 92.18 90.47 90.95 90.5 90.92 94.19 92.15 94.17 92.18"/><polygon class="cls-24" points="101.7 86.31 95.93 84.39 97 83.05 102.77 84.97 101.7 86.31"/><polygon class="cls-24" points="95.4 84.21 95.93 84.39 96.32 83.9 95.4 84.21"/><polygon class="cls-4" points="101.37 84.85 97.11 83.44 97.14 83.41 101.39 84.82 101.37 84.85"/><polygon class="cls-4" points="102.09 85.3 96.98 83.6 97.01 83.57 102.12 85.27 102.09 85.3"/><polygon class="cls-4" points="101.97 85.47 96.85 83.77 96.88 83.74 101.99 85.44 101.97 85.47"/><polygon class="cls-4" points="101.43 85.49 96.73 83.93 96.75 83.9 101.46 85.46 101.43 85.49"/><polygon class="cls-4" points="101.71 85.79 96.6 84.09 96.62 84.06 101.73 85.76 101.71 85.79"/><polygon class="cls-4" points="100.24 85.51 96.47 84.26 96.49 84.23 100.27 85.48 100.24 85.51"/><polygon class="cls-24" points="100.74 87.53 94.97 85.61 95.76 84.61 101.53 86.53 100.74 87.53"/><polygon class="cls-24" points="94.44 85.43 94.97 85.61 95.36 85.12 94.44 85.43"/><polygon class="cls-4" points="100.98 86.7 95.88 85 95.9 84.97 101 86.67 100.98 86.7"/><polygon class="cls-4" points="99.95 86.56 95.75 85.16 95.77 85.13 99.97 86.53 99.95 86.56"/><polygon class="cls-4" points="100.24 86.86 95.62 85.33 95.64 85.3 100.26 86.83 100.24 86.86"/><polygon class="cls-4" points="99.05 86.68 95.49 85.49 95.51 85.46 99.08 86.65 99.05 86.68"/><polygon class="cls-20" points="97.77 91.28 91.99 89.36 93.11 87.96 98.88 89.88 97.77 91.28"/><polygon class="cls-20" points="91.46 89.18 91.99 89.36 92.38 88.87 91.46 89.18"/><polygon class="cls-4" points="97.67 90.44 92.84 88.83 92.86 88.8 97.69 90.41 97.67 90.44"/><polygon class="cls-4" points="97.14 90.47 92.71 89 92.73 88.97 97.17 90.44 97.14 90.47"/><polygon class="cls-4" points="97.65 90.02 93.1 88.5 93.12 88.47 97.67 89.99 97.65 90.02"/><polygon class="cls-4" points="98.28 90.02 93.23 88.34 93.25 88.31 98.3 89.99 98.28 90.02"/><polygon class="cls-4" points="97.17 90.69 92.58 89.16 92.61 89.13 97.2 90.66 97.17 90.69"/><polygon class="cls-24" points="94.95 94.83 89.18 92.91 90.11 91.74 95.88 93.66 94.95 94.83"/><polygon class="cls-24" points="88.65 92.73 89.18 92.91 89.57 92.42 88.65 92.73"/><polygon class="cls-4" points="95.34 93.82 90.23 92.12 90.26 92.09 95.37 93.79 95.34 93.82"/><polygon class="cls-4" points="95.21 93.99 90.1 92.29 90.13 92.26 95.24 93.96 95.21 93.99"/><polygon class="cls-4" points="94.68 94.01 89.97 92.45 90 92.42 94.7 93.98 94.68 94.01"/><polygon class="cls-4" points="94.95 94.31 89.84 92.61 89.87 92.58 94.98 94.28 94.95 94.31"/><polygon class="cls-4" points="93.49 94.03 89.71 92.78 89.74 92.75 93.51 94 93.49 94.03"/><path class="cls-3" d="M92.73,98.43c-2.08,.03,4.68-4.19,4.79-6.56,.1-2.37-2.2-1.62-4.02-.29-6.32,4.64-11.08,4.41-14.28,8.85-3.2,4.43,13.52-2.01,13.52-2.01Z"/><path class="cls-2" d="M86.43,95.55c-1.35,.38-2.67,.82-3.89,1.53-1.13,.66-2.02,1.61-2.81,2.63-.03,.04,.03,.11,.06,.06,1.71-2.1,4.23-3.15,6.66-4.16,.04-.01,.02-.07-.02-.06Z"/><path class="cls-23" d="M62.87,104.38c1.62,.44,12.89-2.65,12.89-2.65l6.33,15.32s-19.63,4.57-24.21,2.98c-4.58-1.59-11.72-17.15-14.02-26.2-2.17-8.5,.72-14.06,6.79-5.24,0,0,11.37,15.57,12.21,15.8Z"/><path class="cls-6" d="M78.5,117.83c-1.27,.26-2.78,.56-4.42,.88l-5.77-15.12c1.47-.33,3.02-.71,4.3-1.03,1.77,4.6,3.93,10.19,5.88,15.28Z"/><path class="cls-6" d="M72.37,119.01c-.47,.08-.94,.17-1.42,.25l-5.75-15.04c.43-.07,.89-.16,1.38-.25,1.74,4.51,3.86,10.01,5.79,15.05Z"/><path class="cls-2" d="M57.64,119.56c-3.84-1.97-8.57-12.26-9.48-14.28-.58-1.29-1.12-2.61-1.64-3.92-1.05-2.64-2.01-5.31-2.93-7.99-.02-.05-.08-.03-.07,.02,.5,2.07,1.11,4.13,1.82,6.15-.47-.75-.88-1.54-1.25-2.34-.02-.04-.08,0-.07,.03,.37,.96,.87,1.86,1.46,2.7,.72,2.03,1.53,4.03,2.44,5.97,.26,.56,5.74,13.17,10.03,14.34,1.49,.41,6.6,.04,7.68-.21,.05-.01,.06-.07,0-.07-1.47-.03-6.61,.3-7.98-.4Z"/><path class="cls-2" d="M77.85,115.19c-.19-.53-.38-1.06-.58-1.58-.39-1.05-2.75-7.32-3.78-9.27-.03-.05-.11-.01-.09,.04,.58,2.14,3.08,8.33,3.5,9.35,.21,.52,.43,1.04,.65,1.56,.22,.52,.5,1.02,.72,1.54,.02,.05,.1,.03,.08-.03-.19-.53-.32-1.08-.51-1.61Z"/><path class="cls-2" d="M75.76,101.76c-.93,.04-9.37,2-11.23,2.42-.44,.1-.92,.26-1.38,.19-.48-.08-.8-.48-1.11-.83-.6-.69-7.2-9.41-7.68-9.84-.18-.16-.32-.19-.15,.08,.29,.47,6.71,9.08,7.29,9.76,.54,.63,1.05,1.29,1.96,1.25,.4-.02,11.78-2.57,12.34-2.8,.12-.05,.11-.24-.04-.24Z"/><path class="cls-3" d="M48.88,82.22c.03,.57,2.01,4.54,4.52,4.86,.82,.1,1.57-4.33,1.57-4.33l.13-.31,1.82-4.4-4.78-4.38-.7-.59s-.42,1.24-.92,2.78c-.02,.07-.05,.14-.07,.22-.03,.09-.06,.17-.09,.25-.08,.23-.16,.46-.23,.7-.06,.18-.11,.35-.17,.54-.06,.19-.11,.37-.17,.56-.53,1.88-.92,3.86-.91,4.1Z"/><path class="cls-2" d="M50.51,75.85c.68,3.87,3.33,5.86,4.58,6.59l1.82-4.4-4.78-4.38-.7-.59s-.42,1.24-.92,2.78Z"/><path class="cls-3" d="M64.52,71.04c.1,8.35-4.89,9.36-6.69,9.38-1.63,.02-7.2-.13-8.17-8.42-.97-8.3,2.89-10.99,6.62-11.23,3.74-.24,8.13,1.92,8.24,10.27Z"/><path class="cls-2" d="M63.19,69.34c-.19-.03-.37-.1-.56-.15-.21-.06-.39-.09-.54-.26-.08-.09-.06-.28,.02-.36,.2-.2,.48-.19,.74-.13,.28,.07,.48,.19,.66,.42,.17,.22-.06,.53-.32,.49Z"/><path class="cls-2" d="M57.61,69.29c.2-.01,.38-.05,.57-.09,.22-.04,.4-.04,.56-.2,.09-.08,.09-.27,.02-.36-.17-.22-.45-.25-.72-.21-.29,.03-.5,.14-.7,.34-.19,.2,0,.53,.26,.52Z"/><path class="cls-2" d="M58.63,71.34l-.05,.05c0,.57-.1,1.22-.62,1.39v.03c.63-.07,.75-.93,.67-1.47Z"/><path class="cls-2" d="M58.14,70.73c-.91-.1-1.05,1.73-.2,1.82,.83,.09,.97-1.74,.2-1.82Z"/><path class="cls-2" d="M57.77,70.8c-.17,.09-.34,.26-.53,.27-.22,0-.38-.2-.51-.39l-.03,.02c-.03,.35,.08,.72,.45,.8,.34,.07,.61-.22,.72-.57,.02-.06-.03-.16-.1-.13Z"/><path class="cls-2" d="M61.97,71.36l.04,.05c-.06,.57-.04,1.22,.46,1.45v.03c-.63-.14-.65-1.01-.49-1.54Z"/><path class="cls-2" d="M62.53,70.81c.92,0,.84,1.84-.01,1.83-.84,0-.76-1.84,.01-1.83Z"/><path class="cls-2" d="M62.9,70.94c.14,.1,.28,.29,.45,.3,.2,.02,.36-.17,.49-.35l.03,.02c0,.35-.14,.71-.48,.76-.31,.05-.52-.26-.59-.61-.01-.07,.04-.16,.1-.12Z"/><path class="cls-2" d="M58.36,75.78c.12,.15,.23,.35,.44,.39,.19,.04,.44-.02,.62-.07l.02,.03c-.17,.2-.5,.3-.75,.22-.25-.07-.35-.31-.38-.55l.06-.02Z"/><path class="cls-2" d="M60.86,73.88s.07,.85,.04,1.25c0,.04-.1,.05-.24,.05h-.02c-.71,.07-1.41-.22-1.8-.82-.03-.04,.03-.08,.06-.05,.5,.42,1.08,.56,1.71,.6,.03-.11-.16-1.46-.1-1.46,.22,0,.64,.17,.9,.26-.08-1.78-.45-3.54-.51-5.32,0-.06,.09-.08,.11-.02,.52,1.81,.66,3.87,.79,5.71,.02,.23-.79-.12-.94-.2Z"/><path class="cls-2" d="M60.62,75.03s-.41,.52-.95,.7c-.2,.07-.42,.09-.64,.02-.46-.13-.46-.56-.36-.92,.08-.3,.22-.55,.22-.55,0,0,.65,.65,1.73,.75Z"/><path class="cls-21" d="M59.66,75.73c-.2,.07-.42,.09-.64,.02-.46-.13-.46-.56-.36-.92,.49,.06,.97,.41,1,.89Z"/><path class="cls-2" d="M49.47,71.67c1.39,.26,2.02-2.64,2.02-2.64,0,0,2.84,.31,4.21-3.67,0,0-.26,1.89-1.62,3.24,0,0,5.06,0,7.62-3.96,0,0-1.07,2.04-1.94,2.72,0,0,2.16-.36,3.37-1.96,0,0,.62,2.51,1.22,3.25,0,0,.73-8.78-7.49-8.72,0,0-5.12-.2-7.37,3.63-2.25,3.83-.02,8.11-.02,8.11Z"/><path class="cls-3" d="M50.73,72.11s-1.62-2.74-2.85-2.17c-1.23,.56-.14,4.43,1.21,5.05,1.35,.62,1.94-.62,1.94-.62l-.3-2.26Z"/><path class="cls-2" d="M48.22,71.03v.04c.93,.47,1.38,1.4,1.67,2.36-.26-.38-.64-.61-1.15-.3l.02,.05c.4-.06,.69,.04,.93,.37,.17,.24,.28,.53,.4,.81,.04,.09,.2,.06,.17-.05v-.02c.11-1.24-.72-3.04-2.04-3.26Z"/><text class="cls-32" transform="translate(107.1 137.54)"><tspan x="0" y="0">BHASHINI</tspan></text></svg>