<?xml version="1.0" encoding="UTF-8"?>
<svg width="15px" height="15px" viewBox="0 0 15 15" version="1.1" xmlns="http://www.w3.org/2000/svg" xmlns:xlink="http://www.w3.org/1999/xlink">
    <title>560398CE-9075-43A9-B735-086D5DE9230E@svg</title>
    <g id="VD" stroke="none" stroke-width="1" fill="none" fill-rule="evenodd">
        <g id="School-Page-New" transform="translate(-569.000000, -4943.000000)" fill="#999999" fill-rule="nonzero">
            <g id="Group-7-Copy-2" transform="translate(0.000000, 4351.000000)">
                <g id="Group-16" transform="translate(160.000000, 100.522510)">
                    <g id="Group-51" transform="translate(0.000000, 81.477490)">
                        <g id="Group-49" transform="translate(40.000000, 240.000000)">
                            <g id="info" transform="translate(0.000000, 167.000000)">
                                <g id="time-to-read" transform="translate(369.000000, 0.000000)">
                                    <g id="icn-clock" transform="translate(0.000000, 3.000000)">
                                        <path d="M7.5,0 C3.35786438,0 0,3.35786438 0,7.5 C0,11.6421356 3.35786438,15 7.5,15 C11.6421356,15 15,11.6421356 15,7.5 C15,5.51087633 14.2098237,3.60322198 12.8033009,2.19669914 C11.396778,0.790176303 9.48912367,0 7.5,0 Z M11.1910714,9.34821429 C11.1002945,9.5283641 10.9160133,9.64224573 10.7142857,9.64289281 C10.6302444,9.64386276 10.5473145,9.62359102 10.4732143,9.58392857 L7.25892857,7.97678571 C7.07877876,7.8860088 6.96489713,7.70172761 6.96428571,7.5 L6.96428571,2.67857143 C6.96428571,2.3827046 7.20413317,2.14285714 7.5,2.14285714 C7.79586683,2.14285714 8.03571429,2.3827046 8.03571429,2.67857143 L8.03571429,7.16785714 L10.9553571,8.63035714 C11.2180248,8.76405837 11.3233523,9.08482846 11.1910714,9.34821429 L11.1910714,9.34821429 Z" id="icn"></path>
                                    </g>
                                </g>
                            </g>
                        </g>
                    </g>
                </g>
            </g>
        </g>
    </g>
</svg>