<?xml version="1.0" encoding="UTF-8"?>
<svg width="15px" height="15px" viewBox="0 0 15 15" version="1.1" xmlns="http://www.w3.org/2000/svg" xmlns:xlink="http://www.w3.org/1999/xlink">
    <title>25052118-E396-46B3-86C7-3F56AF837DCD@svg</title>
    <g id="VD" stroke="none" stroke-width="1" fill="none" fill-rule="evenodd">
        <g id="School-Page-New" transform="translate(-780.000000, -4943.000000)" fill="#999999" fill-rule="nonzero">
            <g id="Group-7-Copy-2" transform="translate(0.000000, 4351.000000)">
                <g id="Group-16" transform="translate(160.000000, 100.522510)">
                    <g id="Group-15" transform="translate(580.000000, 81.477490)">
                        <g id="Group-50" transform="translate(40.000000, 240.000000)">
                            <g id="info" transform="translate(0.000000, 167.000000)">
                                <g id="icn-calendar" transform="translate(0.000000, 3.000000)">
                                    <path d="M1.09375,6.59375 C1.25,6.59375 1.390625,6.71875 1.390625,6.890625 L1.390625,6.890625 L1.390625,12.984375 C1.390625,13.328125 1.671875,13.625 2.03125,13.625 L2.03125,13.625 L12.984375,13.625 C13.328125,13.625 13.625,13.34375 13.625,12.984375 L13.625,12.984375 L13.625,6.890625 C13.625,6.734375 13.75,6.59375 13.921875,6.59375 L13.921875,6.59375 L14.609375,6.59375 C14.765625,6.59375 14.90625,6.71875 14.90625,6.890625 L14.90625,6.890625 L14.90625,12.984375 C14.90625,14.0625 14.03125,14.921875 12.96875,14.921875 L12.96875,14.921875 L2.03125,14.921875 C0.953125,14.921875 0.09375,14.0625 0.09375,12.984375 L0.09375,12.984375 L0.09375,6.890625 C0.09375,6.734375 0.21875,6.59375 0.390625,6.59375 L0.390625,6.59375 Z M11.75,9.921875 C11.953125,9.921875 12.125,10.09375 12.125,10.296875 L12.125,10.296875 L12.125,11.765625 C12.125,11.96875 11.953125,12.140625 11.75,12.140625 L11.75,12.140625 L9.984375,12.140625 C9.78125,12.140625 9.609375,11.96875 9.609375,11.765625 L9.609375,11.765625 L9.609375,10.296875 C9.609375,10.09375 9.78125,9.921875 9.984375,9.921875 L9.984375,9.921875 Z M5.03125,9.921875 C5.234375,9.921875 5.40625,10.09375 5.40625,10.296875 L5.40625,10.296875 L5.40625,11.765625 C5.40625,11.96875 5.234375,12.140625 5.03125,12.140625 L5.03125,12.140625 L3.265625,12.140625 C3.0625,12.140625 2.890625,11.96875 2.890625,11.765625 L2.890625,11.765625 L2.875,11.765625 L2.875,10.296875 C2.875,10.09375 3.046875,9.921875 3.25,9.921875 L3.25,9.921875 Z M8.390625,9.921875 C8.59375,9.921875 8.765625,10.09375 8.765625,10.296875 L8.765625,10.296875 L8.765625,11.765625 C8.765625,11.96875 8.59375,12.140625 8.390625,12.140625 L8.390625,12.140625 L6.625,12.140625 C6.421875,12.140625 6.25,11.96875 6.25,11.765625 L6.25,11.765625 L6.234375,11.765625 L6.234375,10.296875 C6.234375,10.09375 6.40625,9.921875 6.609375,9.921875 L6.609375,9.921875 Z M5.015625,6.84375 C5.21875,6.84375 5.390625,7.015625 5.390625,7.21875 L5.390625,7.21875 L5.390625,8.6875 C5.390625,8.890625 5.21875,9.0625 5.015625,9.0625 L5.015625,9.0625 L3.25,9.0625 C3.046875,9.0625 2.890625,8.890625 2.875,8.6875 L2.875,8.6875 L2.875,7.21875 C2.875,7.015625 3.046875,6.84375 3.25,6.84375 L3.25,6.84375 Z M11.75,6.84375 C11.953125,6.84375 12.125,7.015625 12.125,7.21875 L12.125,7.21875 L12.125,8.6875 C12.125,8.890625 11.953125,9.0625 11.75,9.0625 L11.75,9.0625 L9.984375,9.0625 C9.765625,9.0625 9.609375,8.890625 9.609375,8.6875 L9.609375,8.6875 L9.609375,7.21875 C9.609375,7.015625 9.78125,6.84375 9.984375,6.84375 L9.984375,6.84375 Z M8.375,6.84375 C8.578125,6.84375 8.75,7.015625 8.75,7.21875 L8.75,7.21875 L8.75,8.6875 C8.75,8.890625 8.578125,9.0625 8.375,9.0625 L8.375,9.0625 L6.609375,9.0625 C6.40625,9.0625 6.25,8.890625 6.234375,8.6875 L6.234375,8.6875 L6.234375,7.21875 C6.234375,7.015625 6.40625,6.84375 6.609375,6.84375 L6.609375,6.84375 Z M2.71875,1.0625 L2.71875,2.3125 C2.71875,2.953125 3.234375,3.484375 3.890625,3.484375 L3.890625,3.484375 L5.015625,3.484375 C5.671875,3.484375 6.1875,2.953125 6.1875,2.3125 L6.1875,2.3125 L6.1875,1.0625 L8.8125,1.0625 L8.8125,2.3125 C8.8125,2.953125 9.328125,3.484375 9.984375,3.484375 L9.984375,3.484375 L11.109375,3.484375 C11.765625,3.484375 12.28125,2.953125 12.28125,2.3125 L12.28125,2.3125 L12.28125,1.0625 L13.5625,1.0625 C14.3125,1.0625 14.90625,1.65625 14.90625,2.40625 L14.90625,2.40625 L14.90625,5.0625 C14.90625,5.21875 14.78125,5.359375 14.609375,5.359375 L14.609375,5.359375 L0.390625,5.359375 C0.234375,5.359375 0.09375,5.234375 0.09375,5.0625 L0.09375,5.0625 L0.09375,2.40625 C0.09375,1.671875 0.6875,1.0625 1.4375,1.0625 L1.4375,1.0625 L2.71875,1.0625 Z M4.9375,0.078125 C5.203125,0.078125 5.40625,0.296875 5.40625,0.546875 L5.40625,0.546875 L5.40625,2.3125 C5.40625,2.53125 5.234375,2.703125 5.015625,2.703125 L5.015625,2.703125 L3.890625,2.703125 C3.671875,2.703125 3.484375,2.515625 3.484375,2.296875 L3.484375,2.296875 L3.484375,0.546875 C3.484375,0.296875 3.6875,0.078125 3.953125,0.078125 L3.953125,0.078125 Z M11.03125,0.078125 C11.296875,0.078125 11.5,0.296875 11.5,0.546875 L11.5,0.546875 L11.5,2.3125 C11.5,2.53125 11.328125,2.703125 11.109375,2.703125 L11.109375,2.703125 L9.984375,2.703125 C9.765625,2.703125 9.59375,2.515625 9.578125,2.296875 L9.578125,2.296875 L9.578125,0.546875 C9.578125,0.296875 9.78125,0.078125 10.046875,0.078125 L10.046875,0.078125 Z" id="icn"></path>
                                </g>
                            </g>
                        </g>
                    </g>
                </g>
            </g>
        </g>
    </g>
</svg>